M48
; DRILL file {KiCad 7.0.1} date Sun Apr  2 16:08:43 2023
; FORMAT={-:-/ absolute / metric / decimal}
; #@! TF.CreationDate,2023-04-02T16:08:43+02:00
; #@! TF.GenerationSoftware,Kicad,Pcbnew,7.0.1
; #@! TF.FileFunction,Plated,1,2,PTH
FMAT,2
METRIC
; #@! TA.AperFunction,Plated,PTH,ViaDrill
T1C0.400
; #@! TA.AperFunction,Plated,PTH,ComponentDrill
T2C0.762
; #@! TA.AperFunction,Plated,PTH,ComponentDrill
T3C0.800
; #@! TA.AperFunction,Plated,PTH,ComponentDrill
T4C1.000
%
G90
G05
T1
X-36.195Y7.62
X-34.544Y18.796
X-34.29Y6.35
X-33.02Y19.05
X-32.835Y15.24
X-31.115Y1.27
X-29.845Y12.249
X-26.035Y7.62
X-25.4Y2.54
X-20.32Y3.81
X-19.685Y21.336
X-18.415Y17.78
T2
X-28.214Y19.05
X-28.214Y16.51
X-28.214Y13.97
X-28.214Y11.43
X-28.214Y8.89
X-28.214Y6.35
X-28.214Y3.81
X-28.214Y1.27
X-28.214Y-1.27
X-28.214Y-3.81
X-28.214Y-6.35
X-28.214Y-8.89
X-28.214Y-11.43
X-28.214Y-13.97
X-28.214Y-16.51
X-28.214Y-19.05
X21.62Y8.89
X21.62Y6.35
X21.62Y3.81
X21.62Y1.27
X21.62Y-1.27
X21.62Y-3.81
X21.62Y-6.35
X21.62Y-8.89
T3
X-22.86Y13.93
X-22.86Y11.43
T4
X-44.45Y21.59
X-44.45Y19.05
X-44.45Y16.51
X-44.45Y13.97
X-44.45Y11.43
X-44.45Y8.89
X-41.91Y21.59
X-41.91Y19.05
X-41.91Y16.51
X-41.91Y13.97
X-41.91Y11.43
X-41.91Y8.89
T0
M30
