%TF.GenerationSoftware,KiCad,Pcbnew,7.0.1*%
%TF.CreationDate,2023-04-02T16:08:44+02:00*%
%TF.ProjectId,PMOD SPI SD TFT,504d4f44-2053-4504-9920-534420544654,V1.0*%
%TF.SameCoordinates,Original*%
%TF.FileFunction,Drillmap*%
%TF.FilePolarity,Positive*%
%FSLAX45Y45*%
G04 Gerber Fmt 4.5, Leading zero omitted, Abs format (unit mm)*
G04 Created by KiCad (PCBNEW 7.0.1) date 2023-04-02 16:08:44*
%MOMM*%
%LPD*%
G01*
G04 APERTURE LIST*
%ADD10C,0.100000*%
%ADD11C,0.200000*%
%ADD12C,0.040000*%
%ADD13C,0.076200*%
%ADD14C,0.080000*%
G04 APERTURE END LIST*
D10*
X2540000Y-2413000D02*
X2540000Y2540000D01*
X-3175000Y-2413000D02*
X-3175000Y508000D01*
X2540000Y2540000D02*
X-4826000Y2540000D01*
X-4826000Y2540000D02*
X-4826000Y508000D01*
X-4826000Y508000D02*
X-3175000Y508000D01*
X2540000Y-2413000D02*
X-3175000Y-2413000D01*
D11*
D12*
X-3639500Y782000D02*
X-3599500Y742000D01*
X-3599500Y782000D02*
X-3639500Y742000D01*
X-3474400Y1899600D02*
X-3434400Y1859600D01*
X-3434400Y1899600D02*
X-3474400Y1859600D01*
X-3449000Y655000D02*
X-3409000Y615000D01*
X-3409000Y655000D02*
X-3449000Y615000D01*
X-3322000Y1925000D02*
X-3282000Y1885000D01*
X-3282000Y1925000D02*
X-3322000Y1885000D01*
X-3303550Y1544000D02*
X-3263550Y1504000D01*
X-3263550Y1544000D02*
X-3303550Y1504000D01*
X-3131500Y147000D02*
X-3091500Y107000D01*
X-3091500Y147000D02*
X-3131500Y107000D01*
X-3004500Y1244950D02*
X-2964500Y1204950D01*
X-2964500Y1244950D02*
X-3004500Y1204950D01*
X-2623500Y782000D02*
X-2583500Y742000D01*
X-2583500Y782000D02*
X-2623500Y742000D01*
X-2560000Y274000D02*
X-2520000Y234000D01*
X-2520000Y274000D02*
X-2560000Y234000D01*
X-2052000Y401000D02*
X-2012000Y361000D01*
X-2012000Y401000D02*
X-2052000Y361000D01*
X-1988500Y2153600D02*
X-1948500Y2113600D01*
X-1948500Y2153600D02*
X-1988500Y2113600D01*
X-1861500Y1798000D02*
X-1821500Y1758000D01*
X-1821500Y1798000D02*
X-1861500Y1758000D01*
D13*
X-2783280Y1905000D02*
G75*
G03*
X-2783280Y1905000I-38100J0D01*
G01*
X-2783280Y1651000D02*
G75*
G03*
X-2783280Y1651000I-38100J0D01*
G01*
X-2783280Y1397000D02*
G75*
G03*
X-2783280Y1397000I-38100J0D01*
G01*
X-2783280Y1143000D02*
G75*
G03*
X-2783280Y1143000I-38100J0D01*
G01*
X-2783280Y889000D02*
G75*
G03*
X-2783280Y889000I-38100J0D01*
G01*
X-2783280Y635000D02*
G75*
G03*
X-2783280Y635000I-38100J0D01*
G01*
X-2783280Y381000D02*
G75*
G03*
X-2783280Y381000I-38100J0D01*
G01*
X-2783280Y127000D02*
G75*
G03*
X-2783280Y127000I-38100J0D01*
G01*
X-2783280Y-127000D02*
G75*
G03*
X-2783280Y-127000I-38100J0D01*
G01*
X-2783280Y-381000D02*
G75*
G03*
X-2783280Y-381000I-38100J0D01*
G01*
X-2783280Y-635000D02*
G75*
G03*
X-2783280Y-635000I-38100J0D01*
G01*
X-2783280Y-889000D02*
G75*
G03*
X-2783280Y-889000I-38100J0D01*
G01*
X-2783280Y-1143000D02*
G75*
G03*
X-2783280Y-1143000I-38100J0D01*
G01*
X-2783280Y-1397000D02*
G75*
G03*
X-2783280Y-1397000I-38100J0D01*
G01*
X-2783280Y-1651000D02*
G75*
G03*
X-2783280Y-1651000I-38100J0D01*
G01*
X-2783280Y-1905000D02*
G75*
G03*
X-2783280Y-1905000I-38100J0D01*
G01*
X2200100Y889000D02*
G75*
G03*
X2200100Y889000I-38100J0D01*
G01*
X2200100Y635000D02*
G75*
G03*
X2200100Y635000I-38100J0D01*
G01*
X2200100Y381000D02*
G75*
G03*
X2200100Y381000I-38100J0D01*
G01*
X2200100Y127000D02*
G75*
G03*
X2200100Y127000I-38100J0D01*
G01*
X2200100Y-127000D02*
G75*
G03*
X2200100Y-127000I-38100J0D01*
G01*
X2200100Y-381000D02*
G75*
G03*
X2200100Y-381000I-38100J0D01*
G01*
X2200100Y-635000D02*
G75*
G03*
X2200100Y-635000I-38100J0D01*
G01*
X2200100Y-889000D02*
G75*
G03*
X2200100Y-889000I-38100J0D01*
G01*
D14*
X-2286000Y1433000D02*
X-2286000Y1353000D01*
X-2326000Y1393000D02*
X-2246000Y1393000D01*
X-2286000Y1183000D02*
X-2286000Y1103000D01*
X-2326000Y1143000D02*
X-2246000Y1143000D01*
D10*
X-4409644Y2123644D02*
X-4409644Y2194356D01*
X-4480356Y2194356D01*
X-4480356Y2123644D01*
X-4409644Y2123644D01*
X-4409644Y1869644D02*
X-4409644Y1940356D01*
X-4480356Y1940356D01*
X-4480356Y1869644D01*
X-4409644Y1869644D01*
X-4409644Y1615644D02*
X-4409644Y1686356D01*
X-4480356Y1686356D01*
X-4480356Y1615644D01*
X-4409644Y1615644D01*
X-4409644Y1361644D02*
X-4409644Y1432356D01*
X-4480356Y1432356D01*
X-4480356Y1361644D01*
X-4409644Y1361644D01*
X-4409644Y1107644D02*
X-4409644Y1178356D01*
X-4480356Y1178356D01*
X-4480356Y1107644D01*
X-4409644Y1107644D01*
X-4409644Y853644D02*
X-4409644Y924356D01*
X-4480356Y924356D01*
X-4480356Y853644D01*
X-4409644Y853644D01*
X-4155644Y2123644D02*
X-4155644Y2194356D01*
X-4226356Y2194356D01*
X-4226356Y2123644D01*
X-4155644Y2123644D01*
X-4155644Y1869644D02*
X-4155644Y1940356D01*
X-4226356Y1940356D01*
X-4226356Y1869644D01*
X-4155644Y1869644D01*
X-4155644Y1615644D02*
X-4155644Y1686356D01*
X-4226356Y1686356D01*
X-4226356Y1615644D01*
X-4155644Y1615644D01*
X-4155644Y1361644D02*
X-4155644Y1432356D01*
X-4226356Y1432356D01*
X-4226356Y1361644D01*
X-4155644Y1361644D01*
X-4155644Y1107644D02*
X-4155644Y1178356D01*
X-4226356Y1178356D01*
X-4226356Y1107644D01*
X-4155644Y1107644D01*
X-4155644Y853644D02*
X-4155644Y924356D01*
X-4226356Y924356D01*
X-4226356Y853644D01*
X-4155644Y853644D01*
D11*
X-4583381Y-2730524D02*
X-4583381Y-2530524D01*
X-4583381Y-2530524D02*
X-4535762Y-2530524D01*
X-4535762Y-2530524D02*
X-4507190Y-2540048D01*
X-4507190Y-2540048D02*
X-4488143Y-2559095D01*
X-4488143Y-2559095D02*
X-4478619Y-2578143D01*
X-4478619Y-2578143D02*
X-4469095Y-2616238D01*
X-4469095Y-2616238D02*
X-4469095Y-2644810D01*
X-4469095Y-2644810D02*
X-4478619Y-2682905D01*
X-4478619Y-2682905D02*
X-4488143Y-2701952D01*
X-4488143Y-2701952D02*
X-4507190Y-2721000D01*
X-4507190Y-2721000D02*
X-4535762Y-2730524D01*
X-4535762Y-2730524D02*
X-4583381Y-2730524D01*
X-4383381Y-2730524D02*
X-4383381Y-2597190D01*
X-4383381Y-2635286D02*
X-4373857Y-2616238D01*
X-4373857Y-2616238D02*
X-4364333Y-2606714D01*
X-4364333Y-2606714D02*
X-4345286Y-2597190D01*
X-4345286Y-2597190D02*
X-4326238Y-2597190D01*
X-4259571Y-2730524D02*
X-4259571Y-2597190D01*
X-4259571Y-2530524D02*
X-4269095Y-2540048D01*
X-4269095Y-2540048D02*
X-4259571Y-2549571D01*
X-4259571Y-2549571D02*
X-4250048Y-2540048D01*
X-4250048Y-2540048D02*
X-4259571Y-2530524D01*
X-4259571Y-2530524D02*
X-4259571Y-2549571D01*
X-4135762Y-2730524D02*
X-4154809Y-2721000D01*
X-4154809Y-2721000D02*
X-4164333Y-2701952D01*
X-4164333Y-2701952D02*
X-4164333Y-2530524D01*
X-4031000Y-2730524D02*
X-4050048Y-2721000D01*
X-4050048Y-2721000D02*
X-4059571Y-2701952D01*
X-4059571Y-2701952D02*
X-4059571Y-2530524D01*
X-3802428Y-2730524D02*
X-3802428Y-2530524D01*
X-3802428Y-2530524D02*
X-3735762Y-2673381D01*
X-3735762Y-2673381D02*
X-3669095Y-2530524D01*
X-3669095Y-2530524D02*
X-3669095Y-2730524D01*
X-3488143Y-2730524D02*
X-3488143Y-2625762D01*
X-3488143Y-2625762D02*
X-3497667Y-2606714D01*
X-3497667Y-2606714D02*
X-3516714Y-2597190D01*
X-3516714Y-2597190D02*
X-3554809Y-2597190D01*
X-3554809Y-2597190D02*
X-3573857Y-2606714D01*
X-3488143Y-2721000D02*
X-3507190Y-2730524D01*
X-3507190Y-2730524D02*
X-3554809Y-2730524D01*
X-3554809Y-2730524D02*
X-3573857Y-2721000D01*
X-3573857Y-2721000D02*
X-3583381Y-2701952D01*
X-3583381Y-2701952D02*
X-3583381Y-2682905D01*
X-3583381Y-2682905D02*
X-3573857Y-2663857D01*
X-3573857Y-2663857D02*
X-3554809Y-2654333D01*
X-3554809Y-2654333D02*
X-3507190Y-2654333D01*
X-3507190Y-2654333D02*
X-3488143Y-2644810D01*
X-3392905Y-2597190D02*
X-3392905Y-2797190D01*
X-3392905Y-2606714D02*
X-3373857Y-2597190D01*
X-3373857Y-2597190D02*
X-3335762Y-2597190D01*
X-3335762Y-2597190D02*
X-3316714Y-2606714D01*
X-3316714Y-2606714D02*
X-3307190Y-2616238D01*
X-3307190Y-2616238D02*
X-3297667Y-2635286D01*
X-3297667Y-2635286D02*
X-3297667Y-2692429D01*
X-3297667Y-2692429D02*
X-3307190Y-2711476D01*
X-3307190Y-2711476D02*
X-3316714Y-2721000D01*
X-3316714Y-2721000D02*
X-3335762Y-2730524D01*
X-3335762Y-2730524D02*
X-3373857Y-2730524D01*
X-3373857Y-2730524D02*
X-3392905Y-2721000D01*
X-3211952Y-2711476D02*
X-3202428Y-2721000D01*
X-3202428Y-2721000D02*
X-3211952Y-2730524D01*
X-3211952Y-2730524D02*
X-3221476Y-2721000D01*
X-3221476Y-2721000D02*
X-3211952Y-2711476D01*
X-3211952Y-2711476D02*
X-3211952Y-2730524D01*
X-3211952Y-2606714D02*
X-3202428Y-2616238D01*
X-3202428Y-2616238D02*
X-3211952Y-2625762D01*
X-3211952Y-2625762D02*
X-3221476Y-2616238D01*
X-3221476Y-2616238D02*
X-3211952Y-2606714D01*
X-3211952Y-2606714D02*
X-3211952Y-2625762D01*
D12*
X-4871000Y-3038000D02*
X-4831000Y-3078000D01*
X-4831000Y-3038000D02*
X-4871000Y-3078000D01*
D11*
X-4545286Y-2950524D02*
X-4526238Y-2950524D01*
X-4526238Y-2950524D02*
X-4507190Y-2960048D01*
X-4507190Y-2960048D02*
X-4497667Y-2969571D01*
X-4497667Y-2969571D02*
X-4488143Y-2988619D01*
X-4488143Y-2988619D02*
X-4478619Y-3026714D01*
X-4478619Y-3026714D02*
X-4478619Y-3074333D01*
X-4478619Y-3074333D02*
X-4488143Y-3112428D01*
X-4488143Y-3112428D02*
X-4497667Y-3131476D01*
X-4497667Y-3131476D02*
X-4507190Y-3141000D01*
X-4507190Y-3141000D02*
X-4526238Y-3150524D01*
X-4526238Y-3150524D02*
X-4545286Y-3150524D01*
X-4545286Y-3150524D02*
X-4564333Y-3141000D01*
X-4564333Y-3141000D02*
X-4573857Y-3131476D01*
X-4573857Y-3131476D02*
X-4583381Y-3112428D01*
X-4583381Y-3112428D02*
X-4592905Y-3074333D01*
X-4592905Y-3074333D02*
X-4592905Y-3026714D01*
X-4592905Y-3026714D02*
X-4583381Y-2988619D01*
X-4583381Y-2988619D02*
X-4573857Y-2969571D01*
X-4573857Y-2969571D02*
X-4564333Y-2960048D01*
X-4564333Y-2960048D02*
X-4545286Y-2950524D01*
X-4392905Y-3131476D02*
X-4383381Y-3141000D01*
X-4383381Y-3141000D02*
X-4392905Y-3150524D01*
X-4392905Y-3150524D02*
X-4402429Y-3141000D01*
X-4402429Y-3141000D02*
X-4392905Y-3131476D01*
X-4392905Y-3131476D02*
X-4392905Y-3150524D01*
X-4211952Y-3017190D02*
X-4211952Y-3150524D01*
X-4259571Y-2941000D02*
X-4307190Y-3083857D01*
X-4307190Y-3083857D02*
X-4183381Y-3083857D01*
X-4069095Y-2950524D02*
X-4050047Y-2950524D01*
X-4050047Y-2950524D02*
X-4031000Y-2960048D01*
X-4031000Y-2960048D02*
X-4021476Y-2969571D01*
X-4021476Y-2969571D02*
X-4011952Y-2988619D01*
X-4011952Y-2988619D02*
X-4002428Y-3026714D01*
X-4002428Y-3026714D02*
X-4002428Y-3074333D01*
X-4002428Y-3074333D02*
X-4011952Y-3112428D01*
X-4011952Y-3112428D02*
X-4021476Y-3131476D01*
X-4021476Y-3131476D02*
X-4031000Y-3141000D01*
X-4031000Y-3141000D02*
X-4050047Y-3150524D01*
X-4050047Y-3150524D02*
X-4069095Y-3150524D01*
X-4069095Y-3150524D02*
X-4088143Y-3141000D01*
X-4088143Y-3141000D02*
X-4097667Y-3131476D01*
X-4097667Y-3131476D02*
X-4107190Y-3112428D01*
X-4107190Y-3112428D02*
X-4116714Y-3074333D01*
X-4116714Y-3074333D02*
X-4116714Y-3026714D01*
X-4116714Y-3026714D02*
X-4107190Y-2988619D01*
X-4107190Y-2988619D02*
X-4097667Y-2969571D01*
X-4097667Y-2969571D02*
X-4088143Y-2960048D01*
X-4088143Y-2960048D02*
X-4069095Y-2950524D01*
X-3878619Y-2950524D02*
X-3859571Y-2950524D01*
X-3859571Y-2950524D02*
X-3840524Y-2960048D01*
X-3840524Y-2960048D02*
X-3831000Y-2969571D01*
X-3831000Y-2969571D02*
X-3821476Y-2988619D01*
X-3821476Y-2988619D02*
X-3811952Y-3026714D01*
X-3811952Y-3026714D02*
X-3811952Y-3074333D01*
X-3811952Y-3074333D02*
X-3821476Y-3112428D01*
X-3821476Y-3112428D02*
X-3831000Y-3131476D01*
X-3831000Y-3131476D02*
X-3840524Y-3141000D01*
X-3840524Y-3141000D02*
X-3859571Y-3150524D01*
X-3859571Y-3150524D02*
X-3878619Y-3150524D01*
X-3878619Y-3150524D02*
X-3897667Y-3141000D01*
X-3897667Y-3141000D02*
X-3907190Y-3131476D01*
X-3907190Y-3131476D02*
X-3916714Y-3112428D01*
X-3916714Y-3112428D02*
X-3926238Y-3074333D01*
X-3926238Y-3074333D02*
X-3926238Y-3026714D01*
X-3926238Y-3026714D02*
X-3916714Y-2988619D01*
X-3916714Y-2988619D02*
X-3907190Y-2969571D01*
X-3907190Y-2969571D02*
X-3897667Y-2960048D01*
X-3897667Y-2960048D02*
X-3878619Y-2950524D01*
X-3726238Y-3150524D02*
X-3726238Y-3017190D01*
X-3726238Y-3036238D02*
X-3716714Y-3026714D01*
X-3716714Y-3026714D02*
X-3697667Y-3017190D01*
X-3697667Y-3017190D02*
X-3669095Y-3017190D01*
X-3669095Y-3017190D02*
X-3650047Y-3026714D01*
X-3650047Y-3026714D02*
X-3640524Y-3045762D01*
X-3640524Y-3045762D02*
X-3640524Y-3150524D01*
X-3640524Y-3045762D02*
X-3631000Y-3026714D01*
X-3631000Y-3026714D02*
X-3611952Y-3017190D01*
X-3611952Y-3017190D02*
X-3583381Y-3017190D01*
X-3583381Y-3017190D02*
X-3564333Y-3026714D01*
X-3564333Y-3026714D02*
X-3554809Y-3045762D01*
X-3554809Y-3045762D02*
X-3554809Y-3150524D01*
X-3459571Y-3150524D02*
X-3459571Y-3017190D01*
X-3459571Y-3036238D02*
X-3450047Y-3026714D01*
X-3450047Y-3026714D02*
X-3431000Y-3017190D01*
X-3431000Y-3017190D02*
X-3402428Y-3017190D01*
X-3402428Y-3017190D02*
X-3383381Y-3026714D01*
X-3383381Y-3026714D02*
X-3373857Y-3045762D01*
X-3373857Y-3045762D02*
X-3373857Y-3150524D01*
X-3373857Y-3045762D02*
X-3364333Y-3026714D01*
X-3364333Y-3026714D02*
X-3345286Y-3017190D01*
X-3345286Y-3017190D02*
X-3316714Y-3017190D01*
X-3316714Y-3017190D02*
X-3297666Y-3026714D01*
X-3297666Y-3026714D02*
X-3288143Y-3045762D01*
X-3288143Y-3045762D02*
X-3288143Y-3150524D01*
X-2897666Y-2941000D02*
X-3069095Y-3198143D01*
X-2640524Y-2950524D02*
X-2621476Y-2950524D01*
X-2621476Y-2950524D02*
X-2602428Y-2960048D01*
X-2602428Y-2960048D02*
X-2592905Y-2969571D01*
X-2592905Y-2969571D02*
X-2583381Y-2988619D01*
X-2583381Y-2988619D02*
X-2573857Y-3026714D01*
X-2573857Y-3026714D02*
X-2573857Y-3074333D01*
X-2573857Y-3074333D02*
X-2583381Y-3112428D01*
X-2583381Y-3112428D02*
X-2592905Y-3131476D01*
X-2592905Y-3131476D02*
X-2602428Y-3141000D01*
X-2602428Y-3141000D02*
X-2621476Y-3150524D01*
X-2621476Y-3150524D02*
X-2640524Y-3150524D01*
X-2640524Y-3150524D02*
X-2659571Y-3141000D01*
X-2659571Y-3141000D02*
X-2669095Y-3131476D01*
X-2669095Y-3131476D02*
X-2678619Y-3112428D01*
X-2678619Y-3112428D02*
X-2688143Y-3074333D01*
X-2688143Y-3074333D02*
X-2688143Y-3026714D01*
X-2688143Y-3026714D02*
X-2678619Y-2988619D01*
X-2678619Y-2988619D02*
X-2669095Y-2969571D01*
X-2669095Y-2969571D02*
X-2659571Y-2960048D01*
X-2659571Y-2960048D02*
X-2640524Y-2950524D01*
X-2488143Y-3131476D02*
X-2478619Y-3141000D01*
X-2478619Y-3141000D02*
X-2488143Y-3150524D01*
X-2488143Y-3150524D02*
X-2497666Y-3141000D01*
X-2497666Y-3141000D02*
X-2488143Y-3131476D01*
X-2488143Y-3131476D02*
X-2488143Y-3150524D01*
X-2354809Y-2950524D02*
X-2335762Y-2950524D01*
X-2335762Y-2950524D02*
X-2316714Y-2960048D01*
X-2316714Y-2960048D02*
X-2307190Y-2969571D01*
X-2307190Y-2969571D02*
X-2297666Y-2988619D01*
X-2297666Y-2988619D02*
X-2288143Y-3026714D01*
X-2288143Y-3026714D02*
X-2288143Y-3074333D01*
X-2288143Y-3074333D02*
X-2297666Y-3112428D01*
X-2297666Y-3112428D02*
X-2307190Y-3131476D01*
X-2307190Y-3131476D02*
X-2316714Y-3141000D01*
X-2316714Y-3141000D02*
X-2335762Y-3150524D01*
X-2335762Y-3150524D02*
X-2354809Y-3150524D01*
X-2354809Y-3150524D02*
X-2373857Y-3141000D01*
X-2373857Y-3141000D02*
X-2383381Y-3131476D01*
X-2383381Y-3131476D02*
X-2392905Y-3112428D01*
X-2392905Y-3112428D02*
X-2402428Y-3074333D01*
X-2402428Y-3074333D02*
X-2402428Y-3026714D01*
X-2402428Y-3026714D02*
X-2392905Y-2988619D01*
X-2392905Y-2988619D02*
X-2383381Y-2969571D01*
X-2383381Y-2969571D02*
X-2373857Y-2960048D01*
X-2373857Y-2960048D02*
X-2354809Y-2950524D01*
X-2097666Y-3150524D02*
X-2211952Y-3150524D01*
X-2154809Y-3150524D02*
X-2154809Y-2950524D01*
X-2154809Y-2950524D02*
X-2173857Y-2979095D01*
X-2173857Y-2979095D02*
X-2192905Y-2998143D01*
X-2192905Y-2998143D02*
X-2211952Y-3007667D01*
X-1916714Y-2950524D02*
X-2011952Y-2950524D01*
X-2011952Y-2950524D02*
X-2021476Y-3045762D01*
X-2021476Y-3045762D02*
X-2011952Y-3036238D01*
X-2011952Y-3036238D02*
X-1992904Y-3026714D01*
X-1992904Y-3026714D02*
X-1945285Y-3026714D01*
X-1945285Y-3026714D02*
X-1926238Y-3036238D01*
X-1926238Y-3036238D02*
X-1916714Y-3045762D01*
X-1916714Y-3045762D02*
X-1907190Y-3064809D01*
X-1907190Y-3064809D02*
X-1907190Y-3112428D01*
X-1907190Y-3112428D02*
X-1916714Y-3131476D01*
X-1916714Y-3131476D02*
X-1926238Y-3141000D01*
X-1926238Y-3141000D02*
X-1945285Y-3150524D01*
X-1945285Y-3150524D02*
X-1992904Y-3150524D01*
X-1992904Y-3150524D02*
X-2011952Y-3141000D01*
X-2011952Y-3141000D02*
X-2021476Y-3131476D01*
X-1840523Y-2950524D02*
X-1707190Y-2950524D01*
X-1707190Y-2950524D02*
X-1792904Y-3150524D01*
X-1640523Y-2950524D02*
X-1640523Y-2988619D01*
X-1564333Y-2950524D02*
X-1564333Y-2988619D01*
X-1269095Y-3226714D02*
X-1278619Y-3217190D01*
X-1278619Y-3217190D02*
X-1297666Y-3188619D01*
X-1297666Y-3188619D02*
X-1307190Y-3169571D01*
X-1307190Y-3169571D02*
X-1316714Y-3141000D01*
X-1316714Y-3141000D02*
X-1326238Y-3093381D01*
X-1326238Y-3093381D02*
X-1326238Y-3055286D01*
X-1326238Y-3055286D02*
X-1316714Y-3007667D01*
X-1316714Y-3007667D02*
X-1307190Y-2979095D01*
X-1307190Y-2979095D02*
X-1297666Y-2960048D01*
X-1297666Y-2960048D02*
X-1278619Y-2931476D01*
X-1278619Y-2931476D02*
X-1269095Y-2921952D01*
X-1088143Y-3150524D02*
X-1202428Y-3150524D01*
X-1145285Y-3150524D02*
X-1145285Y-2950524D01*
X-1145285Y-2950524D02*
X-1164333Y-2979095D01*
X-1164333Y-2979095D02*
X-1183381Y-2998143D01*
X-1183381Y-2998143D02*
X-1202428Y-3007667D01*
X-1011952Y-2969571D02*
X-1002428Y-2960048D01*
X-1002428Y-2960048D02*
X-983381Y-2950524D01*
X-983381Y-2950524D02*
X-935761Y-2950524D01*
X-935761Y-2950524D02*
X-916714Y-2960048D01*
X-916714Y-2960048D02*
X-907190Y-2969571D01*
X-907190Y-2969571D02*
X-897666Y-2988619D01*
X-897666Y-2988619D02*
X-897666Y-3007667D01*
X-897666Y-3007667D02*
X-907190Y-3036238D01*
X-907190Y-3036238D02*
X-1021476Y-3150524D01*
X-1021476Y-3150524D02*
X-897666Y-3150524D01*
X-659571Y-3150524D02*
X-659571Y-2950524D01*
X-573857Y-3150524D02*
X-573857Y-3045762D01*
X-573857Y-3045762D02*
X-583381Y-3026714D01*
X-583381Y-3026714D02*
X-602428Y-3017190D01*
X-602428Y-3017190D02*
X-631000Y-3017190D01*
X-631000Y-3017190D02*
X-650047Y-3026714D01*
X-650047Y-3026714D02*
X-659571Y-3036238D01*
X-450047Y-3150524D02*
X-469095Y-3141000D01*
X-469095Y-3141000D02*
X-478619Y-3131476D01*
X-478619Y-3131476D02*
X-488142Y-3112428D01*
X-488142Y-3112428D02*
X-488142Y-3055286D01*
X-488142Y-3055286D02*
X-478619Y-3036238D01*
X-478619Y-3036238D02*
X-469095Y-3026714D01*
X-469095Y-3026714D02*
X-450047Y-3017190D01*
X-450047Y-3017190D02*
X-421476Y-3017190D01*
X-421476Y-3017190D02*
X-402428Y-3026714D01*
X-402428Y-3026714D02*
X-392904Y-3036238D01*
X-392904Y-3036238D02*
X-383380Y-3055286D01*
X-383380Y-3055286D02*
X-383380Y-3112428D01*
X-383380Y-3112428D02*
X-392904Y-3131476D01*
X-392904Y-3131476D02*
X-402428Y-3141000D01*
X-402428Y-3141000D02*
X-421476Y-3150524D01*
X-421476Y-3150524D02*
X-450047Y-3150524D01*
X-269095Y-3150524D02*
X-288142Y-3141000D01*
X-288142Y-3141000D02*
X-297666Y-3121952D01*
X-297666Y-3121952D02*
X-297666Y-2950524D01*
X-116714Y-3141000D02*
X-135761Y-3150524D01*
X-135761Y-3150524D02*
X-173857Y-3150524D01*
X-173857Y-3150524D02*
X-192904Y-3141000D01*
X-192904Y-3141000D02*
X-202428Y-3121952D01*
X-202428Y-3121952D02*
X-202428Y-3045762D01*
X-202428Y-3045762D02*
X-192904Y-3026714D01*
X-192904Y-3026714D02*
X-173857Y-3017190D01*
X-173857Y-3017190D02*
X-135761Y-3017190D01*
X-135761Y-3017190D02*
X-116714Y-3026714D01*
X-116714Y-3026714D02*
X-107190Y-3045762D01*
X-107190Y-3045762D02*
X-107190Y-3064809D01*
X-107190Y-3064809D02*
X-202428Y-3083857D01*
X-30999Y-3141000D02*
X-11952Y-3150524D01*
X-11952Y-3150524D02*
X26143Y-3150524D01*
X26143Y-3150524D02*
X45191Y-3141000D01*
X45191Y-3141000D02*
X54715Y-3121952D01*
X54715Y-3121952D02*
X54715Y-3112428D01*
X54715Y-3112428D02*
X45191Y-3093381D01*
X45191Y-3093381D02*
X26143Y-3083857D01*
X26143Y-3083857D02*
X-2428Y-3083857D01*
X-2428Y-3083857D02*
X-21476Y-3074333D01*
X-21476Y-3074333D02*
X-30999Y-3055286D01*
X-30999Y-3055286D02*
X-30999Y-3045762D01*
X-30999Y-3045762D02*
X-21476Y-3026714D01*
X-21476Y-3026714D02*
X-2428Y-3017190D01*
X-2428Y-3017190D02*
X26143Y-3017190D01*
X26143Y-3017190D02*
X45191Y-3026714D01*
X121381Y-3226714D02*
X130905Y-3217190D01*
X130905Y-3217190D02*
X149953Y-3188619D01*
X149953Y-3188619D02*
X159477Y-3169571D01*
X159477Y-3169571D02*
X169000Y-3141000D01*
X169000Y-3141000D02*
X178524Y-3093381D01*
X178524Y-3093381D02*
X178524Y-3055286D01*
X178524Y-3055286D02*
X169000Y-3007667D01*
X169000Y-3007667D02*
X159477Y-2979095D01*
X159477Y-2979095D02*
X149953Y-2960048D01*
X149953Y-2960048D02*
X130905Y-2931476D01*
X130905Y-2931476D02*
X121381Y-2921952D01*
D13*
X-4831000Y-3322000D02*
G75*
G03*
X-4831000Y-3322000I-38100J0D01*
G01*
D11*
X-4545286Y-3214524D02*
X-4526238Y-3214524D01*
X-4526238Y-3214524D02*
X-4507190Y-3224048D01*
X-4507190Y-3224048D02*
X-4497667Y-3233571D01*
X-4497667Y-3233571D02*
X-4488143Y-3252619D01*
X-4488143Y-3252619D02*
X-4478619Y-3290714D01*
X-4478619Y-3290714D02*
X-4478619Y-3338333D01*
X-4478619Y-3338333D02*
X-4488143Y-3376428D01*
X-4488143Y-3376428D02*
X-4497667Y-3395476D01*
X-4497667Y-3395476D02*
X-4507190Y-3405000D01*
X-4507190Y-3405000D02*
X-4526238Y-3414524D01*
X-4526238Y-3414524D02*
X-4545286Y-3414524D01*
X-4545286Y-3414524D02*
X-4564333Y-3405000D01*
X-4564333Y-3405000D02*
X-4573857Y-3395476D01*
X-4573857Y-3395476D02*
X-4583381Y-3376428D01*
X-4583381Y-3376428D02*
X-4592905Y-3338333D01*
X-4592905Y-3338333D02*
X-4592905Y-3290714D01*
X-4592905Y-3290714D02*
X-4583381Y-3252619D01*
X-4583381Y-3252619D02*
X-4573857Y-3233571D01*
X-4573857Y-3233571D02*
X-4564333Y-3224048D01*
X-4564333Y-3224048D02*
X-4545286Y-3214524D01*
X-4392905Y-3395476D02*
X-4383381Y-3405000D01*
X-4383381Y-3405000D02*
X-4392905Y-3414524D01*
X-4392905Y-3414524D02*
X-4402429Y-3405000D01*
X-4402429Y-3405000D02*
X-4392905Y-3395476D01*
X-4392905Y-3395476D02*
X-4392905Y-3414524D01*
X-4316714Y-3214524D02*
X-4183381Y-3214524D01*
X-4183381Y-3214524D02*
X-4269095Y-3414524D01*
X-4021476Y-3214524D02*
X-4059571Y-3214524D01*
X-4059571Y-3214524D02*
X-4078619Y-3224048D01*
X-4078619Y-3224048D02*
X-4088143Y-3233571D01*
X-4088143Y-3233571D02*
X-4107190Y-3262143D01*
X-4107190Y-3262143D02*
X-4116714Y-3300238D01*
X-4116714Y-3300238D02*
X-4116714Y-3376428D01*
X-4116714Y-3376428D02*
X-4107190Y-3395476D01*
X-4107190Y-3395476D02*
X-4097667Y-3405000D01*
X-4097667Y-3405000D02*
X-4078619Y-3414524D01*
X-4078619Y-3414524D02*
X-4040524Y-3414524D01*
X-4040524Y-3414524D02*
X-4021476Y-3405000D01*
X-4021476Y-3405000D02*
X-4011952Y-3395476D01*
X-4011952Y-3395476D02*
X-4002428Y-3376428D01*
X-4002428Y-3376428D02*
X-4002428Y-3328809D01*
X-4002428Y-3328809D02*
X-4011952Y-3309762D01*
X-4011952Y-3309762D02*
X-4021476Y-3300238D01*
X-4021476Y-3300238D02*
X-4040524Y-3290714D01*
X-4040524Y-3290714D02*
X-4078619Y-3290714D01*
X-4078619Y-3290714D02*
X-4097667Y-3300238D01*
X-4097667Y-3300238D02*
X-4107190Y-3309762D01*
X-4107190Y-3309762D02*
X-4116714Y-3328809D01*
X-3926238Y-3233571D02*
X-3916714Y-3224048D01*
X-3916714Y-3224048D02*
X-3897667Y-3214524D01*
X-3897667Y-3214524D02*
X-3850047Y-3214524D01*
X-3850047Y-3214524D02*
X-3831000Y-3224048D01*
X-3831000Y-3224048D02*
X-3821476Y-3233571D01*
X-3821476Y-3233571D02*
X-3811952Y-3252619D01*
X-3811952Y-3252619D02*
X-3811952Y-3271667D01*
X-3811952Y-3271667D02*
X-3821476Y-3300238D01*
X-3821476Y-3300238D02*
X-3935762Y-3414524D01*
X-3935762Y-3414524D02*
X-3811952Y-3414524D01*
X-3726238Y-3414524D02*
X-3726238Y-3281190D01*
X-3726238Y-3300238D02*
X-3716714Y-3290714D01*
X-3716714Y-3290714D02*
X-3697667Y-3281190D01*
X-3697667Y-3281190D02*
X-3669095Y-3281190D01*
X-3669095Y-3281190D02*
X-3650047Y-3290714D01*
X-3650047Y-3290714D02*
X-3640524Y-3309762D01*
X-3640524Y-3309762D02*
X-3640524Y-3414524D01*
X-3640524Y-3309762D02*
X-3631000Y-3290714D01*
X-3631000Y-3290714D02*
X-3611952Y-3281190D01*
X-3611952Y-3281190D02*
X-3583381Y-3281190D01*
X-3583381Y-3281190D02*
X-3564333Y-3290714D01*
X-3564333Y-3290714D02*
X-3554809Y-3309762D01*
X-3554809Y-3309762D02*
X-3554809Y-3414524D01*
X-3459571Y-3414524D02*
X-3459571Y-3281190D01*
X-3459571Y-3300238D02*
X-3450047Y-3290714D01*
X-3450047Y-3290714D02*
X-3431000Y-3281190D01*
X-3431000Y-3281190D02*
X-3402428Y-3281190D01*
X-3402428Y-3281190D02*
X-3383381Y-3290714D01*
X-3383381Y-3290714D02*
X-3373857Y-3309762D01*
X-3373857Y-3309762D02*
X-3373857Y-3414524D01*
X-3373857Y-3309762D02*
X-3364333Y-3290714D01*
X-3364333Y-3290714D02*
X-3345286Y-3281190D01*
X-3345286Y-3281190D02*
X-3316714Y-3281190D01*
X-3316714Y-3281190D02*
X-3297666Y-3290714D01*
X-3297666Y-3290714D02*
X-3288143Y-3309762D01*
X-3288143Y-3309762D02*
X-3288143Y-3414524D01*
X-2897666Y-3205000D02*
X-3069095Y-3462143D01*
X-2640524Y-3214524D02*
X-2621476Y-3214524D01*
X-2621476Y-3214524D02*
X-2602428Y-3224048D01*
X-2602428Y-3224048D02*
X-2592905Y-3233571D01*
X-2592905Y-3233571D02*
X-2583381Y-3252619D01*
X-2583381Y-3252619D02*
X-2573857Y-3290714D01*
X-2573857Y-3290714D02*
X-2573857Y-3338333D01*
X-2573857Y-3338333D02*
X-2583381Y-3376428D01*
X-2583381Y-3376428D02*
X-2592905Y-3395476D01*
X-2592905Y-3395476D02*
X-2602428Y-3405000D01*
X-2602428Y-3405000D02*
X-2621476Y-3414524D01*
X-2621476Y-3414524D02*
X-2640524Y-3414524D01*
X-2640524Y-3414524D02*
X-2659571Y-3405000D01*
X-2659571Y-3405000D02*
X-2669095Y-3395476D01*
X-2669095Y-3395476D02*
X-2678619Y-3376428D01*
X-2678619Y-3376428D02*
X-2688143Y-3338333D01*
X-2688143Y-3338333D02*
X-2688143Y-3290714D01*
X-2688143Y-3290714D02*
X-2678619Y-3252619D01*
X-2678619Y-3252619D02*
X-2669095Y-3233571D01*
X-2669095Y-3233571D02*
X-2659571Y-3224048D01*
X-2659571Y-3224048D02*
X-2640524Y-3214524D01*
X-2488143Y-3395476D02*
X-2478619Y-3405000D01*
X-2478619Y-3405000D02*
X-2488143Y-3414524D01*
X-2488143Y-3414524D02*
X-2497666Y-3405000D01*
X-2497666Y-3405000D02*
X-2488143Y-3395476D01*
X-2488143Y-3395476D02*
X-2488143Y-3414524D01*
X-2354809Y-3214524D02*
X-2335762Y-3214524D01*
X-2335762Y-3214524D02*
X-2316714Y-3224048D01*
X-2316714Y-3224048D02*
X-2307190Y-3233571D01*
X-2307190Y-3233571D02*
X-2297666Y-3252619D01*
X-2297666Y-3252619D02*
X-2288143Y-3290714D01*
X-2288143Y-3290714D02*
X-2288143Y-3338333D01*
X-2288143Y-3338333D02*
X-2297666Y-3376428D01*
X-2297666Y-3376428D02*
X-2307190Y-3395476D01*
X-2307190Y-3395476D02*
X-2316714Y-3405000D01*
X-2316714Y-3405000D02*
X-2335762Y-3414524D01*
X-2335762Y-3414524D02*
X-2354809Y-3414524D01*
X-2354809Y-3414524D02*
X-2373857Y-3405000D01*
X-2373857Y-3405000D02*
X-2383381Y-3395476D01*
X-2383381Y-3395476D02*
X-2392905Y-3376428D01*
X-2392905Y-3376428D02*
X-2402428Y-3338333D01*
X-2402428Y-3338333D02*
X-2402428Y-3290714D01*
X-2402428Y-3290714D02*
X-2392905Y-3252619D01*
X-2392905Y-3252619D02*
X-2383381Y-3233571D01*
X-2383381Y-3233571D02*
X-2373857Y-3224048D01*
X-2373857Y-3224048D02*
X-2354809Y-3214524D01*
X-2221476Y-3214524D02*
X-2097666Y-3214524D01*
X-2097666Y-3214524D02*
X-2164333Y-3290714D01*
X-2164333Y-3290714D02*
X-2135762Y-3290714D01*
X-2135762Y-3290714D02*
X-2116714Y-3300238D01*
X-2116714Y-3300238D02*
X-2107190Y-3309762D01*
X-2107190Y-3309762D02*
X-2097666Y-3328809D01*
X-2097666Y-3328809D02*
X-2097666Y-3376428D01*
X-2097666Y-3376428D02*
X-2107190Y-3395476D01*
X-2107190Y-3395476D02*
X-2116714Y-3405000D01*
X-2116714Y-3405000D02*
X-2135762Y-3414524D01*
X-2135762Y-3414524D02*
X-2192905Y-3414524D01*
X-2192905Y-3414524D02*
X-2211952Y-3405000D01*
X-2211952Y-3405000D02*
X-2221476Y-3395476D01*
X-1973857Y-3214524D02*
X-1954809Y-3214524D01*
X-1954809Y-3214524D02*
X-1935762Y-3224048D01*
X-1935762Y-3224048D02*
X-1926238Y-3233571D01*
X-1926238Y-3233571D02*
X-1916714Y-3252619D01*
X-1916714Y-3252619D02*
X-1907190Y-3290714D01*
X-1907190Y-3290714D02*
X-1907190Y-3338333D01*
X-1907190Y-3338333D02*
X-1916714Y-3376428D01*
X-1916714Y-3376428D02*
X-1926238Y-3395476D01*
X-1926238Y-3395476D02*
X-1935762Y-3405000D01*
X-1935762Y-3405000D02*
X-1954809Y-3414524D01*
X-1954809Y-3414524D02*
X-1973857Y-3414524D01*
X-1973857Y-3414524D02*
X-1992904Y-3405000D01*
X-1992904Y-3405000D02*
X-2002428Y-3395476D01*
X-2002428Y-3395476D02*
X-2011952Y-3376428D01*
X-2011952Y-3376428D02*
X-2021476Y-3338333D01*
X-2021476Y-3338333D02*
X-2021476Y-3290714D01*
X-2021476Y-3290714D02*
X-2011952Y-3252619D01*
X-2011952Y-3252619D02*
X-2002428Y-3233571D01*
X-2002428Y-3233571D02*
X-1992904Y-3224048D01*
X-1992904Y-3224048D02*
X-1973857Y-3214524D01*
X-1783381Y-3214524D02*
X-1764333Y-3214524D01*
X-1764333Y-3214524D02*
X-1745285Y-3224048D01*
X-1745285Y-3224048D02*
X-1735762Y-3233571D01*
X-1735762Y-3233571D02*
X-1726238Y-3252619D01*
X-1726238Y-3252619D02*
X-1716714Y-3290714D01*
X-1716714Y-3290714D02*
X-1716714Y-3338333D01*
X-1716714Y-3338333D02*
X-1726238Y-3376428D01*
X-1726238Y-3376428D02*
X-1735762Y-3395476D01*
X-1735762Y-3395476D02*
X-1745285Y-3405000D01*
X-1745285Y-3405000D02*
X-1764333Y-3414524D01*
X-1764333Y-3414524D02*
X-1783381Y-3414524D01*
X-1783381Y-3414524D02*
X-1802428Y-3405000D01*
X-1802428Y-3405000D02*
X-1811952Y-3395476D01*
X-1811952Y-3395476D02*
X-1821476Y-3376428D01*
X-1821476Y-3376428D02*
X-1831000Y-3338333D01*
X-1831000Y-3338333D02*
X-1831000Y-3290714D01*
X-1831000Y-3290714D02*
X-1821476Y-3252619D01*
X-1821476Y-3252619D02*
X-1811952Y-3233571D01*
X-1811952Y-3233571D02*
X-1802428Y-3224048D01*
X-1802428Y-3224048D02*
X-1783381Y-3214524D01*
X-1640523Y-3214524D02*
X-1640523Y-3252619D01*
X-1564333Y-3214524D02*
X-1564333Y-3252619D01*
X-1269095Y-3490714D02*
X-1278619Y-3481190D01*
X-1278619Y-3481190D02*
X-1297666Y-3452619D01*
X-1297666Y-3452619D02*
X-1307190Y-3433571D01*
X-1307190Y-3433571D02*
X-1316714Y-3405000D01*
X-1316714Y-3405000D02*
X-1326238Y-3357381D01*
X-1326238Y-3357381D02*
X-1326238Y-3319286D01*
X-1326238Y-3319286D02*
X-1316714Y-3271667D01*
X-1316714Y-3271667D02*
X-1307190Y-3243095D01*
X-1307190Y-3243095D02*
X-1297666Y-3224048D01*
X-1297666Y-3224048D02*
X-1278619Y-3195476D01*
X-1278619Y-3195476D02*
X-1269095Y-3185952D01*
X-1202428Y-3233571D02*
X-1192904Y-3224048D01*
X-1192904Y-3224048D02*
X-1173857Y-3214524D01*
X-1173857Y-3214524D02*
X-1126238Y-3214524D01*
X-1126238Y-3214524D02*
X-1107190Y-3224048D01*
X-1107190Y-3224048D02*
X-1097666Y-3233571D01*
X-1097666Y-3233571D02*
X-1088143Y-3252619D01*
X-1088143Y-3252619D02*
X-1088143Y-3271667D01*
X-1088143Y-3271667D02*
X-1097666Y-3300238D01*
X-1097666Y-3300238D02*
X-1211952Y-3414524D01*
X-1211952Y-3414524D02*
X-1088143Y-3414524D01*
X-916714Y-3281190D02*
X-916714Y-3414524D01*
X-964333Y-3205000D02*
X-1011952Y-3347857D01*
X-1011952Y-3347857D02*
X-888142Y-3347857D01*
X-659571Y-3414524D02*
X-659571Y-3214524D01*
X-573857Y-3414524D02*
X-573857Y-3309762D01*
X-573857Y-3309762D02*
X-583381Y-3290714D01*
X-583381Y-3290714D02*
X-602428Y-3281190D01*
X-602428Y-3281190D02*
X-631000Y-3281190D01*
X-631000Y-3281190D02*
X-650047Y-3290714D01*
X-650047Y-3290714D02*
X-659571Y-3300238D01*
X-450047Y-3414524D02*
X-469095Y-3405000D01*
X-469095Y-3405000D02*
X-478619Y-3395476D01*
X-478619Y-3395476D02*
X-488142Y-3376428D01*
X-488142Y-3376428D02*
X-488142Y-3319286D01*
X-488142Y-3319286D02*
X-478619Y-3300238D01*
X-478619Y-3300238D02*
X-469095Y-3290714D01*
X-469095Y-3290714D02*
X-450047Y-3281190D01*
X-450047Y-3281190D02*
X-421476Y-3281190D01*
X-421476Y-3281190D02*
X-402428Y-3290714D01*
X-402428Y-3290714D02*
X-392904Y-3300238D01*
X-392904Y-3300238D02*
X-383380Y-3319286D01*
X-383380Y-3319286D02*
X-383380Y-3376428D01*
X-383380Y-3376428D02*
X-392904Y-3395476D01*
X-392904Y-3395476D02*
X-402428Y-3405000D01*
X-402428Y-3405000D02*
X-421476Y-3414524D01*
X-421476Y-3414524D02*
X-450047Y-3414524D01*
X-269095Y-3414524D02*
X-288142Y-3405000D01*
X-288142Y-3405000D02*
X-297666Y-3385952D01*
X-297666Y-3385952D02*
X-297666Y-3214524D01*
X-116714Y-3405000D02*
X-135761Y-3414524D01*
X-135761Y-3414524D02*
X-173857Y-3414524D01*
X-173857Y-3414524D02*
X-192904Y-3405000D01*
X-192904Y-3405000D02*
X-202428Y-3385952D01*
X-202428Y-3385952D02*
X-202428Y-3309762D01*
X-202428Y-3309762D02*
X-192904Y-3290714D01*
X-192904Y-3290714D02*
X-173857Y-3281190D01*
X-173857Y-3281190D02*
X-135761Y-3281190D01*
X-135761Y-3281190D02*
X-116714Y-3290714D01*
X-116714Y-3290714D02*
X-107190Y-3309762D01*
X-107190Y-3309762D02*
X-107190Y-3328809D01*
X-107190Y-3328809D02*
X-202428Y-3347857D01*
X-30999Y-3405000D02*
X-11952Y-3414524D01*
X-11952Y-3414524D02*
X26143Y-3414524D01*
X26143Y-3414524D02*
X45191Y-3405000D01*
X45191Y-3405000D02*
X54715Y-3385952D01*
X54715Y-3385952D02*
X54715Y-3376428D01*
X54715Y-3376428D02*
X45191Y-3357381D01*
X45191Y-3357381D02*
X26143Y-3347857D01*
X26143Y-3347857D02*
X-2428Y-3347857D01*
X-2428Y-3347857D02*
X-21476Y-3338333D01*
X-21476Y-3338333D02*
X-30999Y-3319286D01*
X-30999Y-3319286D02*
X-30999Y-3309762D01*
X-30999Y-3309762D02*
X-21476Y-3290714D01*
X-21476Y-3290714D02*
X-2428Y-3281190D01*
X-2428Y-3281190D02*
X26143Y-3281190D01*
X26143Y-3281190D02*
X45191Y-3290714D01*
X121381Y-3490714D02*
X130905Y-3481190D01*
X130905Y-3481190D02*
X149953Y-3452619D01*
X149953Y-3452619D02*
X159477Y-3433571D01*
X159477Y-3433571D02*
X169000Y-3405000D01*
X169000Y-3405000D02*
X178524Y-3357381D01*
X178524Y-3357381D02*
X178524Y-3319286D01*
X178524Y-3319286D02*
X169000Y-3271667D01*
X169000Y-3271667D02*
X159477Y-3243095D01*
X159477Y-3243095D02*
X149953Y-3224048D01*
X149953Y-3224048D02*
X130905Y-3195476D01*
X130905Y-3195476D02*
X121381Y-3185952D01*
D14*
X-4871000Y-3546000D02*
X-4871000Y-3626000D01*
X-4911000Y-3586000D02*
X-4831000Y-3586000D01*
D11*
X-4545286Y-3478524D02*
X-4526238Y-3478524D01*
X-4526238Y-3478524D02*
X-4507190Y-3488048D01*
X-4507190Y-3488048D02*
X-4497667Y-3497571D01*
X-4497667Y-3497571D02*
X-4488143Y-3516619D01*
X-4488143Y-3516619D02*
X-4478619Y-3554714D01*
X-4478619Y-3554714D02*
X-4478619Y-3602333D01*
X-4478619Y-3602333D02*
X-4488143Y-3640428D01*
X-4488143Y-3640428D02*
X-4497667Y-3659476D01*
X-4497667Y-3659476D02*
X-4507190Y-3669000D01*
X-4507190Y-3669000D02*
X-4526238Y-3678524D01*
X-4526238Y-3678524D02*
X-4545286Y-3678524D01*
X-4545286Y-3678524D02*
X-4564333Y-3669000D01*
X-4564333Y-3669000D02*
X-4573857Y-3659476D01*
X-4573857Y-3659476D02*
X-4583381Y-3640428D01*
X-4583381Y-3640428D02*
X-4592905Y-3602333D01*
X-4592905Y-3602333D02*
X-4592905Y-3554714D01*
X-4592905Y-3554714D02*
X-4583381Y-3516619D01*
X-4583381Y-3516619D02*
X-4573857Y-3497571D01*
X-4573857Y-3497571D02*
X-4564333Y-3488048D01*
X-4564333Y-3488048D02*
X-4545286Y-3478524D01*
X-4392905Y-3659476D02*
X-4383381Y-3669000D01*
X-4383381Y-3669000D02*
X-4392905Y-3678524D01*
X-4392905Y-3678524D02*
X-4402429Y-3669000D01*
X-4402429Y-3669000D02*
X-4392905Y-3659476D01*
X-4392905Y-3659476D02*
X-4392905Y-3678524D01*
X-4269095Y-3564238D02*
X-4288143Y-3554714D01*
X-4288143Y-3554714D02*
X-4297667Y-3545190D01*
X-4297667Y-3545190D02*
X-4307190Y-3526143D01*
X-4307190Y-3526143D02*
X-4307190Y-3516619D01*
X-4307190Y-3516619D02*
X-4297667Y-3497571D01*
X-4297667Y-3497571D02*
X-4288143Y-3488048D01*
X-4288143Y-3488048D02*
X-4269095Y-3478524D01*
X-4269095Y-3478524D02*
X-4231000Y-3478524D01*
X-4231000Y-3478524D02*
X-4211952Y-3488048D01*
X-4211952Y-3488048D02*
X-4202429Y-3497571D01*
X-4202429Y-3497571D02*
X-4192905Y-3516619D01*
X-4192905Y-3516619D02*
X-4192905Y-3526143D01*
X-4192905Y-3526143D02*
X-4202429Y-3545190D01*
X-4202429Y-3545190D02*
X-4211952Y-3554714D01*
X-4211952Y-3554714D02*
X-4231000Y-3564238D01*
X-4231000Y-3564238D02*
X-4269095Y-3564238D01*
X-4269095Y-3564238D02*
X-4288143Y-3573762D01*
X-4288143Y-3573762D02*
X-4297667Y-3583286D01*
X-4297667Y-3583286D02*
X-4307190Y-3602333D01*
X-4307190Y-3602333D02*
X-4307190Y-3640428D01*
X-4307190Y-3640428D02*
X-4297667Y-3659476D01*
X-4297667Y-3659476D02*
X-4288143Y-3669000D01*
X-4288143Y-3669000D02*
X-4269095Y-3678524D01*
X-4269095Y-3678524D02*
X-4231000Y-3678524D01*
X-4231000Y-3678524D02*
X-4211952Y-3669000D01*
X-4211952Y-3669000D02*
X-4202429Y-3659476D01*
X-4202429Y-3659476D02*
X-4192905Y-3640428D01*
X-4192905Y-3640428D02*
X-4192905Y-3602333D01*
X-4192905Y-3602333D02*
X-4202429Y-3583286D01*
X-4202429Y-3583286D02*
X-4211952Y-3573762D01*
X-4211952Y-3573762D02*
X-4231000Y-3564238D01*
X-4069095Y-3478524D02*
X-4050047Y-3478524D01*
X-4050047Y-3478524D02*
X-4031000Y-3488048D01*
X-4031000Y-3488048D02*
X-4021476Y-3497571D01*
X-4021476Y-3497571D02*
X-4011952Y-3516619D01*
X-4011952Y-3516619D02*
X-4002428Y-3554714D01*
X-4002428Y-3554714D02*
X-4002428Y-3602333D01*
X-4002428Y-3602333D02*
X-4011952Y-3640428D01*
X-4011952Y-3640428D02*
X-4021476Y-3659476D01*
X-4021476Y-3659476D02*
X-4031000Y-3669000D01*
X-4031000Y-3669000D02*
X-4050047Y-3678524D01*
X-4050047Y-3678524D02*
X-4069095Y-3678524D01*
X-4069095Y-3678524D02*
X-4088143Y-3669000D01*
X-4088143Y-3669000D02*
X-4097667Y-3659476D01*
X-4097667Y-3659476D02*
X-4107190Y-3640428D01*
X-4107190Y-3640428D02*
X-4116714Y-3602333D01*
X-4116714Y-3602333D02*
X-4116714Y-3554714D01*
X-4116714Y-3554714D02*
X-4107190Y-3516619D01*
X-4107190Y-3516619D02*
X-4097667Y-3497571D01*
X-4097667Y-3497571D02*
X-4088143Y-3488048D01*
X-4088143Y-3488048D02*
X-4069095Y-3478524D01*
X-3878619Y-3478524D02*
X-3859571Y-3478524D01*
X-3859571Y-3478524D02*
X-3840524Y-3488048D01*
X-3840524Y-3488048D02*
X-3831000Y-3497571D01*
X-3831000Y-3497571D02*
X-3821476Y-3516619D01*
X-3821476Y-3516619D02*
X-3811952Y-3554714D01*
X-3811952Y-3554714D02*
X-3811952Y-3602333D01*
X-3811952Y-3602333D02*
X-3821476Y-3640428D01*
X-3821476Y-3640428D02*
X-3831000Y-3659476D01*
X-3831000Y-3659476D02*
X-3840524Y-3669000D01*
X-3840524Y-3669000D02*
X-3859571Y-3678524D01*
X-3859571Y-3678524D02*
X-3878619Y-3678524D01*
X-3878619Y-3678524D02*
X-3897667Y-3669000D01*
X-3897667Y-3669000D02*
X-3907190Y-3659476D01*
X-3907190Y-3659476D02*
X-3916714Y-3640428D01*
X-3916714Y-3640428D02*
X-3926238Y-3602333D01*
X-3926238Y-3602333D02*
X-3926238Y-3554714D01*
X-3926238Y-3554714D02*
X-3916714Y-3516619D01*
X-3916714Y-3516619D02*
X-3907190Y-3497571D01*
X-3907190Y-3497571D02*
X-3897667Y-3488048D01*
X-3897667Y-3488048D02*
X-3878619Y-3478524D01*
X-3726238Y-3678524D02*
X-3726238Y-3545190D01*
X-3726238Y-3564238D02*
X-3716714Y-3554714D01*
X-3716714Y-3554714D02*
X-3697667Y-3545190D01*
X-3697667Y-3545190D02*
X-3669095Y-3545190D01*
X-3669095Y-3545190D02*
X-3650047Y-3554714D01*
X-3650047Y-3554714D02*
X-3640524Y-3573762D01*
X-3640524Y-3573762D02*
X-3640524Y-3678524D01*
X-3640524Y-3573762D02*
X-3631000Y-3554714D01*
X-3631000Y-3554714D02*
X-3611952Y-3545190D01*
X-3611952Y-3545190D02*
X-3583381Y-3545190D01*
X-3583381Y-3545190D02*
X-3564333Y-3554714D01*
X-3564333Y-3554714D02*
X-3554809Y-3573762D01*
X-3554809Y-3573762D02*
X-3554809Y-3678524D01*
X-3459571Y-3678524D02*
X-3459571Y-3545190D01*
X-3459571Y-3564238D02*
X-3450047Y-3554714D01*
X-3450047Y-3554714D02*
X-3431000Y-3545190D01*
X-3431000Y-3545190D02*
X-3402428Y-3545190D01*
X-3402428Y-3545190D02*
X-3383381Y-3554714D01*
X-3383381Y-3554714D02*
X-3373857Y-3573762D01*
X-3373857Y-3573762D02*
X-3373857Y-3678524D01*
X-3373857Y-3573762D02*
X-3364333Y-3554714D01*
X-3364333Y-3554714D02*
X-3345286Y-3545190D01*
X-3345286Y-3545190D02*
X-3316714Y-3545190D01*
X-3316714Y-3545190D02*
X-3297666Y-3554714D01*
X-3297666Y-3554714D02*
X-3288143Y-3573762D01*
X-3288143Y-3573762D02*
X-3288143Y-3678524D01*
X-2897666Y-3469000D02*
X-3069095Y-3726143D01*
X-2640524Y-3478524D02*
X-2621476Y-3478524D01*
X-2621476Y-3478524D02*
X-2602428Y-3488048D01*
X-2602428Y-3488048D02*
X-2592905Y-3497571D01*
X-2592905Y-3497571D02*
X-2583381Y-3516619D01*
X-2583381Y-3516619D02*
X-2573857Y-3554714D01*
X-2573857Y-3554714D02*
X-2573857Y-3602333D01*
X-2573857Y-3602333D02*
X-2583381Y-3640428D01*
X-2583381Y-3640428D02*
X-2592905Y-3659476D01*
X-2592905Y-3659476D02*
X-2602428Y-3669000D01*
X-2602428Y-3669000D02*
X-2621476Y-3678524D01*
X-2621476Y-3678524D02*
X-2640524Y-3678524D01*
X-2640524Y-3678524D02*
X-2659571Y-3669000D01*
X-2659571Y-3669000D02*
X-2669095Y-3659476D01*
X-2669095Y-3659476D02*
X-2678619Y-3640428D01*
X-2678619Y-3640428D02*
X-2688143Y-3602333D01*
X-2688143Y-3602333D02*
X-2688143Y-3554714D01*
X-2688143Y-3554714D02*
X-2678619Y-3516619D01*
X-2678619Y-3516619D02*
X-2669095Y-3497571D01*
X-2669095Y-3497571D02*
X-2659571Y-3488048D01*
X-2659571Y-3488048D02*
X-2640524Y-3478524D01*
X-2488143Y-3659476D02*
X-2478619Y-3669000D01*
X-2478619Y-3669000D02*
X-2488143Y-3678524D01*
X-2488143Y-3678524D02*
X-2497666Y-3669000D01*
X-2497666Y-3669000D02*
X-2488143Y-3659476D01*
X-2488143Y-3659476D02*
X-2488143Y-3678524D01*
X-2354809Y-3478524D02*
X-2335762Y-3478524D01*
X-2335762Y-3478524D02*
X-2316714Y-3488048D01*
X-2316714Y-3488048D02*
X-2307190Y-3497571D01*
X-2307190Y-3497571D02*
X-2297666Y-3516619D01*
X-2297666Y-3516619D02*
X-2288143Y-3554714D01*
X-2288143Y-3554714D02*
X-2288143Y-3602333D01*
X-2288143Y-3602333D02*
X-2297666Y-3640428D01*
X-2297666Y-3640428D02*
X-2307190Y-3659476D01*
X-2307190Y-3659476D02*
X-2316714Y-3669000D01*
X-2316714Y-3669000D02*
X-2335762Y-3678524D01*
X-2335762Y-3678524D02*
X-2354809Y-3678524D01*
X-2354809Y-3678524D02*
X-2373857Y-3669000D01*
X-2373857Y-3669000D02*
X-2383381Y-3659476D01*
X-2383381Y-3659476D02*
X-2392905Y-3640428D01*
X-2392905Y-3640428D02*
X-2402428Y-3602333D01*
X-2402428Y-3602333D02*
X-2402428Y-3554714D01*
X-2402428Y-3554714D02*
X-2392905Y-3516619D01*
X-2392905Y-3516619D02*
X-2383381Y-3497571D01*
X-2383381Y-3497571D02*
X-2373857Y-3488048D01*
X-2373857Y-3488048D02*
X-2354809Y-3478524D01*
X-2221476Y-3478524D02*
X-2097666Y-3478524D01*
X-2097666Y-3478524D02*
X-2164333Y-3554714D01*
X-2164333Y-3554714D02*
X-2135762Y-3554714D01*
X-2135762Y-3554714D02*
X-2116714Y-3564238D01*
X-2116714Y-3564238D02*
X-2107190Y-3573762D01*
X-2107190Y-3573762D02*
X-2097666Y-3592809D01*
X-2097666Y-3592809D02*
X-2097666Y-3640428D01*
X-2097666Y-3640428D02*
X-2107190Y-3659476D01*
X-2107190Y-3659476D02*
X-2116714Y-3669000D01*
X-2116714Y-3669000D02*
X-2135762Y-3678524D01*
X-2135762Y-3678524D02*
X-2192905Y-3678524D01*
X-2192905Y-3678524D02*
X-2211952Y-3669000D01*
X-2211952Y-3669000D02*
X-2221476Y-3659476D01*
X-1907190Y-3678524D02*
X-2021476Y-3678524D01*
X-1964333Y-3678524D02*
X-1964333Y-3478524D01*
X-1964333Y-3478524D02*
X-1983381Y-3507095D01*
X-1983381Y-3507095D02*
X-2002428Y-3526143D01*
X-2002428Y-3526143D02*
X-2021476Y-3535667D01*
X-1726238Y-3478524D02*
X-1821476Y-3478524D01*
X-1821476Y-3478524D02*
X-1831000Y-3573762D01*
X-1831000Y-3573762D02*
X-1821476Y-3564238D01*
X-1821476Y-3564238D02*
X-1802428Y-3554714D01*
X-1802428Y-3554714D02*
X-1754809Y-3554714D01*
X-1754809Y-3554714D02*
X-1735762Y-3564238D01*
X-1735762Y-3564238D02*
X-1726238Y-3573762D01*
X-1726238Y-3573762D02*
X-1716714Y-3592809D01*
X-1716714Y-3592809D02*
X-1716714Y-3640428D01*
X-1716714Y-3640428D02*
X-1726238Y-3659476D01*
X-1726238Y-3659476D02*
X-1735762Y-3669000D01*
X-1735762Y-3669000D02*
X-1754809Y-3678524D01*
X-1754809Y-3678524D02*
X-1802428Y-3678524D01*
X-1802428Y-3678524D02*
X-1821476Y-3669000D01*
X-1821476Y-3669000D02*
X-1831000Y-3659476D01*
X-1640523Y-3478524D02*
X-1640523Y-3516619D01*
X-1564333Y-3478524D02*
X-1564333Y-3516619D01*
X-1269095Y-3754714D02*
X-1278619Y-3745190D01*
X-1278619Y-3745190D02*
X-1297666Y-3716619D01*
X-1297666Y-3716619D02*
X-1307190Y-3697571D01*
X-1307190Y-3697571D02*
X-1316714Y-3669000D01*
X-1316714Y-3669000D02*
X-1326238Y-3621381D01*
X-1326238Y-3621381D02*
X-1326238Y-3583286D01*
X-1326238Y-3583286D02*
X-1316714Y-3535667D01*
X-1316714Y-3535667D02*
X-1307190Y-3507095D01*
X-1307190Y-3507095D02*
X-1297666Y-3488048D01*
X-1297666Y-3488048D02*
X-1278619Y-3459476D01*
X-1278619Y-3459476D02*
X-1269095Y-3449952D01*
X-1202428Y-3497571D02*
X-1192904Y-3488048D01*
X-1192904Y-3488048D02*
X-1173857Y-3478524D01*
X-1173857Y-3478524D02*
X-1126238Y-3478524D01*
X-1126238Y-3478524D02*
X-1107190Y-3488048D01*
X-1107190Y-3488048D02*
X-1097666Y-3497571D01*
X-1097666Y-3497571D02*
X-1088143Y-3516619D01*
X-1088143Y-3516619D02*
X-1088143Y-3535667D01*
X-1088143Y-3535667D02*
X-1097666Y-3564238D01*
X-1097666Y-3564238D02*
X-1211952Y-3678524D01*
X-1211952Y-3678524D02*
X-1088143Y-3678524D01*
X-850047Y-3678524D02*
X-850047Y-3478524D01*
X-764333Y-3678524D02*
X-764333Y-3573762D01*
X-764333Y-3573762D02*
X-773857Y-3554714D01*
X-773857Y-3554714D02*
X-792904Y-3545190D01*
X-792904Y-3545190D02*
X-821476Y-3545190D01*
X-821476Y-3545190D02*
X-840523Y-3554714D01*
X-840523Y-3554714D02*
X-850047Y-3564238D01*
X-640523Y-3678524D02*
X-659571Y-3669000D01*
X-659571Y-3669000D02*
X-669095Y-3659476D01*
X-669095Y-3659476D02*
X-678619Y-3640428D01*
X-678619Y-3640428D02*
X-678619Y-3583286D01*
X-678619Y-3583286D02*
X-669095Y-3564238D01*
X-669095Y-3564238D02*
X-659571Y-3554714D01*
X-659571Y-3554714D02*
X-640523Y-3545190D01*
X-640523Y-3545190D02*
X-611952Y-3545190D01*
X-611952Y-3545190D02*
X-592904Y-3554714D01*
X-592904Y-3554714D02*
X-583381Y-3564238D01*
X-583381Y-3564238D02*
X-573857Y-3583286D01*
X-573857Y-3583286D02*
X-573857Y-3640428D01*
X-573857Y-3640428D02*
X-583381Y-3659476D01*
X-583381Y-3659476D02*
X-592904Y-3669000D01*
X-592904Y-3669000D02*
X-611952Y-3678524D01*
X-611952Y-3678524D02*
X-640523Y-3678524D01*
X-459571Y-3678524D02*
X-478619Y-3669000D01*
X-478619Y-3669000D02*
X-488142Y-3649952D01*
X-488142Y-3649952D02*
X-488142Y-3478524D01*
X-307190Y-3669000D02*
X-326238Y-3678524D01*
X-326238Y-3678524D02*
X-364333Y-3678524D01*
X-364333Y-3678524D02*
X-383380Y-3669000D01*
X-383380Y-3669000D02*
X-392904Y-3649952D01*
X-392904Y-3649952D02*
X-392904Y-3573762D01*
X-392904Y-3573762D02*
X-383380Y-3554714D01*
X-383380Y-3554714D02*
X-364333Y-3545190D01*
X-364333Y-3545190D02*
X-326238Y-3545190D01*
X-326238Y-3545190D02*
X-307190Y-3554714D01*
X-307190Y-3554714D02*
X-297666Y-3573762D01*
X-297666Y-3573762D02*
X-297666Y-3592809D01*
X-297666Y-3592809D02*
X-392904Y-3611857D01*
X-221476Y-3669000D02*
X-202428Y-3678524D01*
X-202428Y-3678524D02*
X-164333Y-3678524D01*
X-164333Y-3678524D02*
X-145285Y-3669000D01*
X-145285Y-3669000D02*
X-135761Y-3649952D01*
X-135761Y-3649952D02*
X-135761Y-3640428D01*
X-135761Y-3640428D02*
X-145285Y-3621381D01*
X-145285Y-3621381D02*
X-164333Y-3611857D01*
X-164333Y-3611857D02*
X-192904Y-3611857D01*
X-192904Y-3611857D02*
X-211952Y-3602333D01*
X-211952Y-3602333D02*
X-221476Y-3583286D01*
X-221476Y-3583286D02*
X-221476Y-3573762D01*
X-221476Y-3573762D02*
X-211952Y-3554714D01*
X-211952Y-3554714D02*
X-192904Y-3545190D01*
X-192904Y-3545190D02*
X-164333Y-3545190D01*
X-164333Y-3545190D02*
X-145285Y-3554714D01*
X-69095Y-3754714D02*
X-59571Y-3745190D01*
X-59571Y-3745190D02*
X-40523Y-3716619D01*
X-40523Y-3716619D02*
X-30999Y-3697571D01*
X-30999Y-3697571D02*
X-21476Y-3669000D01*
X-21476Y-3669000D02*
X-11952Y-3621381D01*
X-11952Y-3621381D02*
X-11952Y-3583286D01*
X-11952Y-3583286D02*
X-21476Y-3535667D01*
X-21476Y-3535667D02*
X-30999Y-3507095D01*
X-30999Y-3507095D02*
X-40523Y-3488048D01*
X-40523Y-3488048D02*
X-59571Y-3459476D01*
X-59571Y-3459476D02*
X-69095Y-3449952D01*
D10*
X-4845644Y-3885356D02*
X-4845644Y-3814644D01*
X-4916356Y-3814644D01*
X-4916356Y-3885356D01*
X-4845644Y-3885356D01*
D11*
X-4478619Y-3942524D02*
X-4592905Y-3942524D01*
X-4535762Y-3942524D02*
X-4535762Y-3742524D01*
X-4535762Y-3742524D02*
X-4554810Y-3771095D01*
X-4554810Y-3771095D02*
X-4573857Y-3790143D01*
X-4573857Y-3790143D02*
X-4592905Y-3799667D01*
X-4392905Y-3923476D02*
X-4383381Y-3933000D01*
X-4383381Y-3933000D02*
X-4392905Y-3942524D01*
X-4392905Y-3942524D02*
X-4402429Y-3933000D01*
X-4402429Y-3933000D02*
X-4392905Y-3923476D01*
X-4392905Y-3923476D02*
X-4392905Y-3942524D01*
X-4259571Y-3742524D02*
X-4240524Y-3742524D01*
X-4240524Y-3742524D02*
X-4221476Y-3752048D01*
X-4221476Y-3752048D02*
X-4211952Y-3761571D01*
X-4211952Y-3761571D02*
X-4202429Y-3780619D01*
X-4202429Y-3780619D02*
X-4192905Y-3818714D01*
X-4192905Y-3818714D02*
X-4192905Y-3866333D01*
X-4192905Y-3866333D02*
X-4202429Y-3904428D01*
X-4202429Y-3904428D02*
X-4211952Y-3923476D01*
X-4211952Y-3923476D02*
X-4221476Y-3933000D01*
X-4221476Y-3933000D02*
X-4240524Y-3942524D01*
X-4240524Y-3942524D02*
X-4259571Y-3942524D01*
X-4259571Y-3942524D02*
X-4278619Y-3933000D01*
X-4278619Y-3933000D02*
X-4288143Y-3923476D01*
X-4288143Y-3923476D02*
X-4297667Y-3904428D01*
X-4297667Y-3904428D02*
X-4307190Y-3866333D01*
X-4307190Y-3866333D02*
X-4307190Y-3818714D01*
X-4307190Y-3818714D02*
X-4297667Y-3780619D01*
X-4297667Y-3780619D02*
X-4288143Y-3761571D01*
X-4288143Y-3761571D02*
X-4278619Y-3752048D01*
X-4278619Y-3752048D02*
X-4259571Y-3742524D01*
X-4069095Y-3742524D02*
X-4050047Y-3742524D01*
X-4050047Y-3742524D02*
X-4031000Y-3752048D01*
X-4031000Y-3752048D02*
X-4021476Y-3761571D01*
X-4021476Y-3761571D02*
X-4011952Y-3780619D01*
X-4011952Y-3780619D02*
X-4002428Y-3818714D01*
X-4002428Y-3818714D02*
X-4002428Y-3866333D01*
X-4002428Y-3866333D02*
X-4011952Y-3904428D01*
X-4011952Y-3904428D02*
X-4021476Y-3923476D01*
X-4021476Y-3923476D02*
X-4031000Y-3933000D01*
X-4031000Y-3933000D02*
X-4050047Y-3942524D01*
X-4050047Y-3942524D02*
X-4069095Y-3942524D01*
X-4069095Y-3942524D02*
X-4088143Y-3933000D01*
X-4088143Y-3933000D02*
X-4097667Y-3923476D01*
X-4097667Y-3923476D02*
X-4107190Y-3904428D01*
X-4107190Y-3904428D02*
X-4116714Y-3866333D01*
X-4116714Y-3866333D02*
X-4116714Y-3818714D01*
X-4116714Y-3818714D02*
X-4107190Y-3780619D01*
X-4107190Y-3780619D02*
X-4097667Y-3761571D01*
X-4097667Y-3761571D02*
X-4088143Y-3752048D01*
X-4088143Y-3752048D02*
X-4069095Y-3742524D01*
X-3878619Y-3742524D02*
X-3859571Y-3742524D01*
X-3859571Y-3742524D02*
X-3840524Y-3752048D01*
X-3840524Y-3752048D02*
X-3831000Y-3761571D01*
X-3831000Y-3761571D02*
X-3821476Y-3780619D01*
X-3821476Y-3780619D02*
X-3811952Y-3818714D01*
X-3811952Y-3818714D02*
X-3811952Y-3866333D01*
X-3811952Y-3866333D02*
X-3821476Y-3904428D01*
X-3821476Y-3904428D02*
X-3831000Y-3923476D01*
X-3831000Y-3923476D02*
X-3840524Y-3933000D01*
X-3840524Y-3933000D02*
X-3859571Y-3942524D01*
X-3859571Y-3942524D02*
X-3878619Y-3942524D01*
X-3878619Y-3942524D02*
X-3897667Y-3933000D01*
X-3897667Y-3933000D02*
X-3907190Y-3923476D01*
X-3907190Y-3923476D02*
X-3916714Y-3904428D01*
X-3916714Y-3904428D02*
X-3926238Y-3866333D01*
X-3926238Y-3866333D02*
X-3926238Y-3818714D01*
X-3926238Y-3818714D02*
X-3916714Y-3780619D01*
X-3916714Y-3780619D02*
X-3907190Y-3761571D01*
X-3907190Y-3761571D02*
X-3897667Y-3752048D01*
X-3897667Y-3752048D02*
X-3878619Y-3742524D01*
X-3726238Y-3942524D02*
X-3726238Y-3809190D01*
X-3726238Y-3828238D02*
X-3716714Y-3818714D01*
X-3716714Y-3818714D02*
X-3697667Y-3809190D01*
X-3697667Y-3809190D02*
X-3669095Y-3809190D01*
X-3669095Y-3809190D02*
X-3650047Y-3818714D01*
X-3650047Y-3818714D02*
X-3640524Y-3837762D01*
X-3640524Y-3837762D02*
X-3640524Y-3942524D01*
X-3640524Y-3837762D02*
X-3631000Y-3818714D01*
X-3631000Y-3818714D02*
X-3611952Y-3809190D01*
X-3611952Y-3809190D02*
X-3583381Y-3809190D01*
X-3583381Y-3809190D02*
X-3564333Y-3818714D01*
X-3564333Y-3818714D02*
X-3554809Y-3837762D01*
X-3554809Y-3837762D02*
X-3554809Y-3942524D01*
X-3459571Y-3942524D02*
X-3459571Y-3809190D01*
X-3459571Y-3828238D02*
X-3450047Y-3818714D01*
X-3450047Y-3818714D02*
X-3431000Y-3809190D01*
X-3431000Y-3809190D02*
X-3402428Y-3809190D01*
X-3402428Y-3809190D02*
X-3383381Y-3818714D01*
X-3383381Y-3818714D02*
X-3373857Y-3837762D01*
X-3373857Y-3837762D02*
X-3373857Y-3942524D01*
X-3373857Y-3837762D02*
X-3364333Y-3818714D01*
X-3364333Y-3818714D02*
X-3345286Y-3809190D01*
X-3345286Y-3809190D02*
X-3316714Y-3809190D01*
X-3316714Y-3809190D02*
X-3297666Y-3818714D01*
X-3297666Y-3818714D02*
X-3288143Y-3837762D01*
X-3288143Y-3837762D02*
X-3288143Y-3942524D01*
X-2897666Y-3733000D02*
X-3069095Y-3990143D01*
X-2640524Y-3742524D02*
X-2621476Y-3742524D01*
X-2621476Y-3742524D02*
X-2602428Y-3752048D01*
X-2602428Y-3752048D02*
X-2592905Y-3761571D01*
X-2592905Y-3761571D02*
X-2583381Y-3780619D01*
X-2583381Y-3780619D02*
X-2573857Y-3818714D01*
X-2573857Y-3818714D02*
X-2573857Y-3866333D01*
X-2573857Y-3866333D02*
X-2583381Y-3904428D01*
X-2583381Y-3904428D02*
X-2592905Y-3923476D01*
X-2592905Y-3923476D02*
X-2602428Y-3933000D01*
X-2602428Y-3933000D02*
X-2621476Y-3942524D01*
X-2621476Y-3942524D02*
X-2640524Y-3942524D01*
X-2640524Y-3942524D02*
X-2659571Y-3933000D01*
X-2659571Y-3933000D02*
X-2669095Y-3923476D01*
X-2669095Y-3923476D02*
X-2678619Y-3904428D01*
X-2678619Y-3904428D02*
X-2688143Y-3866333D01*
X-2688143Y-3866333D02*
X-2688143Y-3818714D01*
X-2688143Y-3818714D02*
X-2678619Y-3780619D01*
X-2678619Y-3780619D02*
X-2669095Y-3761571D01*
X-2669095Y-3761571D02*
X-2659571Y-3752048D01*
X-2659571Y-3752048D02*
X-2640524Y-3742524D01*
X-2488143Y-3923476D02*
X-2478619Y-3933000D01*
X-2478619Y-3933000D02*
X-2488143Y-3942524D01*
X-2488143Y-3942524D02*
X-2497666Y-3933000D01*
X-2497666Y-3933000D02*
X-2488143Y-3923476D01*
X-2488143Y-3923476D02*
X-2488143Y-3942524D01*
X-2354809Y-3742524D02*
X-2335762Y-3742524D01*
X-2335762Y-3742524D02*
X-2316714Y-3752048D01*
X-2316714Y-3752048D02*
X-2307190Y-3761571D01*
X-2307190Y-3761571D02*
X-2297666Y-3780619D01*
X-2297666Y-3780619D02*
X-2288143Y-3818714D01*
X-2288143Y-3818714D02*
X-2288143Y-3866333D01*
X-2288143Y-3866333D02*
X-2297666Y-3904428D01*
X-2297666Y-3904428D02*
X-2307190Y-3923476D01*
X-2307190Y-3923476D02*
X-2316714Y-3933000D01*
X-2316714Y-3933000D02*
X-2335762Y-3942524D01*
X-2335762Y-3942524D02*
X-2354809Y-3942524D01*
X-2354809Y-3942524D02*
X-2373857Y-3933000D01*
X-2373857Y-3933000D02*
X-2383381Y-3923476D01*
X-2383381Y-3923476D02*
X-2392905Y-3904428D01*
X-2392905Y-3904428D02*
X-2402428Y-3866333D01*
X-2402428Y-3866333D02*
X-2402428Y-3818714D01*
X-2402428Y-3818714D02*
X-2392905Y-3780619D01*
X-2392905Y-3780619D02*
X-2383381Y-3761571D01*
X-2383381Y-3761571D02*
X-2373857Y-3752048D01*
X-2373857Y-3752048D02*
X-2354809Y-3742524D01*
X-2221476Y-3742524D02*
X-2097666Y-3742524D01*
X-2097666Y-3742524D02*
X-2164333Y-3818714D01*
X-2164333Y-3818714D02*
X-2135762Y-3818714D01*
X-2135762Y-3818714D02*
X-2116714Y-3828238D01*
X-2116714Y-3828238D02*
X-2107190Y-3837762D01*
X-2107190Y-3837762D02*
X-2097666Y-3856809D01*
X-2097666Y-3856809D02*
X-2097666Y-3904428D01*
X-2097666Y-3904428D02*
X-2107190Y-3923476D01*
X-2107190Y-3923476D02*
X-2116714Y-3933000D01*
X-2116714Y-3933000D02*
X-2135762Y-3942524D01*
X-2135762Y-3942524D02*
X-2192905Y-3942524D01*
X-2192905Y-3942524D02*
X-2211952Y-3933000D01*
X-2211952Y-3933000D02*
X-2221476Y-3923476D01*
X-2002428Y-3942524D02*
X-1964333Y-3942524D01*
X-1964333Y-3942524D02*
X-1945285Y-3933000D01*
X-1945285Y-3933000D02*
X-1935762Y-3923476D01*
X-1935762Y-3923476D02*
X-1916714Y-3894905D01*
X-1916714Y-3894905D02*
X-1907190Y-3856809D01*
X-1907190Y-3856809D02*
X-1907190Y-3780619D01*
X-1907190Y-3780619D02*
X-1916714Y-3761571D01*
X-1916714Y-3761571D02*
X-1926238Y-3752048D01*
X-1926238Y-3752048D02*
X-1945285Y-3742524D01*
X-1945285Y-3742524D02*
X-1983381Y-3742524D01*
X-1983381Y-3742524D02*
X-2002428Y-3752048D01*
X-2002428Y-3752048D02*
X-2011952Y-3761571D01*
X-2011952Y-3761571D02*
X-2021476Y-3780619D01*
X-2021476Y-3780619D02*
X-2021476Y-3828238D01*
X-2021476Y-3828238D02*
X-2011952Y-3847286D01*
X-2011952Y-3847286D02*
X-2002428Y-3856809D01*
X-2002428Y-3856809D02*
X-1983381Y-3866333D01*
X-1983381Y-3866333D02*
X-1945285Y-3866333D01*
X-1945285Y-3866333D02*
X-1926238Y-3856809D01*
X-1926238Y-3856809D02*
X-1916714Y-3847286D01*
X-1916714Y-3847286D02*
X-1907190Y-3828238D01*
X-1735762Y-3809190D02*
X-1735762Y-3942524D01*
X-1783381Y-3733000D02*
X-1831000Y-3875857D01*
X-1831000Y-3875857D02*
X-1707190Y-3875857D01*
X-1640523Y-3742524D02*
X-1640523Y-3780619D01*
X-1564333Y-3742524D02*
X-1564333Y-3780619D01*
X-1269095Y-4018714D02*
X-1278619Y-4009190D01*
X-1278619Y-4009190D02*
X-1297666Y-3980619D01*
X-1297666Y-3980619D02*
X-1307190Y-3961571D01*
X-1307190Y-3961571D02*
X-1316714Y-3933000D01*
X-1316714Y-3933000D02*
X-1326238Y-3885381D01*
X-1326238Y-3885381D02*
X-1326238Y-3847286D01*
X-1326238Y-3847286D02*
X-1316714Y-3799667D01*
X-1316714Y-3799667D02*
X-1307190Y-3771095D01*
X-1307190Y-3771095D02*
X-1297666Y-3752048D01*
X-1297666Y-3752048D02*
X-1278619Y-3723476D01*
X-1278619Y-3723476D02*
X-1269095Y-3713952D01*
X-1088143Y-3942524D02*
X-1202428Y-3942524D01*
X-1145285Y-3942524D02*
X-1145285Y-3742524D01*
X-1145285Y-3742524D02*
X-1164333Y-3771095D01*
X-1164333Y-3771095D02*
X-1183381Y-3790143D01*
X-1183381Y-3790143D02*
X-1202428Y-3799667D01*
X-1011952Y-3761571D02*
X-1002428Y-3752048D01*
X-1002428Y-3752048D02*
X-983381Y-3742524D01*
X-983381Y-3742524D02*
X-935761Y-3742524D01*
X-935761Y-3742524D02*
X-916714Y-3752048D01*
X-916714Y-3752048D02*
X-907190Y-3761571D01*
X-907190Y-3761571D02*
X-897666Y-3780619D01*
X-897666Y-3780619D02*
X-897666Y-3799667D01*
X-897666Y-3799667D02*
X-907190Y-3828238D01*
X-907190Y-3828238D02*
X-1021476Y-3942524D01*
X-1021476Y-3942524D02*
X-897666Y-3942524D01*
X-659571Y-3942524D02*
X-659571Y-3742524D01*
X-573857Y-3942524D02*
X-573857Y-3837762D01*
X-573857Y-3837762D02*
X-583381Y-3818714D01*
X-583381Y-3818714D02*
X-602428Y-3809190D01*
X-602428Y-3809190D02*
X-631000Y-3809190D01*
X-631000Y-3809190D02*
X-650047Y-3818714D01*
X-650047Y-3818714D02*
X-659571Y-3828238D01*
X-450047Y-3942524D02*
X-469095Y-3933000D01*
X-469095Y-3933000D02*
X-478619Y-3923476D01*
X-478619Y-3923476D02*
X-488142Y-3904428D01*
X-488142Y-3904428D02*
X-488142Y-3847286D01*
X-488142Y-3847286D02*
X-478619Y-3828238D01*
X-478619Y-3828238D02*
X-469095Y-3818714D01*
X-469095Y-3818714D02*
X-450047Y-3809190D01*
X-450047Y-3809190D02*
X-421476Y-3809190D01*
X-421476Y-3809190D02*
X-402428Y-3818714D01*
X-402428Y-3818714D02*
X-392904Y-3828238D01*
X-392904Y-3828238D02*
X-383380Y-3847286D01*
X-383380Y-3847286D02*
X-383380Y-3904428D01*
X-383380Y-3904428D02*
X-392904Y-3923476D01*
X-392904Y-3923476D02*
X-402428Y-3933000D01*
X-402428Y-3933000D02*
X-421476Y-3942524D01*
X-421476Y-3942524D02*
X-450047Y-3942524D01*
X-269095Y-3942524D02*
X-288142Y-3933000D01*
X-288142Y-3933000D02*
X-297666Y-3913952D01*
X-297666Y-3913952D02*
X-297666Y-3742524D01*
X-116714Y-3933000D02*
X-135761Y-3942524D01*
X-135761Y-3942524D02*
X-173857Y-3942524D01*
X-173857Y-3942524D02*
X-192904Y-3933000D01*
X-192904Y-3933000D02*
X-202428Y-3913952D01*
X-202428Y-3913952D02*
X-202428Y-3837762D01*
X-202428Y-3837762D02*
X-192904Y-3818714D01*
X-192904Y-3818714D02*
X-173857Y-3809190D01*
X-173857Y-3809190D02*
X-135761Y-3809190D01*
X-135761Y-3809190D02*
X-116714Y-3818714D01*
X-116714Y-3818714D02*
X-107190Y-3837762D01*
X-107190Y-3837762D02*
X-107190Y-3856809D01*
X-107190Y-3856809D02*
X-202428Y-3875857D01*
X-30999Y-3933000D02*
X-11952Y-3942524D01*
X-11952Y-3942524D02*
X26143Y-3942524D01*
X26143Y-3942524D02*
X45191Y-3933000D01*
X45191Y-3933000D02*
X54715Y-3913952D01*
X54715Y-3913952D02*
X54715Y-3904428D01*
X54715Y-3904428D02*
X45191Y-3885381D01*
X45191Y-3885381D02*
X26143Y-3875857D01*
X26143Y-3875857D02*
X-2428Y-3875857D01*
X-2428Y-3875857D02*
X-21476Y-3866333D01*
X-21476Y-3866333D02*
X-30999Y-3847286D01*
X-30999Y-3847286D02*
X-30999Y-3837762D01*
X-30999Y-3837762D02*
X-21476Y-3818714D01*
X-21476Y-3818714D02*
X-2428Y-3809190D01*
X-2428Y-3809190D02*
X26143Y-3809190D01*
X26143Y-3809190D02*
X45191Y-3818714D01*
X121381Y-4018714D02*
X130905Y-4009190D01*
X130905Y-4009190D02*
X149953Y-3980619D01*
X149953Y-3980619D02*
X159477Y-3961571D01*
X159477Y-3961571D02*
X169000Y-3933000D01*
X169000Y-3933000D02*
X178524Y-3885381D01*
X178524Y-3885381D02*
X178524Y-3847286D01*
X178524Y-3847286D02*
X169000Y-3799667D01*
X169000Y-3799667D02*
X159477Y-3771095D01*
X159477Y-3771095D02*
X149953Y-3752048D01*
X149953Y-3752048D02*
X130905Y-3723476D01*
X130905Y-3723476D02*
X121381Y-3713952D01*
M02*
