%TF.GenerationSoftware,KiCad,Pcbnew,7.0.1*%
%TF.CreationDate,2023-04-02T16:08:45+02:00*%
%TF.ProjectId,PMOD SPI SD TFT,504d4f44-2053-4504-9920-534420544654,V1.0*%
%TF.SameCoordinates,Original*%
%TF.FileFunction,Drillmap*%
%TF.FilePolarity,Positive*%
%FSLAX45Y45*%
G04 Gerber Fmt 4.5, Leading zero omitted, Abs format (unit mm)*
G04 Created by KiCad (PCBNEW 7.0.1) date 2023-04-02 16:08:45*
%MOMM*%
%LPD*%
G01*
G04 APERTURE LIST*
%ADD10C,0.100000*%
%ADD11C,0.200000*%
%ADD12C,0.300000*%
G04 APERTURE END LIST*
D10*
X2540000Y-2413000D02*
X2540000Y2540000D01*
X-3175000Y-2413000D02*
X-3175000Y508000D01*
X2540000Y2540000D02*
X-4826000Y2540000D01*
X-4826000Y2540000D02*
X-4826000Y508000D01*
X-4826000Y508000D02*
X-3175000Y508000D01*
X2540000Y-2413000D02*
X-3175000Y-2413000D01*
D11*
D12*
X-2554000Y2169500D02*
X-2254000Y1869500D01*
X-2254000Y2169500D02*
X-2554000Y1869500D01*
X-2554000Y-1869500D02*
X-2254000Y-2169500D01*
X-2254000Y-1869500D02*
X-2554000Y-2169500D01*
X1926000Y2169500D02*
X2226000Y1869500D01*
X2226000Y2169500D02*
X1926000Y1869500D01*
X1926000Y-1869500D02*
X2226000Y-2169500D01*
X2226000Y-1869500D02*
X1926000Y-2169500D01*
D11*
X-4583381Y-2730524D02*
X-4583381Y-2530524D01*
X-4583381Y-2530524D02*
X-4535762Y-2530524D01*
X-4535762Y-2530524D02*
X-4507190Y-2540048D01*
X-4507190Y-2540048D02*
X-4488143Y-2559095D01*
X-4488143Y-2559095D02*
X-4478619Y-2578143D01*
X-4478619Y-2578143D02*
X-4469095Y-2616238D01*
X-4469095Y-2616238D02*
X-4469095Y-2644810D01*
X-4469095Y-2644810D02*
X-4478619Y-2682905D01*
X-4478619Y-2682905D02*
X-4488143Y-2701952D01*
X-4488143Y-2701952D02*
X-4507190Y-2721000D01*
X-4507190Y-2721000D02*
X-4535762Y-2730524D01*
X-4535762Y-2730524D02*
X-4583381Y-2730524D01*
X-4383381Y-2730524D02*
X-4383381Y-2597190D01*
X-4383381Y-2635286D02*
X-4373857Y-2616238D01*
X-4373857Y-2616238D02*
X-4364333Y-2606714D01*
X-4364333Y-2606714D02*
X-4345286Y-2597190D01*
X-4345286Y-2597190D02*
X-4326238Y-2597190D01*
X-4259571Y-2730524D02*
X-4259571Y-2597190D01*
X-4259571Y-2530524D02*
X-4269095Y-2540048D01*
X-4269095Y-2540048D02*
X-4259571Y-2549571D01*
X-4259571Y-2549571D02*
X-4250048Y-2540048D01*
X-4250048Y-2540048D02*
X-4259571Y-2530524D01*
X-4259571Y-2530524D02*
X-4259571Y-2549571D01*
X-4135762Y-2730524D02*
X-4154809Y-2721000D01*
X-4154809Y-2721000D02*
X-4164333Y-2701952D01*
X-4164333Y-2701952D02*
X-4164333Y-2530524D01*
X-4031000Y-2730524D02*
X-4050048Y-2721000D01*
X-4050048Y-2721000D02*
X-4059571Y-2701952D01*
X-4059571Y-2701952D02*
X-4059571Y-2530524D01*
X-3802428Y-2730524D02*
X-3802428Y-2530524D01*
X-3802428Y-2530524D02*
X-3735762Y-2673381D01*
X-3735762Y-2673381D02*
X-3669095Y-2530524D01*
X-3669095Y-2530524D02*
X-3669095Y-2730524D01*
X-3488143Y-2730524D02*
X-3488143Y-2625762D01*
X-3488143Y-2625762D02*
X-3497667Y-2606714D01*
X-3497667Y-2606714D02*
X-3516714Y-2597190D01*
X-3516714Y-2597190D02*
X-3554809Y-2597190D01*
X-3554809Y-2597190D02*
X-3573857Y-2606714D01*
X-3488143Y-2721000D02*
X-3507190Y-2730524D01*
X-3507190Y-2730524D02*
X-3554809Y-2730524D01*
X-3554809Y-2730524D02*
X-3573857Y-2721000D01*
X-3573857Y-2721000D02*
X-3583381Y-2701952D01*
X-3583381Y-2701952D02*
X-3583381Y-2682905D01*
X-3583381Y-2682905D02*
X-3573857Y-2663857D01*
X-3573857Y-2663857D02*
X-3554809Y-2654333D01*
X-3554809Y-2654333D02*
X-3507190Y-2654333D01*
X-3507190Y-2654333D02*
X-3488143Y-2644810D01*
X-3392905Y-2597190D02*
X-3392905Y-2797190D01*
X-3392905Y-2606714D02*
X-3373857Y-2597190D01*
X-3373857Y-2597190D02*
X-3335762Y-2597190D01*
X-3335762Y-2597190D02*
X-3316714Y-2606714D01*
X-3316714Y-2606714D02*
X-3307190Y-2616238D01*
X-3307190Y-2616238D02*
X-3297667Y-2635286D01*
X-3297667Y-2635286D02*
X-3297667Y-2692429D01*
X-3297667Y-2692429D02*
X-3307190Y-2711476D01*
X-3307190Y-2711476D02*
X-3316714Y-2721000D01*
X-3316714Y-2721000D02*
X-3335762Y-2730524D01*
X-3335762Y-2730524D02*
X-3373857Y-2730524D01*
X-3373857Y-2730524D02*
X-3392905Y-2721000D01*
X-3211952Y-2711476D02*
X-3202428Y-2721000D01*
X-3202428Y-2721000D02*
X-3211952Y-2730524D01*
X-3211952Y-2730524D02*
X-3221476Y-2721000D01*
X-3221476Y-2721000D02*
X-3211952Y-2711476D01*
X-3211952Y-2711476D02*
X-3211952Y-2730524D01*
X-3211952Y-2606714D02*
X-3202428Y-2616238D01*
X-3202428Y-2616238D02*
X-3211952Y-2625762D01*
X-3211952Y-2625762D02*
X-3221476Y-2616238D01*
X-3221476Y-2616238D02*
X-3211952Y-2606714D01*
X-3211952Y-2606714D02*
X-3211952Y-2625762D01*
X-5031000Y-2958000D02*
X-4831000Y-3158000D01*
X-4831000Y-2958000D02*
X-5031000Y-3158000D01*
X-4602429Y-2950524D02*
X-4478619Y-2950524D01*
X-4478619Y-2950524D02*
X-4545286Y-3026714D01*
X-4545286Y-3026714D02*
X-4516714Y-3026714D01*
X-4516714Y-3026714D02*
X-4497667Y-3036238D01*
X-4497667Y-3036238D02*
X-4488143Y-3045762D01*
X-4488143Y-3045762D02*
X-4478619Y-3064809D01*
X-4478619Y-3064809D02*
X-4478619Y-3112428D01*
X-4478619Y-3112428D02*
X-4488143Y-3131476D01*
X-4488143Y-3131476D02*
X-4497667Y-3141000D01*
X-4497667Y-3141000D02*
X-4516714Y-3150524D01*
X-4516714Y-3150524D02*
X-4573857Y-3150524D01*
X-4573857Y-3150524D02*
X-4592905Y-3141000D01*
X-4592905Y-3141000D02*
X-4602429Y-3131476D01*
X-4392905Y-3131476D02*
X-4383381Y-3141000D01*
X-4383381Y-3141000D02*
X-4392905Y-3150524D01*
X-4392905Y-3150524D02*
X-4402429Y-3141000D01*
X-4402429Y-3141000D02*
X-4392905Y-3131476D01*
X-4392905Y-3131476D02*
X-4392905Y-3150524D01*
X-4259571Y-2950524D02*
X-4240524Y-2950524D01*
X-4240524Y-2950524D02*
X-4221476Y-2960048D01*
X-4221476Y-2960048D02*
X-4211952Y-2969571D01*
X-4211952Y-2969571D02*
X-4202429Y-2988619D01*
X-4202429Y-2988619D02*
X-4192905Y-3026714D01*
X-4192905Y-3026714D02*
X-4192905Y-3074333D01*
X-4192905Y-3074333D02*
X-4202429Y-3112428D01*
X-4202429Y-3112428D02*
X-4211952Y-3131476D01*
X-4211952Y-3131476D02*
X-4221476Y-3141000D01*
X-4221476Y-3141000D02*
X-4240524Y-3150524D01*
X-4240524Y-3150524D02*
X-4259571Y-3150524D01*
X-4259571Y-3150524D02*
X-4278619Y-3141000D01*
X-4278619Y-3141000D02*
X-4288143Y-3131476D01*
X-4288143Y-3131476D02*
X-4297667Y-3112428D01*
X-4297667Y-3112428D02*
X-4307190Y-3074333D01*
X-4307190Y-3074333D02*
X-4307190Y-3026714D01*
X-4307190Y-3026714D02*
X-4297667Y-2988619D01*
X-4297667Y-2988619D02*
X-4288143Y-2969571D01*
X-4288143Y-2969571D02*
X-4278619Y-2960048D01*
X-4278619Y-2960048D02*
X-4259571Y-2950524D01*
X-4069095Y-2950524D02*
X-4050047Y-2950524D01*
X-4050047Y-2950524D02*
X-4031000Y-2960048D01*
X-4031000Y-2960048D02*
X-4021476Y-2969571D01*
X-4021476Y-2969571D02*
X-4011952Y-2988619D01*
X-4011952Y-2988619D02*
X-4002428Y-3026714D01*
X-4002428Y-3026714D02*
X-4002428Y-3074333D01*
X-4002428Y-3074333D02*
X-4011952Y-3112428D01*
X-4011952Y-3112428D02*
X-4021476Y-3131476D01*
X-4021476Y-3131476D02*
X-4031000Y-3141000D01*
X-4031000Y-3141000D02*
X-4050047Y-3150524D01*
X-4050047Y-3150524D02*
X-4069095Y-3150524D01*
X-4069095Y-3150524D02*
X-4088143Y-3141000D01*
X-4088143Y-3141000D02*
X-4097667Y-3131476D01*
X-4097667Y-3131476D02*
X-4107190Y-3112428D01*
X-4107190Y-3112428D02*
X-4116714Y-3074333D01*
X-4116714Y-3074333D02*
X-4116714Y-3026714D01*
X-4116714Y-3026714D02*
X-4107190Y-2988619D01*
X-4107190Y-2988619D02*
X-4097667Y-2969571D01*
X-4097667Y-2969571D02*
X-4088143Y-2960048D01*
X-4088143Y-2960048D02*
X-4069095Y-2950524D01*
X-3878619Y-2950524D02*
X-3859571Y-2950524D01*
X-3859571Y-2950524D02*
X-3840524Y-2960048D01*
X-3840524Y-2960048D02*
X-3831000Y-2969571D01*
X-3831000Y-2969571D02*
X-3821476Y-2988619D01*
X-3821476Y-2988619D02*
X-3811952Y-3026714D01*
X-3811952Y-3026714D02*
X-3811952Y-3074333D01*
X-3811952Y-3074333D02*
X-3821476Y-3112428D01*
X-3821476Y-3112428D02*
X-3831000Y-3131476D01*
X-3831000Y-3131476D02*
X-3840524Y-3141000D01*
X-3840524Y-3141000D02*
X-3859571Y-3150524D01*
X-3859571Y-3150524D02*
X-3878619Y-3150524D01*
X-3878619Y-3150524D02*
X-3897667Y-3141000D01*
X-3897667Y-3141000D02*
X-3907190Y-3131476D01*
X-3907190Y-3131476D02*
X-3916714Y-3112428D01*
X-3916714Y-3112428D02*
X-3926238Y-3074333D01*
X-3926238Y-3074333D02*
X-3926238Y-3026714D01*
X-3926238Y-3026714D02*
X-3916714Y-2988619D01*
X-3916714Y-2988619D02*
X-3907190Y-2969571D01*
X-3907190Y-2969571D02*
X-3897667Y-2960048D01*
X-3897667Y-2960048D02*
X-3878619Y-2950524D01*
X-3726238Y-3150524D02*
X-3726238Y-3017190D01*
X-3726238Y-3036238D02*
X-3716714Y-3026714D01*
X-3716714Y-3026714D02*
X-3697667Y-3017190D01*
X-3697667Y-3017190D02*
X-3669095Y-3017190D01*
X-3669095Y-3017190D02*
X-3650047Y-3026714D01*
X-3650047Y-3026714D02*
X-3640524Y-3045762D01*
X-3640524Y-3045762D02*
X-3640524Y-3150524D01*
X-3640524Y-3045762D02*
X-3631000Y-3026714D01*
X-3631000Y-3026714D02*
X-3611952Y-3017190D01*
X-3611952Y-3017190D02*
X-3583381Y-3017190D01*
X-3583381Y-3017190D02*
X-3564333Y-3026714D01*
X-3564333Y-3026714D02*
X-3554809Y-3045762D01*
X-3554809Y-3045762D02*
X-3554809Y-3150524D01*
X-3459571Y-3150524D02*
X-3459571Y-3017190D01*
X-3459571Y-3036238D02*
X-3450047Y-3026714D01*
X-3450047Y-3026714D02*
X-3431000Y-3017190D01*
X-3431000Y-3017190D02*
X-3402428Y-3017190D01*
X-3402428Y-3017190D02*
X-3383381Y-3026714D01*
X-3383381Y-3026714D02*
X-3373857Y-3045762D01*
X-3373857Y-3045762D02*
X-3373857Y-3150524D01*
X-3373857Y-3045762D02*
X-3364333Y-3026714D01*
X-3364333Y-3026714D02*
X-3345286Y-3017190D01*
X-3345286Y-3017190D02*
X-3316714Y-3017190D01*
X-3316714Y-3017190D02*
X-3297666Y-3026714D01*
X-3297666Y-3026714D02*
X-3288143Y-3045762D01*
X-3288143Y-3045762D02*
X-3288143Y-3150524D01*
X-2897666Y-2941000D02*
X-3069095Y-3198143D01*
X-2640524Y-2950524D02*
X-2621476Y-2950524D01*
X-2621476Y-2950524D02*
X-2602428Y-2960048D01*
X-2602428Y-2960048D02*
X-2592905Y-2969571D01*
X-2592905Y-2969571D02*
X-2583381Y-2988619D01*
X-2583381Y-2988619D02*
X-2573857Y-3026714D01*
X-2573857Y-3026714D02*
X-2573857Y-3074333D01*
X-2573857Y-3074333D02*
X-2583381Y-3112428D01*
X-2583381Y-3112428D02*
X-2592905Y-3131476D01*
X-2592905Y-3131476D02*
X-2602428Y-3141000D01*
X-2602428Y-3141000D02*
X-2621476Y-3150524D01*
X-2621476Y-3150524D02*
X-2640524Y-3150524D01*
X-2640524Y-3150524D02*
X-2659571Y-3141000D01*
X-2659571Y-3141000D02*
X-2669095Y-3131476D01*
X-2669095Y-3131476D02*
X-2678619Y-3112428D01*
X-2678619Y-3112428D02*
X-2688143Y-3074333D01*
X-2688143Y-3074333D02*
X-2688143Y-3026714D01*
X-2688143Y-3026714D02*
X-2678619Y-2988619D01*
X-2678619Y-2988619D02*
X-2669095Y-2969571D01*
X-2669095Y-2969571D02*
X-2659571Y-2960048D01*
X-2659571Y-2960048D02*
X-2640524Y-2950524D01*
X-2488143Y-3131476D02*
X-2478619Y-3141000D01*
X-2478619Y-3141000D02*
X-2488143Y-3150524D01*
X-2488143Y-3150524D02*
X-2497666Y-3141000D01*
X-2497666Y-3141000D02*
X-2488143Y-3131476D01*
X-2488143Y-3131476D02*
X-2488143Y-3150524D01*
X-2288143Y-3150524D02*
X-2402428Y-3150524D01*
X-2345286Y-3150524D02*
X-2345286Y-2950524D01*
X-2345286Y-2950524D02*
X-2364333Y-2979095D01*
X-2364333Y-2979095D02*
X-2383381Y-2998143D01*
X-2383381Y-2998143D02*
X-2402428Y-3007667D01*
X-2097666Y-3150524D02*
X-2211952Y-3150524D01*
X-2154809Y-3150524D02*
X-2154809Y-2950524D01*
X-2154809Y-2950524D02*
X-2173857Y-2979095D01*
X-2173857Y-2979095D02*
X-2192905Y-2998143D01*
X-2192905Y-2998143D02*
X-2211952Y-3007667D01*
X-1983381Y-3036238D02*
X-2002428Y-3026714D01*
X-2002428Y-3026714D02*
X-2011952Y-3017190D01*
X-2011952Y-3017190D02*
X-2021476Y-2998143D01*
X-2021476Y-2998143D02*
X-2021476Y-2988619D01*
X-2021476Y-2988619D02*
X-2011952Y-2969571D01*
X-2011952Y-2969571D02*
X-2002428Y-2960048D01*
X-2002428Y-2960048D02*
X-1983381Y-2950524D01*
X-1983381Y-2950524D02*
X-1945285Y-2950524D01*
X-1945285Y-2950524D02*
X-1926238Y-2960048D01*
X-1926238Y-2960048D02*
X-1916714Y-2969571D01*
X-1916714Y-2969571D02*
X-1907190Y-2988619D01*
X-1907190Y-2988619D02*
X-1907190Y-2998143D01*
X-1907190Y-2998143D02*
X-1916714Y-3017190D01*
X-1916714Y-3017190D02*
X-1926238Y-3026714D01*
X-1926238Y-3026714D02*
X-1945285Y-3036238D01*
X-1945285Y-3036238D02*
X-1983381Y-3036238D01*
X-1983381Y-3036238D02*
X-2002428Y-3045762D01*
X-2002428Y-3045762D02*
X-2011952Y-3055286D01*
X-2011952Y-3055286D02*
X-2021476Y-3074333D01*
X-2021476Y-3074333D02*
X-2021476Y-3112428D01*
X-2021476Y-3112428D02*
X-2011952Y-3131476D01*
X-2011952Y-3131476D02*
X-2002428Y-3141000D01*
X-2002428Y-3141000D02*
X-1983381Y-3150524D01*
X-1983381Y-3150524D02*
X-1945285Y-3150524D01*
X-1945285Y-3150524D02*
X-1926238Y-3141000D01*
X-1926238Y-3141000D02*
X-1916714Y-3131476D01*
X-1916714Y-3131476D02*
X-1907190Y-3112428D01*
X-1907190Y-3112428D02*
X-1907190Y-3074333D01*
X-1907190Y-3074333D02*
X-1916714Y-3055286D01*
X-1916714Y-3055286D02*
X-1926238Y-3045762D01*
X-1926238Y-3045762D02*
X-1945285Y-3036238D01*
X-1716714Y-3150524D02*
X-1831000Y-3150524D01*
X-1773857Y-3150524D02*
X-1773857Y-2950524D01*
X-1773857Y-2950524D02*
X-1792904Y-2979095D01*
X-1792904Y-2979095D02*
X-1811952Y-2998143D01*
X-1811952Y-2998143D02*
X-1831000Y-3007667D01*
X-1640523Y-2950524D02*
X-1640523Y-2988619D01*
X-1564333Y-2950524D02*
X-1564333Y-2988619D01*
X-1269095Y-3226714D02*
X-1278619Y-3217190D01*
X-1278619Y-3217190D02*
X-1297666Y-3188619D01*
X-1297666Y-3188619D02*
X-1307190Y-3169571D01*
X-1307190Y-3169571D02*
X-1316714Y-3141000D01*
X-1316714Y-3141000D02*
X-1326238Y-3093381D01*
X-1326238Y-3093381D02*
X-1326238Y-3055286D01*
X-1326238Y-3055286D02*
X-1316714Y-3007667D01*
X-1316714Y-3007667D02*
X-1307190Y-2979095D01*
X-1307190Y-2979095D02*
X-1297666Y-2960048D01*
X-1297666Y-2960048D02*
X-1278619Y-2931476D01*
X-1278619Y-2931476D02*
X-1269095Y-2921952D01*
X-1107190Y-3017190D02*
X-1107190Y-3150524D01*
X-1154809Y-2941000D02*
X-1202428Y-3083857D01*
X-1202428Y-3083857D02*
X-1078619Y-3083857D01*
X-850047Y-3150524D02*
X-850047Y-2950524D01*
X-764333Y-3150524D02*
X-764333Y-3045762D01*
X-764333Y-3045762D02*
X-773857Y-3026714D01*
X-773857Y-3026714D02*
X-792904Y-3017190D01*
X-792904Y-3017190D02*
X-821476Y-3017190D01*
X-821476Y-3017190D02*
X-840523Y-3026714D01*
X-840523Y-3026714D02*
X-850047Y-3036238D01*
X-640523Y-3150524D02*
X-659571Y-3141000D01*
X-659571Y-3141000D02*
X-669095Y-3131476D01*
X-669095Y-3131476D02*
X-678619Y-3112428D01*
X-678619Y-3112428D02*
X-678619Y-3055286D01*
X-678619Y-3055286D02*
X-669095Y-3036238D01*
X-669095Y-3036238D02*
X-659571Y-3026714D01*
X-659571Y-3026714D02*
X-640523Y-3017190D01*
X-640523Y-3017190D02*
X-611952Y-3017190D01*
X-611952Y-3017190D02*
X-592904Y-3026714D01*
X-592904Y-3026714D02*
X-583381Y-3036238D01*
X-583381Y-3036238D02*
X-573857Y-3055286D01*
X-573857Y-3055286D02*
X-573857Y-3112428D01*
X-573857Y-3112428D02*
X-583381Y-3131476D01*
X-583381Y-3131476D02*
X-592904Y-3141000D01*
X-592904Y-3141000D02*
X-611952Y-3150524D01*
X-611952Y-3150524D02*
X-640523Y-3150524D01*
X-459571Y-3150524D02*
X-478619Y-3141000D01*
X-478619Y-3141000D02*
X-488142Y-3121952D01*
X-488142Y-3121952D02*
X-488142Y-2950524D01*
X-307190Y-3141000D02*
X-326238Y-3150524D01*
X-326238Y-3150524D02*
X-364333Y-3150524D01*
X-364333Y-3150524D02*
X-383380Y-3141000D01*
X-383380Y-3141000D02*
X-392904Y-3121952D01*
X-392904Y-3121952D02*
X-392904Y-3045762D01*
X-392904Y-3045762D02*
X-383380Y-3026714D01*
X-383380Y-3026714D02*
X-364333Y-3017190D01*
X-364333Y-3017190D02*
X-326238Y-3017190D01*
X-326238Y-3017190D02*
X-307190Y-3026714D01*
X-307190Y-3026714D02*
X-297666Y-3045762D01*
X-297666Y-3045762D02*
X-297666Y-3064809D01*
X-297666Y-3064809D02*
X-392904Y-3083857D01*
X-221476Y-3141000D02*
X-202428Y-3150524D01*
X-202428Y-3150524D02*
X-164333Y-3150524D01*
X-164333Y-3150524D02*
X-145285Y-3141000D01*
X-145285Y-3141000D02*
X-135761Y-3121952D01*
X-135761Y-3121952D02*
X-135761Y-3112428D01*
X-135761Y-3112428D02*
X-145285Y-3093381D01*
X-145285Y-3093381D02*
X-164333Y-3083857D01*
X-164333Y-3083857D02*
X-192904Y-3083857D01*
X-192904Y-3083857D02*
X-211952Y-3074333D01*
X-211952Y-3074333D02*
X-221476Y-3055286D01*
X-221476Y-3055286D02*
X-221476Y-3045762D01*
X-221476Y-3045762D02*
X-211952Y-3026714D01*
X-211952Y-3026714D02*
X-192904Y-3017190D01*
X-192904Y-3017190D02*
X-164333Y-3017190D01*
X-164333Y-3017190D02*
X-145285Y-3026714D01*
X-69095Y-3226714D02*
X-59571Y-3217190D01*
X-59571Y-3217190D02*
X-40523Y-3188619D01*
X-40523Y-3188619D02*
X-30999Y-3169571D01*
X-30999Y-3169571D02*
X-21476Y-3141000D01*
X-21476Y-3141000D02*
X-11952Y-3093381D01*
X-11952Y-3093381D02*
X-11952Y-3055286D01*
X-11952Y-3055286D02*
X-21476Y-3007667D01*
X-21476Y-3007667D02*
X-30999Y-2979095D01*
X-30999Y-2979095D02*
X-40523Y-2960048D01*
X-40523Y-2960048D02*
X-59571Y-2931476D01*
X-59571Y-2931476D02*
X-69095Y-2921952D01*
X292810Y-3226714D02*
X283286Y-3217190D01*
X283286Y-3217190D02*
X264239Y-3188619D01*
X264239Y-3188619D02*
X254715Y-3169571D01*
X254715Y-3169571D02*
X245191Y-3141000D01*
X245191Y-3141000D02*
X235667Y-3093381D01*
X235667Y-3093381D02*
X235667Y-3055286D01*
X235667Y-3055286D02*
X245191Y-3007667D01*
X245191Y-3007667D02*
X254715Y-2979095D01*
X254715Y-2979095D02*
X264239Y-2960048D01*
X264239Y-2960048D02*
X283286Y-2931476D01*
X283286Y-2931476D02*
X292810Y-2921952D01*
X369000Y-3017190D02*
X369000Y-3150524D01*
X369000Y-3036238D02*
X378524Y-3026714D01*
X378524Y-3026714D02*
X397572Y-3017190D01*
X397572Y-3017190D02*
X426143Y-3017190D01*
X426143Y-3017190D02*
X445191Y-3026714D01*
X445191Y-3026714D02*
X454715Y-3045762D01*
X454715Y-3045762D02*
X454715Y-3150524D01*
X578524Y-3150524D02*
X559477Y-3141000D01*
X559477Y-3141000D02*
X549953Y-3131476D01*
X549953Y-3131476D02*
X540429Y-3112428D01*
X540429Y-3112428D02*
X540429Y-3055286D01*
X540429Y-3055286D02*
X549953Y-3036238D01*
X549953Y-3036238D02*
X559477Y-3026714D01*
X559477Y-3026714D02*
X578524Y-3017190D01*
X578524Y-3017190D02*
X607096Y-3017190D01*
X607096Y-3017190D02*
X626143Y-3026714D01*
X626143Y-3026714D02*
X635667Y-3036238D01*
X635667Y-3036238D02*
X645191Y-3055286D01*
X645191Y-3055286D02*
X645191Y-3112428D01*
X645191Y-3112428D02*
X635667Y-3131476D01*
X635667Y-3131476D02*
X626143Y-3141000D01*
X626143Y-3141000D02*
X607096Y-3150524D01*
X607096Y-3150524D02*
X578524Y-3150524D01*
X702334Y-3017190D02*
X778524Y-3017190D01*
X730905Y-2950524D02*
X730905Y-3121952D01*
X730905Y-3121952D02*
X740429Y-3141000D01*
X740429Y-3141000D02*
X759477Y-3150524D01*
X759477Y-3150524D02*
X778524Y-3150524D01*
X997572Y-3017190D02*
X997572Y-3217190D01*
X997572Y-3026714D02*
X1016619Y-3017190D01*
X1016619Y-3017190D02*
X1054715Y-3017190D01*
X1054715Y-3017190D02*
X1073762Y-3026714D01*
X1073762Y-3026714D02*
X1083286Y-3036238D01*
X1083286Y-3036238D02*
X1092810Y-3055286D01*
X1092810Y-3055286D02*
X1092810Y-3112428D01*
X1092810Y-3112428D02*
X1083286Y-3131476D01*
X1083286Y-3131476D02*
X1073762Y-3141000D01*
X1073762Y-3141000D02*
X1054715Y-3150524D01*
X1054715Y-3150524D02*
X1016619Y-3150524D01*
X1016619Y-3150524D02*
X997572Y-3141000D01*
X1207096Y-3150524D02*
X1188048Y-3141000D01*
X1188048Y-3141000D02*
X1178524Y-3121952D01*
X1178524Y-3121952D02*
X1178524Y-2950524D01*
X1369001Y-3150524D02*
X1369001Y-3045762D01*
X1369001Y-3045762D02*
X1359477Y-3026714D01*
X1359477Y-3026714D02*
X1340429Y-3017190D01*
X1340429Y-3017190D02*
X1302334Y-3017190D01*
X1302334Y-3017190D02*
X1283286Y-3026714D01*
X1369001Y-3141000D02*
X1349953Y-3150524D01*
X1349953Y-3150524D02*
X1302334Y-3150524D01*
X1302334Y-3150524D02*
X1283286Y-3141000D01*
X1283286Y-3141000D02*
X1273762Y-3121952D01*
X1273762Y-3121952D02*
X1273762Y-3102905D01*
X1273762Y-3102905D02*
X1283286Y-3083857D01*
X1283286Y-3083857D02*
X1302334Y-3074333D01*
X1302334Y-3074333D02*
X1349953Y-3074333D01*
X1349953Y-3074333D02*
X1369001Y-3064809D01*
X1435667Y-3017190D02*
X1511858Y-3017190D01*
X1464239Y-2950524D02*
X1464239Y-3121952D01*
X1464239Y-3121952D02*
X1473762Y-3141000D01*
X1473762Y-3141000D02*
X1492810Y-3150524D01*
X1492810Y-3150524D02*
X1511858Y-3150524D01*
X1654715Y-3141000D02*
X1635667Y-3150524D01*
X1635667Y-3150524D02*
X1597572Y-3150524D01*
X1597572Y-3150524D02*
X1578524Y-3141000D01*
X1578524Y-3141000D02*
X1569000Y-3121952D01*
X1569000Y-3121952D02*
X1569000Y-3045762D01*
X1569000Y-3045762D02*
X1578524Y-3026714D01*
X1578524Y-3026714D02*
X1597572Y-3017190D01*
X1597572Y-3017190D02*
X1635667Y-3017190D01*
X1635667Y-3017190D02*
X1654715Y-3026714D01*
X1654715Y-3026714D02*
X1664239Y-3045762D01*
X1664239Y-3045762D02*
X1664239Y-3064809D01*
X1664239Y-3064809D02*
X1569000Y-3083857D01*
X1835667Y-3150524D02*
X1835667Y-2950524D01*
X1835667Y-3141000D02*
X1816620Y-3150524D01*
X1816620Y-3150524D02*
X1778524Y-3150524D01*
X1778524Y-3150524D02*
X1759477Y-3141000D01*
X1759477Y-3141000D02*
X1749953Y-3131476D01*
X1749953Y-3131476D02*
X1740429Y-3112428D01*
X1740429Y-3112428D02*
X1740429Y-3055286D01*
X1740429Y-3055286D02*
X1749953Y-3036238D01*
X1749953Y-3036238D02*
X1759477Y-3026714D01*
X1759477Y-3026714D02*
X1778524Y-3017190D01*
X1778524Y-3017190D02*
X1816620Y-3017190D01*
X1816620Y-3017190D02*
X1835667Y-3026714D01*
X1911858Y-3226714D02*
X1921381Y-3217190D01*
X1921381Y-3217190D02*
X1940429Y-3188619D01*
X1940429Y-3188619D02*
X1949953Y-3169571D01*
X1949953Y-3169571D02*
X1959477Y-3141000D01*
X1959477Y-3141000D02*
X1969000Y-3093381D01*
X1969000Y-3093381D02*
X1969000Y-3055286D01*
X1969000Y-3055286D02*
X1959477Y-3007667D01*
X1959477Y-3007667D02*
X1949953Y-2979095D01*
X1949953Y-2979095D02*
X1940429Y-2960048D01*
X1940429Y-2960048D02*
X1921381Y-2931476D01*
X1921381Y-2931476D02*
X1911858Y-2921952D01*
M02*
