G04 #@! TF.GenerationSoftware,KiCad,Pcbnew,7.0.1*
G04 #@! TF.CreationDate,2023-04-02T16:08:21+02:00*
G04 #@! TF.ProjectId,PMOD SPI SD TFT,504d4f44-2053-4504-9920-534420544654,V1.0*
G04 #@! TF.SameCoordinates,Original*
G04 #@! TF.FileFunction,Legend,Top*
G04 #@! TF.FilePolarity,Positive*
%FSLAX46Y46*%
G04 Gerber Fmt 4.6, Leading zero omitted, Abs format (unit mm)*
G04 Created by KiCad (PCBNEW 7.0.1) date 2023-04-02 16:08:21*
%MOMM*%
%LPD*%
G01*
G04 APERTURE LIST*
G04 Aperture macros list*
%AMRoundRect*
0 Rectangle with rounded corners*
0 $1 Rounding radius*
0 $2 $3 $4 $5 $6 $7 $8 $9 X,Y pos of 4 corners*
0 Add a 4 corners polygon primitive as box body*
4,1,4,$2,$3,$4,$5,$6,$7,$8,$9,$2,$3,0*
0 Add four circle primitives for the rounded corners*
1,1,$1+$1,$2,$3*
1,1,$1+$1,$4,$5*
1,1,$1+$1,$6,$7*
1,1,$1+$1,$8,$9*
0 Add four rect primitives between the rounded corners*
20,1,$1+$1,$2,$3,$4,$5,0*
20,1,$1+$1,$4,$5,$6,$7,0*
20,1,$1+$1,$6,$7,$8,$9,0*
20,1,$1+$1,$8,$9,$2,$3,0*%
G04 Aperture macros list end*
%ADD10C,0.150000*%
%ADD11C,0.120000*%
%ADD12RoundRect,0.250000X0.350000X0.450000X-0.350000X0.450000X-0.350000X-0.450000X0.350000X-0.450000X0*%
%ADD13R,1.700000X1.700000*%
%ADD14O,1.700000X1.700000*%
%ADD15RoundRect,0.250000X-0.450000X0.325000X-0.450000X-0.325000X0.450000X-0.325000X0.450000X0.325000X0*%
%ADD16C,1.524000*%
%ADD17R,1.524000X1.524000*%
%ADD18C,3.000000*%
%ADD19R,1.600000X1.600000*%
%ADD20C,1.600000*%
%ADD21RoundRect,0.250000X-0.350000X-0.450000X0.350000X-0.450000X0.350000X0.450000X-0.350000X0.450000X0*%
%ADD22RoundRect,0.250000X-0.450000X0.350000X-0.450000X-0.350000X0.450000X-0.350000X0.450000X0.350000X0*%
%ADD23RoundRect,0.250000X0.450000X-0.325000X0.450000X0.325000X-0.450000X0.325000X-0.450000X-0.325000X0*%
G04 APERTURE END LIST*
D10*
X-39370000Y8890000D02*
X-41910000Y8890000D01*
X-44450000Y19050000D02*
X-43180000Y17780000D01*
X-44450000Y11430000D02*
X-43180000Y10160000D01*
X-43180000Y15240000D02*
X-39370000Y15240000D01*
X-39370000Y16510000D02*
X-41910000Y16510000D01*
X-39370000Y21590000D02*
X-41910000Y21590000D01*
X-44450000Y21590000D02*
X-43180000Y20320000D01*
X-43180000Y17780000D02*
X-39370000Y17780000D01*
X-44450000Y8890000D02*
X-43180000Y7620000D01*
X-43180000Y10160000D02*
X-39370000Y10160000D01*
X-43180000Y12700000D02*
X-39370000Y12700000D01*
X-39370000Y13970000D02*
X-41910000Y13970000D01*
X-39370000Y19050000D02*
X-41910000Y19050000D01*
X-43180000Y7620000D02*
X-39370000Y7620000D01*
X-43180000Y20320000D02*
X-39370000Y20320000D01*
X-44450000Y13970000D02*
X-43180000Y12700000D01*
X-44450000Y16510000D02*
X-43180000Y15240000D01*
X-39370000Y11430000D02*
X-41910000Y11430000D01*
X-39274761Y20857380D02*
X-38703333Y20857380D01*
X-38989047Y19857380D02*
X-38989047Y20857380D01*
X-38036666Y20381190D02*
X-38369999Y20381190D01*
X-38369999Y19857380D02*
X-38369999Y20857380D01*
X-38369999Y20857380D02*
X-37893809Y20857380D01*
X-37655713Y20857380D02*
X-37084285Y20857380D01*
X-37369999Y19857380D02*
X-37369999Y20857380D01*
X-36989047Y19762142D02*
X-36227142Y19762142D01*
X-35989046Y19857380D02*
X-35989046Y20857380D01*
X-35989046Y20857380D02*
X-35750951Y20857380D01*
X-35750951Y20857380D02*
X-35608094Y20809761D01*
X-35608094Y20809761D02*
X-35512856Y20714523D01*
X-35512856Y20714523D02*
X-35465237Y20619285D01*
X-35465237Y20619285D02*
X-35417618Y20428809D01*
X-35417618Y20428809D02*
X-35417618Y20285952D01*
X-35417618Y20285952D02*
X-35465237Y20095476D01*
X-35465237Y20095476D02*
X-35512856Y20000238D01*
X-35512856Y20000238D02*
X-35608094Y19905000D01*
X-35608094Y19905000D02*
X-35750951Y19857380D01*
X-35750951Y19857380D02*
X-35989046Y19857380D01*
X-34989046Y20524047D02*
X-34989046Y19857380D01*
X-34989046Y20428809D02*
X-34941427Y20476428D01*
X-34941427Y20476428D02*
X-34846189Y20524047D01*
X-34846189Y20524047D02*
X-34703332Y20524047D01*
X-34703332Y20524047D02*
X-34608094Y20476428D01*
X-34608094Y20476428D02*
X-34560475Y20381190D01*
X-34560475Y20381190D02*
X-34560475Y19857380D01*
X-33512856Y19952619D02*
X-33560475Y19905000D01*
X-33560475Y19905000D02*
X-33703332Y19857380D01*
X-33703332Y19857380D02*
X-33798570Y19857380D01*
X-33798570Y19857380D02*
X-33941427Y19905000D01*
X-33941427Y19905000D02*
X-34036665Y20000238D01*
X-34036665Y20000238D02*
X-34084284Y20095476D01*
X-34084284Y20095476D02*
X-34131903Y20285952D01*
X-34131903Y20285952D02*
X-34131903Y20428809D01*
X-34131903Y20428809D02*
X-34084284Y20619285D01*
X-34084284Y20619285D02*
X-34036665Y20714523D01*
X-34036665Y20714523D02*
X-33941427Y20809761D01*
X-33941427Y20809761D02*
X-33798570Y20857380D01*
X-33798570Y20857380D02*
X-33703332Y20857380D01*
X-33703332Y20857380D02*
X-33560475Y20809761D01*
X-33560475Y20809761D02*
X-33512856Y20762142D01*
X-39227142Y8157380D02*
X-38608095Y8157380D01*
X-38608095Y8157380D02*
X-38941428Y7776428D01*
X-38941428Y7776428D02*
X-38798571Y7776428D01*
X-38798571Y7776428D02*
X-38703333Y7728809D01*
X-38703333Y7728809D02*
X-38655714Y7681190D01*
X-38655714Y7681190D02*
X-38608095Y7585952D01*
X-38608095Y7585952D02*
X-38608095Y7347857D01*
X-38608095Y7347857D02*
X-38655714Y7252619D01*
X-38655714Y7252619D02*
X-38703333Y7205000D01*
X-38703333Y7205000D02*
X-38798571Y7157380D01*
X-38798571Y7157380D02*
X-39084285Y7157380D01*
X-39084285Y7157380D02*
X-39179523Y7205000D01*
X-39179523Y7205000D02*
X-39227142Y7252619D01*
X-38322380Y8157380D02*
X-37989047Y7157380D01*
X-37989047Y7157380D02*
X-37655714Y8157380D01*
X-37417618Y8157380D02*
X-36798571Y8157380D01*
X-36798571Y8157380D02*
X-37131904Y7776428D01*
X-37131904Y7776428D02*
X-36989047Y7776428D01*
X-36989047Y7776428D02*
X-36893809Y7728809D01*
X-36893809Y7728809D02*
X-36846190Y7681190D01*
X-36846190Y7681190D02*
X-36798571Y7585952D01*
X-36798571Y7585952D02*
X-36798571Y7347857D01*
X-36798571Y7347857D02*
X-36846190Y7252619D01*
X-36846190Y7252619D02*
X-36893809Y7205000D01*
X-36893809Y7205000D02*
X-36989047Y7157380D01*
X-36989047Y7157380D02*
X-37274761Y7157380D01*
X-37274761Y7157380D02*
X-37369999Y7205000D01*
X-37369999Y7205000D02*
X-37417618Y7252619D01*
X-11349239Y-12559000D02*
X-11206382Y-12606619D01*
X-11206382Y-12606619D02*
X-10968287Y-12606619D01*
X-10968287Y-12606619D02*
X-10873049Y-12559000D01*
X-10873049Y-12559000D02*
X-10825430Y-12511380D01*
X-10825430Y-12511380D02*
X-10777811Y-12416142D01*
X-10777811Y-12416142D02*
X-10777811Y-12320904D01*
X-10777811Y-12320904D02*
X-10825430Y-12225666D01*
X-10825430Y-12225666D02*
X-10873049Y-12178047D01*
X-10873049Y-12178047D02*
X-10968287Y-12130428D01*
X-10968287Y-12130428D02*
X-11158763Y-12082809D01*
X-11158763Y-12082809D02*
X-11254001Y-12035190D01*
X-11254001Y-12035190D02*
X-11301620Y-11987571D01*
X-11301620Y-11987571D02*
X-11349239Y-11892333D01*
X-11349239Y-11892333D02*
X-11349239Y-11797095D01*
X-11349239Y-11797095D02*
X-11301620Y-11701857D01*
X-11301620Y-11701857D02*
X-11254001Y-11654238D01*
X-11254001Y-11654238D02*
X-11158763Y-11606619D01*
X-11158763Y-11606619D02*
X-10920668Y-11606619D01*
X-10920668Y-11606619D02*
X-10777811Y-11654238D01*
X-10206382Y-12606619D02*
X-10301620Y-12559000D01*
X-10301620Y-12559000D02*
X-10349239Y-12511380D01*
X-10349239Y-12511380D02*
X-10396858Y-12416142D01*
X-10396858Y-12416142D02*
X-10396858Y-12130428D01*
X-10396858Y-12130428D02*
X-10349239Y-12035190D01*
X-10349239Y-12035190D02*
X-10301620Y-11987571D01*
X-10301620Y-11987571D02*
X-10206382Y-11939952D01*
X-10206382Y-11939952D02*
X-10063525Y-11939952D01*
X-10063525Y-11939952D02*
X-9968287Y-11987571D01*
X-9968287Y-11987571D02*
X-9920668Y-12035190D01*
X-9920668Y-12035190D02*
X-9873049Y-12130428D01*
X-9873049Y-12130428D02*
X-9873049Y-12416142D01*
X-9873049Y-12416142D02*
X-9920668Y-12511380D01*
X-9920668Y-12511380D02*
X-9968287Y-12559000D01*
X-9968287Y-12559000D02*
X-10063525Y-12606619D01*
X-10063525Y-12606619D02*
X-10206382Y-12606619D01*
X-9301620Y-12606619D02*
X-9396858Y-12559000D01*
X-9396858Y-12559000D02*
X-9444477Y-12463761D01*
X-9444477Y-12463761D02*
X-9444477Y-11606619D01*
X-8492096Y-12606619D02*
X-8492096Y-11606619D01*
X-8492096Y-12559000D02*
X-8587334Y-12606619D01*
X-8587334Y-12606619D02*
X-8777810Y-12606619D01*
X-8777810Y-12606619D02*
X-8873048Y-12559000D01*
X-8873048Y-12559000D02*
X-8920667Y-12511380D01*
X-8920667Y-12511380D02*
X-8968286Y-12416142D01*
X-8968286Y-12416142D02*
X-8968286Y-12130428D01*
X-8968286Y-12130428D02*
X-8920667Y-12035190D01*
X-8920667Y-12035190D02*
X-8873048Y-11987571D01*
X-8873048Y-11987571D02*
X-8777810Y-11939952D01*
X-8777810Y-11939952D02*
X-8587334Y-11939952D01*
X-8587334Y-11939952D02*
X-8492096Y-11987571D01*
X-7634953Y-12559000D02*
X-7730191Y-12606619D01*
X-7730191Y-12606619D02*
X-7920667Y-12606619D01*
X-7920667Y-12606619D02*
X-8015905Y-12559000D01*
X-8015905Y-12559000D02*
X-8063524Y-12463761D01*
X-8063524Y-12463761D02*
X-8063524Y-12082809D01*
X-8063524Y-12082809D02*
X-8015905Y-11987571D01*
X-8015905Y-11987571D02*
X-7920667Y-11939952D01*
X-7920667Y-11939952D02*
X-7730191Y-11939952D01*
X-7730191Y-11939952D02*
X-7634953Y-11987571D01*
X-7634953Y-11987571D02*
X-7587334Y-12082809D01*
X-7587334Y-12082809D02*
X-7587334Y-12178047D01*
X-7587334Y-12178047D02*
X-8063524Y-12273285D01*
X-7158762Y-12606619D02*
X-7158762Y-11939952D01*
X-7158762Y-12130428D02*
X-7111143Y-12035190D01*
X-7111143Y-12035190D02*
X-7063524Y-11987571D01*
X-7063524Y-11987571D02*
X-6968286Y-11939952D01*
X-6968286Y-11939952D02*
X-6873048Y-11939952D01*
X-5777809Y-11939952D02*
X-5777809Y-12797095D01*
X-5777809Y-12797095D02*
X-5825428Y-12892333D01*
X-5825428Y-12892333D02*
X-5920666Y-12939952D01*
X-5920666Y-12939952D02*
X-5968285Y-12939952D01*
X-5777809Y-11606619D02*
X-5825428Y-11654238D01*
X-5825428Y-11654238D02*
X-5777809Y-11701857D01*
X-5777809Y-11701857D02*
X-5730190Y-11654238D01*
X-5730190Y-11654238D02*
X-5777809Y-11606619D01*
X-5777809Y-11606619D02*
X-5777809Y-11701857D01*
X-4873048Y-11939952D02*
X-4873048Y-12606619D01*
X-5301619Y-11939952D02*
X-5301619Y-12463761D01*
X-5301619Y-12463761D02*
X-5254000Y-12559000D01*
X-5254000Y-12559000D02*
X-5158762Y-12606619D01*
X-5158762Y-12606619D02*
X-5015905Y-12606619D01*
X-5015905Y-12606619D02*
X-4920667Y-12559000D01*
X-4920667Y-12559000D02*
X-4873048Y-12511380D01*
X-4396857Y-12606619D02*
X-4396857Y-11939952D01*
X-4396857Y-12035190D02*
X-4349238Y-11987571D01*
X-4349238Y-11987571D02*
X-4254000Y-11939952D01*
X-4254000Y-11939952D02*
X-4111143Y-11939952D01*
X-4111143Y-11939952D02*
X-4015905Y-11987571D01*
X-4015905Y-11987571D02*
X-3968286Y-12082809D01*
X-3968286Y-12082809D02*
X-3968286Y-12606619D01*
X-3968286Y-12082809D02*
X-3920667Y-11987571D01*
X-3920667Y-11987571D02*
X-3825429Y-11939952D01*
X-3825429Y-11939952D02*
X-3682572Y-11939952D01*
X-3682572Y-11939952D02*
X-3587333Y-11987571D01*
X-3587333Y-11987571D02*
X-3539714Y-12082809D01*
X-3539714Y-12082809D02*
X-3539714Y-12606619D01*
X-3063524Y-11939952D02*
X-3063524Y-12939952D01*
X-3063524Y-11987571D02*
X-2968286Y-11939952D01*
X-2968286Y-11939952D02*
X-2777810Y-11939952D01*
X-2777810Y-11939952D02*
X-2682572Y-11987571D01*
X-2682572Y-11987571D02*
X-2634953Y-12035190D01*
X-2634953Y-12035190D02*
X-2587334Y-12130428D01*
X-2587334Y-12130428D02*
X-2587334Y-12416142D01*
X-2587334Y-12416142D02*
X-2634953Y-12511380D01*
X-2634953Y-12511380D02*
X-2682572Y-12559000D01*
X-2682572Y-12559000D02*
X-2777810Y-12606619D01*
X-2777810Y-12606619D02*
X-2968286Y-12606619D01*
X-2968286Y-12606619D02*
X-3063524Y-12559000D01*
X-1777810Y-12559000D02*
X-1873048Y-12606619D01*
X-1873048Y-12606619D02*
X-2063524Y-12606619D01*
X-2063524Y-12606619D02*
X-2158762Y-12559000D01*
X-2158762Y-12559000D02*
X-2206381Y-12463761D01*
X-2206381Y-12463761D02*
X-2206381Y-12082809D01*
X-2206381Y-12082809D02*
X-2158762Y-11987571D01*
X-2158762Y-11987571D02*
X-2063524Y-11939952D01*
X-2063524Y-11939952D02*
X-1873048Y-11939952D01*
X-1873048Y-11939952D02*
X-1777810Y-11987571D01*
X-1777810Y-11987571D02*
X-1730191Y-12082809D01*
X-1730191Y-12082809D02*
X-1730191Y-12178047D01*
X-1730191Y-12178047D02*
X-2206381Y-12273285D01*
X-1301619Y-12606619D02*
X-1301619Y-11939952D01*
X-1301619Y-12130428D02*
X-1254000Y-12035190D01*
X-1254000Y-12035190D02*
X-1206381Y-11987571D01*
X-1206381Y-11987571D02*
X-1111143Y-11939952D01*
X-1111143Y-11939952D02*
X-1015905Y-11939952D01*
X365047Y-11606619D02*
X365047Y-12320904D01*
X365047Y-12320904D02*
X317428Y-12463761D01*
X317428Y-12463761D02*
X222190Y-12559000D01*
X222190Y-12559000D02*
X79333Y-12606619D01*
X79333Y-12606619D02*
X-15904Y-12606619D01*
X1365047Y-12606619D02*
X793619Y-12606619D01*
X1079333Y-12606619D02*
X1079333Y-11606619D01*
X1079333Y-11606619D02*
X984095Y-11749476D01*
X984095Y-11749476D02*
X888857Y-11844714D01*
X888857Y-11844714D02*
X793619Y-11892333D01*
X2698381Y-12606619D02*
X2603143Y-12559000D01*
X2603143Y-12559000D02*
X2555524Y-12511380D01*
X2555524Y-12511380D02*
X2507905Y-12416142D01*
X2507905Y-12416142D02*
X2507905Y-12130428D01*
X2507905Y-12130428D02*
X2555524Y-12035190D01*
X2555524Y-12035190D02*
X2603143Y-11987571D01*
X2603143Y-11987571D02*
X2698381Y-11939952D01*
X2698381Y-11939952D02*
X2841238Y-11939952D01*
X2841238Y-11939952D02*
X2936476Y-11987571D01*
X2936476Y-11987571D02*
X2984095Y-12035190D01*
X2984095Y-12035190D02*
X3031714Y-12130428D01*
X3031714Y-12130428D02*
X3031714Y-12416142D01*
X3031714Y-12416142D02*
X2984095Y-12511380D01*
X2984095Y-12511380D02*
X2936476Y-12559000D01*
X2936476Y-12559000D02*
X2841238Y-12606619D01*
X2841238Y-12606619D02*
X2698381Y-12606619D01*
X3460286Y-11939952D02*
X3460286Y-12606619D01*
X3460286Y-12035190D02*
X3507905Y-11987571D01*
X3507905Y-11987571D02*
X3603143Y-11939952D01*
X3603143Y-11939952D02*
X3746000Y-11939952D01*
X3746000Y-11939952D02*
X3841238Y-11987571D01*
X3841238Y-11987571D02*
X3888857Y-12082809D01*
X3888857Y-12082809D02*
X3888857Y-12606619D01*
X4984096Y-11606619D02*
X5555524Y-11606619D01*
X5269810Y-12606619D02*
X5269810Y-11606619D01*
X6222191Y-12082809D02*
X5888858Y-12082809D01*
X5888858Y-12606619D02*
X5888858Y-11606619D01*
X5888858Y-11606619D02*
X6365048Y-11606619D01*
X6603144Y-11606619D02*
X7174572Y-11606619D01*
X6888858Y-12606619D02*
X6888858Y-11606619D01*
X8269811Y-12606619D02*
X8269811Y-11606619D01*
X8269811Y-11606619D02*
X8650763Y-11606619D01*
X8650763Y-11606619D02*
X8746001Y-11654238D01*
X8746001Y-11654238D02*
X8793620Y-11701857D01*
X8793620Y-11701857D02*
X8841239Y-11797095D01*
X8841239Y-11797095D02*
X8841239Y-11939952D01*
X8841239Y-11939952D02*
X8793620Y-12035190D01*
X8793620Y-12035190D02*
X8746001Y-12082809D01*
X8746001Y-12082809D02*
X8650763Y-12130428D01*
X8650763Y-12130428D02*
X8269811Y-12130428D01*
X9841239Y-12511380D02*
X9793620Y-12559000D01*
X9793620Y-12559000D02*
X9650763Y-12606619D01*
X9650763Y-12606619D02*
X9555525Y-12606619D01*
X9555525Y-12606619D02*
X9412668Y-12559000D01*
X9412668Y-12559000D02*
X9317430Y-12463761D01*
X9317430Y-12463761D02*
X9269811Y-12368523D01*
X9269811Y-12368523D02*
X9222192Y-12178047D01*
X9222192Y-12178047D02*
X9222192Y-12035190D01*
X9222192Y-12035190D02*
X9269811Y-11844714D01*
X9269811Y-11844714D02*
X9317430Y-11749476D01*
X9317430Y-11749476D02*
X9412668Y-11654238D01*
X9412668Y-11654238D02*
X9555525Y-11606619D01*
X9555525Y-11606619D02*
X9650763Y-11606619D01*
X9650763Y-11606619D02*
X9793620Y-11654238D01*
X9793620Y-11654238D02*
X9841239Y-11701857D01*
X10603144Y-12082809D02*
X10746001Y-12130428D01*
X10746001Y-12130428D02*
X10793620Y-12178047D01*
X10793620Y-12178047D02*
X10841239Y-12273285D01*
X10841239Y-12273285D02*
X10841239Y-12416142D01*
X10841239Y-12416142D02*
X10793620Y-12511380D01*
X10793620Y-12511380D02*
X10746001Y-12559000D01*
X10746001Y-12559000D02*
X10650763Y-12606619D01*
X10650763Y-12606619D02*
X10269811Y-12606619D01*
X10269811Y-12606619D02*
X10269811Y-11606619D01*
X10269811Y-11606619D02*
X10603144Y-11606619D01*
X10603144Y-11606619D02*
X10698382Y-11654238D01*
X10698382Y-11654238D02*
X10746001Y-11701857D01*
X10746001Y-11701857D02*
X10793620Y-11797095D01*
X10793620Y-11797095D02*
X10793620Y-11892333D01*
X10793620Y-11892333D02*
X10746001Y-11987571D01*
X10746001Y-11987571D02*
X10698382Y-12035190D01*
X10698382Y-12035190D02*
X10603144Y-12082809D01*
X10603144Y-12082809D02*
X10269811Y-12082809D01*
X-9182572Y-13559952D02*
X-8801620Y-13559952D01*
X-9039715Y-13226619D02*
X-9039715Y-14083761D01*
X-9039715Y-14083761D02*
X-8992096Y-14179000D01*
X-8992096Y-14179000D02*
X-8896858Y-14226619D01*
X-8896858Y-14226619D02*
X-8801620Y-14226619D01*
X-8325429Y-14226619D02*
X-8420667Y-14179000D01*
X-8420667Y-14179000D02*
X-8468286Y-14131380D01*
X-8468286Y-14131380D02*
X-8515905Y-14036142D01*
X-8515905Y-14036142D02*
X-8515905Y-13750428D01*
X-8515905Y-13750428D02*
X-8468286Y-13655190D01*
X-8468286Y-13655190D02*
X-8420667Y-13607571D01*
X-8420667Y-13607571D02*
X-8325429Y-13559952D01*
X-8325429Y-13559952D02*
X-8182572Y-13559952D01*
X-8182572Y-13559952D02*
X-8087334Y-13607571D01*
X-8087334Y-13607571D02*
X-8039715Y-13655190D01*
X-8039715Y-13655190D02*
X-7992096Y-13750428D01*
X-7992096Y-13750428D02*
X-7992096Y-14036142D01*
X-7992096Y-14036142D02*
X-8039715Y-14131380D01*
X-8039715Y-14131380D02*
X-8087334Y-14179000D01*
X-8087334Y-14179000D02*
X-8182572Y-14226619D01*
X-8182572Y-14226619D02*
X-8325429Y-14226619D01*
X-6420667Y-14179000D02*
X-6515905Y-14226619D01*
X-6515905Y-14226619D02*
X-6706381Y-14226619D01*
X-6706381Y-14226619D02*
X-6801619Y-14179000D01*
X-6801619Y-14179000D02*
X-6849238Y-14083761D01*
X-6849238Y-14083761D02*
X-6849238Y-13702809D01*
X-6849238Y-13702809D02*
X-6801619Y-13607571D01*
X-6801619Y-13607571D02*
X-6706381Y-13559952D01*
X-6706381Y-13559952D02*
X-6515905Y-13559952D01*
X-6515905Y-13559952D02*
X-6420667Y-13607571D01*
X-6420667Y-13607571D02*
X-6373048Y-13702809D01*
X-6373048Y-13702809D02*
X-6373048Y-13798047D01*
X-6373048Y-13798047D02*
X-6849238Y-13893285D01*
X-5944476Y-13559952D02*
X-5944476Y-14226619D01*
X-5944476Y-13655190D02*
X-5896857Y-13607571D01*
X-5896857Y-13607571D02*
X-5801619Y-13559952D01*
X-5801619Y-13559952D02*
X-5658762Y-13559952D01*
X-5658762Y-13559952D02*
X-5563524Y-13607571D01*
X-5563524Y-13607571D02*
X-5515905Y-13702809D01*
X-5515905Y-13702809D02*
X-5515905Y-14226619D01*
X-4611143Y-14226619D02*
X-4611143Y-13702809D01*
X-4611143Y-13702809D02*
X-4658762Y-13607571D01*
X-4658762Y-13607571D02*
X-4754000Y-13559952D01*
X-4754000Y-13559952D02*
X-4944476Y-13559952D01*
X-4944476Y-13559952D02*
X-5039714Y-13607571D01*
X-4611143Y-14179000D02*
X-4706381Y-14226619D01*
X-4706381Y-14226619D02*
X-4944476Y-14226619D01*
X-4944476Y-14226619D02*
X-5039714Y-14179000D01*
X-5039714Y-14179000D02*
X-5087333Y-14083761D01*
X-5087333Y-14083761D02*
X-5087333Y-13988523D01*
X-5087333Y-13988523D02*
X-5039714Y-13893285D01*
X-5039714Y-13893285D02*
X-4944476Y-13845666D01*
X-4944476Y-13845666D02*
X-4706381Y-13845666D01*
X-4706381Y-13845666D02*
X-4611143Y-13798047D01*
X-4134952Y-14226619D02*
X-4134952Y-13226619D01*
X-4134952Y-13607571D02*
X-4039714Y-13559952D01*
X-4039714Y-13559952D02*
X-3849238Y-13559952D01*
X-3849238Y-13559952D02*
X-3754000Y-13607571D01*
X-3754000Y-13607571D02*
X-3706381Y-13655190D01*
X-3706381Y-13655190D02*
X-3658762Y-13750428D01*
X-3658762Y-13750428D02*
X-3658762Y-14036142D01*
X-3658762Y-14036142D02*
X-3706381Y-14131380D01*
X-3706381Y-14131380D02*
X-3754000Y-14179000D01*
X-3754000Y-14179000D02*
X-3849238Y-14226619D01*
X-3849238Y-14226619D02*
X-4039714Y-14226619D01*
X-4039714Y-14226619D02*
X-4134952Y-14179000D01*
X-3087333Y-14226619D02*
X-3182571Y-14179000D01*
X-3182571Y-14179000D02*
X-3230190Y-14083761D01*
X-3230190Y-14083761D02*
X-3230190Y-13226619D01*
X-2325428Y-14179000D02*
X-2420666Y-14226619D01*
X-2420666Y-14226619D02*
X-2611142Y-14226619D01*
X-2611142Y-14226619D02*
X-2706380Y-14179000D01*
X-2706380Y-14179000D02*
X-2753999Y-14083761D01*
X-2753999Y-14083761D02*
X-2753999Y-13702809D01*
X-2753999Y-13702809D02*
X-2706380Y-13607571D01*
X-2706380Y-13607571D02*
X-2611142Y-13559952D01*
X-2611142Y-13559952D02*
X-2420666Y-13559952D01*
X-2420666Y-13559952D02*
X-2325428Y-13607571D01*
X-2325428Y-13607571D02*
X-2277809Y-13702809D01*
X-2277809Y-13702809D02*
X-2277809Y-13798047D01*
X-2277809Y-13798047D02*
X-2753999Y-13893285D01*
X-1182570Y-13226619D02*
X-563523Y-13226619D01*
X-563523Y-13226619D02*
X-896856Y-13607571D01*
X-896856Y-13607571D02*
X-753999Y-13607571D01*
X-753999Y-13607571D02*
X-658761Y-13655190D01*
X-658761Y-13655190D02*
X-611142Y-13702809D01*
X-611142Y-13702809D02*
X-563523Y-13798047D01*
X-563523Y-13798047D02*
X-563523Y-14036142D01*
X-563523Y-14036142D02*
X-611142Y-14131380D01*
X-611142Y-14131380D02*
X-658761Y-14179000D01*
X-658761Y-14179000D02*
X-753999Y-14226619D01*
X-753999Y-14226619D02*
X-1039713Y-14226619D01*
X-1039713Y-14226619D02*
X-1134951Y-14179000D01*
X-1134951Y-14179000D02*
X-1182570Y-14131380D01*
X-277808Y-13226619D02*
X55524Y-14226619D01*
X55524Y-14226619D02*
X388857Y-13226619D01*
X1626953Y-14226619D02*
X1531715Y-14179000D01*
X1531715Y-14179000D02*
X1484096Y-14131380D01*
X1484096Y-14131380D02*
X1436477Y-14036142D01*
X1436477Y-14036142D02*
X1436477Y-13750428D01*
X1436477Y-13750428D02*
X1484096Y-13655190D01*
X1484096Y-13655190D02*
X1531715Y-13607571D01*
X1531715Y-13607571D02*
X1626953Y-13559952D01*
X1626953Y-13559952D02*
X1769810Y-13559952D01*
X1769810Y-13559952D02*
X1865048Y-13607571D01*
X1865048Y-13607571D02*
X1912667Y-13655190D01*
X1912667Y-13655190D02*
X1960286Y-13750428D01*
X1960286Y-13750428D02*
X1960286Y-14036142D01*
X1960286Y-14036142D02*
X1912667Y-14131380D01*
X1912667Y-14131380D02*
X1865048Y-14179000D01*
X1865048Y-14179000D02*
X1769810Y-14226619D01*
X1769810Y-14226619D02*
X1626953Y-14226619D01*
X2388858Y-13559952D02*
X2388858Y-14559952D01*
X2388858Y-13607571D02*
X2484096Y-13559952D01*
X2484096Y-13559952D02*
X2674572Y-13559952D01*
X2674572Y-13559952D02*
X2769810Y-13607571D01*
X2769810Y-13607571D02*
X2817429Y-13655190D01*
X2817429Y-13655190D02*
X2865048Y-13750428D01*
X2865048Y-13750428D02*
X2865048Y-14036142D01*
X2865048Y-14036142D02*
X2817429Y-14131380D01*
X2817429Y-14131380D02*
X2769810Y-14179000D01*
X2769810Y-14179000D02*
X2674572Y-14226619D01*
X2674572Y-14226619D02*
X2484096Y-14226619D01*
X2484096Y-14226619D02*
X2388858Y-14179000D01*
X3674572Y-14179000D02*
X3579334Y-14226619D01*
X3579334Y-14226619D02*
X3388858Y-14226619D01*
X3388858Y-14226619D02*
X3293620Y-14179000D01*
X3293620Y-14179000D02*
X3246001Y-14083761D01*
X3246001Y-14083761D02*
X3246001Y-13702809D01*
X3246001Y-13702809D02*
X3293620Y-13607571D01*
X3293620Y-13607571D02*
X3388858Y-13559952D01*
X3388858Y-13559952D02*
X3579334Y-13559952D01*
X3579334Y-13559952D02*
X3674572Y-13607571D01*
X3674572Y-13607571D02*
X3722191Y-13702809D01*
X3722191Y-13702809D02*
X3722191Y-13798047D01*
X3722191Y-13798047D02*
X3246001Y-13893285D01*
X4150763Y-14226619D02*
X4150763Y-13559952D01*
X4150763Y-13750428D02*
X4198382Y-13655190D01*
X4198382Y-13655190D02*
X4246001Y-13607571D01*
X4246001Y-13607571D02*
X4341239Y-13559952D01*
X4341239Y-13559952D02*
X4436477Y-13559952D01*
X5198382Y-14226619D02*
X5198382Y-13702809D01*
X5198382Y-13702809D02*
X5150763Y-13607571D01*
X5150763Y-13607571D02*
X5055525Y-13559952D01*
X5055525Y-13559952D02*
X4865049Y-13559952D01*
X4865049Y-13559952D02*
X4769811Y-13607571D01*
X5198382Y-14179000D02*
X5103144Y-14226619D01*
X5103144Y-14226619D02*
X4865049Y-14226619D01*
X4865049Y-14226619D02*
X4769811Y-14179000D01*
X4769811Y-14179000D02*
X4722192Y-14083761D01*
X4722192Y-14083761D02*
X4722192Y-13988523D01*
X4722192Y-13988523D02*
X4769811Y-13893285D01*
X4769811Y-13893285D02*
X4865049Y-13845666D01*
X4865049Y-13845666D02*
X5103144Y-13845666D01*
X5103144Y-13845666D02*
X5198382Y-13798047D01*
X5531716Y-13559952D02*
X5912668Y-13559952D01*
X5674573Y-13226619D02*
X5674573Y-14083761D01*
X5674573Y-14083761D02*
X5722192Y-14179000D01*
X5722192Y-14179000D02*
X5817430Y-14226619D01*
X5817430Y-14226619D02*
X5912668Y-14226619D01*
X6246002Y-14226619D02*
X6246002Y-13559952D01*
X6246002Y-13226619D02*
X6198383Y-13274238D01*
X6198383Y-13274238D02*
X6246002Y-13321857D01*
X6246002Y-13321857D02*
X6293621Y-13274238D01*
X6293621Y-13274238D02*
X6246002Y-13226619D01*
X6246002Y-13226619D02*
X6246002Y-13321857D01*
X6865049Y-14226619D02*
X6769811Y-14179000D01*
X6769811Y-14179000D02*
X6722192Y-14131380D01*
X6722192Y-14131380D02*
X6674573Y-14036142D01*
X6674573Y-14036142D02*
X6674573Y-13750428D01*
X6674573Y-13750428D02*
X6722192Y-13655190D01*
X6722192Y-13655190D02*
X6769811Y-13607571D01*
X6769811Y-13607571D02*
X6865049Y-13559952D01*
X6865049Y-13559952D02*
X7007906Y-13559952D01*
X7007906Y-13559952D02*
X7103144Y-13607571D01*
X7103144Y-13607571D02*
X7150763Y-13655190D01*
X7150763Y-13655190D02*
X7198382Y-13750428D01*
X7198382Y-13750428D02*
X7198382Y-14036142D01*
X7198382Y-14036142D02*
X7150763Y-14131380D01*
X7150763Y-14131380D02*
X7103144Y-14179000D01*
X7103144Y-14179000D02*
X7007906Y-14226619D01*
X7007906Y-14226619D02*
X6865049Y-14226619D01*
X7626954Y-13559952D02*
X7626954Y-14226619D01*
X7626954Y-13655190D02*
X7674573Y-13607571D01*
X7674573Y-13607571D02*
X7769811Y-13559952D01*
X7769811Y-13559952D02*
X7912668Y-13559952D01*
X7912668Y-13559952D02*
X8007906Y-13607571D01*
X8007906Y-13607571D02*
X8055525Y-13702809D01*
X8055525Y-13702809D02*
X8055525Y-14226619D01*
X8531716Y-14131380D02*
X8579335Y-14179000D01*
X8579335Y-14179000D02*
X8531716Y-14226619D01*
X8531716Y-14226619D02*
X8484097Y-14179000D01*
X8484097Y-14179000D02*
X8531716Y-14131380D01*
X8531716Y-14131380D02*
X8531716Y-14226619D01*
X-39131904Y16047380D02*
X-39131904Y17047380D01*
X-39131904Y17047380D02*
X-38798571Y16333095D01*
X-38798571Y16333095D02*
X-38465238Y17047380D01*
X-38465238Y17047380D02*
X-38465238Y16047380D01*
X-37989047Y16047380D02*
X-37989047Y17047380D01*
X-37560476Y16095000D02*
X-37417619Y16047380D01*
X-37417619Y16047380D02*
X-37179524Y16047380D01*
X-37179524Y16047380D02*
X-37084286Y16095000D01*
X-37084286Y16095000D02*
X-37036667Y16142619D01*
X-37036667Y16142619D02*
X-36989048Y16237857D01*
X-36989048Y16237857D02*
X-36989048Y16333095D01*
X-36989048Y16333095D02*
X-37036667Y16428333D01*
X-37036667Y16428333D02*
X-37084286Y16475952D01*
X-37084286Y16475952D02*
X-37179524Y16523571D01*
X-37179524Y16523571D02*
X-37370000Y16571190D01*
X-37370000Y16571190D02*
X-37465238Y16618809D01*
X-37465238Y16618809D02*
X-37512857Y16666428D01*
X-37512857Y16666428D02*
X-37560476Y16761666D01*
X-37560476Y16761666D02*
X-37560476Y16856904D01*
X-37560476Y16856904D02*
X-37512857Y16952142D01*
X-37512857Y16952142D02*
X-37465238Y16999761D01*
X-37465238Y16999761D02*
X-37370000Y17047380D01*
X-37370000Y17047380D02*
X-37131905Y17047380D01*
X-37131905Y17047380D02*
X-36989048Y16999761D01*
X-36370000Y17047380D02*
X-36179524Y17047380D01*
X-36179524Y17047380D02*
X-36084286Y16999761D01*
X-36084286Y16999761D02*
X-35989048Y16904523D01*
X-35989048Y16904523D02*
X-35941429Y16714047D01*
X-35941429Y16714047D02*
X-35941429Y16380714D01*
X-35941429Y16380714D02*
X-35989048Y16190238D01*
X-35989048Y16190238D02*
X-36084286Y16095000D01*
X-36084286Y16095000D02*
X-36179524Y16047380D01*
X-36179524Y16047380D02*
X-36370000Y16047380D01*
X-36370000Y16047380D02*
X-36465238Y16095000D01*
X-36465238Y16095000D02*
X-36560476Y16190238D01*
X-36560476Y16190238D02*
X-36608095Y16380714D01*
X-36608095Y16380714D02*
X-36608095Y16714047D01*
X-36608095Y16714047D02*
X-36560476Y16904523D01*
X-36560476Y16904523D02*
X-36465238Y16999761D01*
X-36465238Y16999761D02*
X-36370000Y17047380D01*
X-39274761Y18317380D02*
X-38703333Y18317380D01*
X-38989047Y17317380D02*
X-38989047Y18317380D01*
X-38036666Y17841190D02*
X-38369999Y17841190D01*
X-38369999Y17317380D02*
X-38369999Y18317380D01*
X-38369999Y18317380D02*
X-37893809Y18317380D01*
X-37655713Y18317380D02*
X-37084285Y18317380D01*
X-37369999Y17317380D02*
X-37369999Y18317380D01*
X-36989047Y17222142D02*
X-36227142Y17222142D01*
X-35989046Y17984047D02*
X-35989046Y17317380D01*
X-35989046Y17888809D02*
X-35941427Y17936428D01*
X-35941427Y17936428D02*
X-35846189Y17984047D01*
X-35846189Y17984047D02*
X-35703332Y17984047D01*
X-35703332Y17984047D02*
X-35608094Y17936428D01*
X-35608094Y17936428D02*
X-35560475Y17841190D01*
X-35560475Y17841190D02*
X-35560475Y17317380D01*
X-34512856Y17317380D02*
X-34846189Y17793571D01*
X-35084284Y17317380D02*
X-35084284Y18317380D01*
X-35084284Y18317380D02*
X-34703332Y18317380D01*
X-34703332Y18317380D02*
X-34608094Y18269761D01*
X-34608094Y18269761D02*
X-34560475Y18222142D01*
X-34560475Y18222142D02*
X-34512856Y18126904D01*
X-34512856Y18126904D02*
X-34512856Y17984047D01*
X-34512856Y17984047D02*
X-34560475Y17888809D01*
X-34560475Y17888809D02*
X-34608094Y17841190D01*
X-34608094Y17841190D02*
X-34703332Y17793571D01*
X-34703332Y17793571D02*
X-35084284Y17793571D01*
X-34084284Y17841190D02*
X-33750951Y17841190D01*
X-33608094Y17317380D02*
X-34084284Y17317380D01*
X-34084284Y17317380D02*
X-34084284Y18317380D01*
X-34084284Y18317380D02*
X-33608094Y18317380D01*
X-33227141Y17365000D02*
X-33084284Y17317380D01*
X-33084284Y17317380D02*
X-32846189Y17317380D01*
X-32846189Y17317380D02*
X-32750951Y17365000D01*
X-32750951Y17365000D02*
X-32703332Y17412619D01*
X-32703332Y17412619D02*
X-32655713Y17507857D01*
X-32655713Y17507857D02*
X-32655713Y17603095D01*
X-32655713Y17603095D02*
X-32703332Y17698333D01*
X-32703332Y17698333D02*
X-32750951Y17745952D01*
X-32750951Y17745952D02*
X-32846189Y17793571D01*
X-32846189Y17793571D02*
X-33036665Y17841190D01*
X-33036665Y17841190D02*
X-33131903Y17888809D01*
X-33131903Y17888809D02*
X-33179522Y17936428D01*
X-33179522Y17936428D02*
X-33227141Y18031666D01*
X-33227141Y18031666D02*
X-33227141Y18126904D01*
X-33227141Y18126904D02*
X-33179522Y18222142D01*
X-33179522Y18222142D02*
X-33131903Y18269761D01*
X-33131903Y18269761D02*
X-33036665Y18317380D01*
X-33036665Y18317380D02*
X-32798570Y18317380D01*
X-32798570Y18317380D02*
X-32655713Y18269761D01*
X-32227141Y17841190D02*
X-31893808Y17841190D01*
X-31750951Y17317380D02*
X-32227141Y17317380D01*
X-32227141Y17317380D02*
X-32227141Y18317380D01*
X-32227141Y18317380D02*
X-31750951Y18317380D01*
X-31465236Y18317380D02*
X-30893808Y18317380D01*
X-31179522Y17317380D02*
X-31179522Y18317380D01*
X-7095237Y21572142D02*
X-7047618Y21619761D01*
X-7047618Y21619761D02*
X-6952380Y21667380D01*
X-6952380Y21667380D02*
X-6714285Y21667380D01*
X-6714285Y21667380D02*
X-6619047Y21619761D01*
X-6619047Y21619761D02*
X-6571428Y21572142D01*
X-6571428Y21572142D02*
X-6523809Y21476904D01*
X-6523809Y21476904D02*
X-6523809Y21381666D01*
X-6523809Y21381666D02*
X-6571428Y21238809D01*
X-6571428Y21238809D02*
X-7142856Y20667380D01*
X-7142856Y20667380D02*
X-6523809Y20667380D01*
X-5904761Y21667380D02*
X-5809523Y21667380D01*
X-5809523Y21667380D02*
X-5714285Y21619761D01*
X-5714285Y21619761D02*
X-5666666Y21572142D01*
X-5666666Y21572142D02*
X-5619047Y21476904D01*
X-5619047Y21476904D02*
X-5571428Y21286428D01*
X-5571428Y21286428D02*
X-5571428Y21048333D01*
X-5571428Y21048333D02*
X-5619047Y20857857D01*
X-5619047Y20857857D02*
X-5666666Y20762619D01*
X-5666666Y20762619D02*
X-5714285Y20715000D01*
X-5714285Y20715000D02*
X-5809523Y20667380D01*
X-5809523Y20667380D02*
X-5904761Y20667380D01*
X-5904761Y20667380D02*
X-5999999Y20715000D01*
X-5999999Y20715000D02*
X-6047618Y20762619D01*
X-6047618Y20762619D02*
X-6095237Y20857857D01*
X-6095237Y20857857D02*
X-6142856Y21048333D01*
X-6142856Y21048333D02*
X-6142856Y21286428D01*
X-6142856Y21286428D02*
X-6095237Y21476904D01*
X-6095237Y21476904D02*
X-6047618Y21572142D01*
X-6047618Y21572142D02*
X-5999999Y21619761D01*
X-5999999Y21619761D02*
X-5904761Y21667380D01*
X-5190475Y21572142D02*
X-5142856Y21619761D01*
X-5142856Y21619761D02*
X-5047618Y21667380D01*
X-5047618Y21667380D02*
X-4809523Y21667380D01*
X-4809523Y21667380D02*
X-4714285Y21619761D01*
X-4714285Y21619761D02*
X-4666666Y21572142D01*
X-4666666Y21572142D02*
X-4619047Y21476904D01*
X-4619047Y21476904D02*
X-4619047Y21381666D01*
X-4619047Y21381666D02*
X-4666666Y21238809D01*
X-4666666Y21238809D02*
X-5238094Y20667380D01*
X-5238094Y20667380D02*
X-4619047Y20667380D01*
X-4285713Y21667380D02*
X-3666666Y21667380D01*
X-3666666Y21667380D02*
X-3999999Y21286428D01*
X-3999999Y21286428D02*
X-3857142Y21286428D01*
X-3857142Y21286428D02*
X-3761904Y21238809D01*
X-3761904Y21238809D02*
X-3714285Y21191190D01*
X-3714285Y21191190D02*
X-3666666Y21095952D01*
X-3666666Y21095952D02*
X-3666666Y20857857D01*
X-3666666Y20857857D02*
X-3714285Y20762619D01*
X-3714285Y20762619D02*
X-3761904Y20715000D01*
X-3761904Y20715000D02*
X-3857142Y20667380D01*
X-3857142Y20667380D02*
X-4142856Y20667380D01*
X-4142856Y20667380D02*
X-4238094Y20715000D01*
X-4238094Y20715000D02*
X-4285713Y20762619D01*
X-3238094Y21048333D02*
X-2476190Y21048333D01*
X-1809523Y21667380D02*
X-1714285Y21667380D01*
X-1714285Y21667380D02*
X-1619047Y21619761D01*
X-1619047Y21619761D02*
X-1571428Y21572142D01*
X-1571428Y21572142D02*
X-1523809Y21476904D01*
X-1523809Y21476904D02*
X-1476190Y21286428D01*
X-1476190Y21286428D02*
X-1476190Y21048333D01*
X-1476190Y21048333D02*
X-1523809Y20857857D01*
X-1523809Y20857857D02*
X-1571428Y20762619D01*
X-1571428Y20762619D02*
X-1619047Y20715000D01*
X-1619047Y20715000D02*
X-1714285Y20667380D01*
X-1714285Y20667380D02*
X-1809523Y20667380D01*
X-1809523Y20667380D02*
X-1904761Y20715000D01*
X-1904761Y20715000D02*
X-1952380Y20762619D01*
X-1952380Y20762619D02*
X-1999999Y20857857D01*
X-1999999Y20857857D02*
X-2047618Y21048333D01*
X-2047618Y21048333D02*
X-2047618Y21286428D01*
X-2047618Y21286428D02*
X-1999999Y21476904D01*
X-1999999Y21476904D02*
X-1952380Y21572142D01*
X-1952380Y21572142D02*
X-1904761Y21619761D01*
X-1904761Y21619761D02*
X-1809523Y21667380D01*
X-619047Y21334047D02*
X-619047Y20667380D01*
X-857142Y21715000D02*
X-1095237Y21000714D01*
X-1095237Y21000714D02*
X-476190Y21000714D01*
X-95237Y21048333D02*
X666667Y21048333D01*
X1333333Y21667380D02*
X1428571Y21667380D01*
X1428571Y21667380D02*
X1523809Y21619761D01*
X1523809Y21619761D02*
X1571428Y21572142D01*
X1571428Y21572142D02*
X1619047Y21476904D01*
X1619047Y21476904D02*
X1666666Y21286428D01*
X1666666Y21286428D02*
X1666666Y21048333D01*
X1666666Y21048333D02*
X1619047Y20857857D01*
X1619047Y20857857D02*
X1571428Y20762619D01*
X1571428Y20762619D02*
X1523809Y20715000D01*
X1523809Y20715000D02*
X1428571Y20667380D01*
X1428571Y20667380D02*
X1333333Y20667380D01*
X1333333Y20667380D02*
X1238095Y20715000D01*
X1238095Y20715000D02*
X1190476Y20762619D01*
X1190476Y20762619D02*
X1142857Y20857857D01*
X1142857Y20857857D02*
X1095238Y21048333D01*
X1095238Y21048333D02*
X1095238Y21286428D01*
X1095238Y21286428D02*
X1142857Y21476904D01*
X1142857Y21476904D02*
X1190476Y21572142D01*
X1190476Y21572142D02*
X1238095Y21619761D01*
X1238095Y21619761D02*
X1333333Y21667380D01*
X2619047Y20667380D02*
X2047619Y20667380D01*
X2333333Y20667380D02*
X2333333Y21667380D01*
X2333333Y21667380D02*
X2238095Y21524523D01*
X2238095Y21524523D02*
X2142857Y21429285D01*
X2142857Y21429285D02*
X2047619Y21381666D01*
X3095238Y20715000D02*
X3095238Y20667380D01*
X3095238Y20667380D02*
X3047619Y20572142D01*
X3047619Y20572142D02*
X3000000Y20524523D01*
X4142857Y21667380D02*
X4476190Y20667380D01*
X4476190Y20667380D02*
X4809523Y21667380D01*
X5666666Y20667380D02*
X5095238Y20667380D01*
X5380952Y20667380D02*
X5380952Y21667380D01*
X5380952Y21667380D02*
X5285714Y21524523D01*
X5285714Y21524523D02*
X5190476Y21429285D01*
X5190476Y21429285D02*
X5095238Y21381666D01*
X6095238Y20762619D02*
X6142857Y20715000D01*
X6142857Y20715000D02*
X6095238Y20667380D01*
X6095238Y20667380D02*
X6047619Y20715000D01*
X6047619Y20715000D02*
X6095238Y20762619D01*
X6095238Y20762619D02*
X6095238Y20667380D01*
X6761904Y21667380D02*
X6857142Y21667380D01*
X6857142Y21667380D02*
X6952380Y21619761D01*
X6952380Y21619761D02*
X6999999Y21572142D01*
X6999999Y21572142D02*
X7047618Y21476904D01*
X7047618Y21476904D02*
X7095237Y21286428D01*
X7095237Y21286428D02*
X7095237Y21048333D01*
X7095237Y21048333D02*
X7047618Y20857857D01*
X7047618Y20857857D02*
X6999999Y20762619D01*
X6999999Y20762619D02*
X6952380Y20715000D01*
X6952380Y20715000D02*
X6857142Y20667380D01*
X6857142Y20667380D02*
X6761904Y20667380D01*
X6761904Y20667380D02*
X6666666Y20715000D01*
X6666666Y20715000D02*
X6619047Y20762619D01*
X6619047Y20762619D02*
X6571428Y20857857D01*
X6571428Y20857857D02*
X6523809Y21048333D01*
X6523809Y21048333D02*
X6523809Y21286428D01*
X6523809Y21286428D02*
X6571428Y21476904D01*
X6571428Y21476904D02*
X6619047Y21572142D01*
X6619047Y21572142D02*
X6666666Y21619761D01*
X6666666Y21619761D02*
X6761904Y21667380D01*
X-10476190Y19333095D02*
X-10000000Y19333095D01*
X-10571428Y19047380D02*
X-10238095Y20047380D01*
X-10238095Y20047380D02*
X-9904762Y19047380D01*
X-9571428Y19714047D02*
X-9571428Y18714047D01*
X-9571428Y19666428D02*
X-9476190Y19714047D01*
X-9476190Y19714047D02*
X-9285714Y19714047D01*
X-9285714Y19714047D02*
X-9190476Y19666428D01*
X-9190476Y19666428D02*
X-9142857Y19618809D01*
X-9142857Y19618809D02*
X-9095238Y19523571D01*
X-9095238Y19523571D02*
X-9095238Y19237857D01*
X-9095238Y19237857D02*
X-9142857Y19142619D01*
X-9142857Y19142619D02*
X-9190476Y19095000D01*
X-9190476Y19095000D02*
X-9285714Y19047380D01*
X-9285714Y19047380D02*
X-9476190Y19047380D01*
X-9476190Y19047380D02*
X-9571428Y19095000D01*
X-8238095Y19047380D02*
X-8238095Y19571190D01*
X-8238095Y19571190D02*
X-8285714Y19666428D01*
X-8285714Y19666428D02*
X-8380952Y19714047D01*
X-8380952Y19714047D02*
X-8571428Y19714047D01*
X-8571428Y19714047D02*
X-8666666Y19666428D01*
X-8238095Y19095000D02*
X-8333333Y19047380D01*
X-8333333Y19047380D02*
X-8571428Y19047380D01*
X-8571428Y19047380D02*
X-8666666Y19095000D01*
X-8666666Y19095000D02*
X-8714285Y19190238D01*
X-8714285Y19190238D02*
X-8714285Y19285476D01*
X-8714285Y19285476D02*
X-8666666Y19380714D01*
X-8666666Y19380714D02*
X-8571428Y19428333D01*
X-8571428Y19428333D02*
X-8333333Y19428333D01*
X-8333333Y19428333D02*
X-8238095Y19475952D01*
X-7333333Y19095000D02*
X-7428571Y19047380D01*
X-7428571Y19047380D02*
X-7619047Y19047380D01*
X-7619047Y19047380D02*
X-7714285Y19095000D01*
X-7714285Y19095000D02*
X-7761904Y19142619D01*
X-7761904Y19142619D02*
X-7809523Y19237857D01*
X-7809523Y19237857D02*
X-7809523Y19523571D01*
X-7809523Y19523571D02*
X-7761904Y19618809D01*
X-7761904Y19618809D02*
X-7714285Y19666428D01*
X-7714285Y19666428D02*
X-7619047Y19714047D01*
X-7619047Y19714047D02*
X-7428571Y19714047D01*
X-7428571Y19714047D02*
X-7333333Y19666428D01*
X-6904761Y19047380D02*
X-6904761Y20047380D01*
X-6476190Y19047380D02*
X-6476190Y19571190D01*
X-6476190Y19571190D02*
X-6523809Y19666428D01*
X-6523809Y19666428D02*
X-6619047Y19714047D01*
X-6619047Y19714047D02*
X-6761904Y19714047D01*
X-6761904Y19714047D02*
X-6857142Y19666428D01*
X-6857142Y19666428D02*
X-6904761Y19618809D01*
X-5619047Y19095000D02*
X-5714285Y19047380D01*
X-5714285Y19047380D02*
X-5904761Y19047380D01*
X-5904761Y19047380D02*
X-5999999Y19095000D01*
X-5999999Y19095000D02*
X-6047618Y19190238D01*
X-6047618Y19190238D02*
X-6047618Y19571190D01*
X-6047618Y19571190D02*
X-5999999Y19666428D01*
X-5999999Y19666428D02*
X-5904761Y19714047D01*
X-5904761Y19714047D02*
X-5714285Y19714047D01*
X-5714285Y19714047D02*
X-5619047Y19666428D01*
X-5619047Y19666428D02*
X-5571428Y19571190D01*
X-5571428Y19571190D02*
X-5571428Y19475952D01*
X-5571428Y19475952D02*
X-6047618Y19380714D01*
X-3904761Y19047380D02*
X-4380951Y19047380D01*
X-4380951Y19047380D02*
X-4380951Y20047380D01*
X-3571427Y19047380D02*
X-3571427Y19714047D01*
X-3571427Y20047380D02*
X-3619046Y19999761D01*
X-3619046Y19999761D02*
X-3571427Y19952142D01*
X-3571427Y19952142D02*
X-3523808Y19999761D01*
X-3523808Y19999761D02*
X-3571427Y20047380D01*
X-3571427Y20047380D02*
X-3571427Y19952142D01*
X-2666666Y19095000D02*
X-2761904Y19047380D01*
X-2761904Y19047380D02*
X-2952380Y19047380D01*
X-2952380Y19047380D02*
X-3047618Y19095000D01*
X-3047618Y19095000D02*
X-3095237Y19142619D01*
X-3095237Y19142619D02*
X-3142856Y19237857D01*
X-3142856Y19237857D02*
X-3142856Y19523571D01*
X-3142856Y19523571D02*
X-3095237Y19618809D01*
X-3095237Y19618809D02*
X-3047618Y19666428D01*
X-3047618Y19666428D02*
X-2952380Y19714047D01*
X-2952380Y19714047D02*
X-2761904Y19714047D01*
X-2761904Y19714047D02*
X-2666666Y19666428D01*
X-1857142Y19095000D02*
X-1952380Y19047380D01*
X-1952380Y19047380D02*
X-2142856Y19047380D01*
X-2142856Y19047380D02*
X-2238094Y19095000D01*
X-2238094Y19095000D02*
X-2285713Y19190238D01*
X-2285713Y19190238D02*
X-2285713Y19571190D01*
X-2285713Y19571190D02*
X-2238094Y19666428D01*
X-2238094Y19666428D02*
X-2142856Y19714047D01*
X-2142856Y19714047D02*
X-1952380Y19714047D01*
X-1952380Y19714047D02*
X-1857142Y19666428D01*
X-1857142Y19666428D02*
X-1809523Y19571190D01*
X-1809523Y19571190D02*
X-1809523Y19475952D01*
X-1809523Y19475952D02*
X-2285713Y19380714D01*
X-1380951Y19714047D02*
X-1380951Y19047380D01*
X-1380951Y19618809D02*
X-1333332Y19666428D01*
X-1333332Y19666428D02*
X-1238094Y19714047D01*
X-1238094Y19714047D02*
X-1095237Y19714047D01*
X-1095237Y19714047D02*
X-999999Y19666428D01*
X-999999Y19666428D02*
X-952380Y19571190D01*
X-952380Y19571190D02*
X-952380Y19047380D01*
X-523808Y19095000D02*
X-428570Y19047380D01*
X-428570Y19047380D02*
X-238094Y19047380D01*
X-238094Y19047380D02*
X-142856Y19095000D01*
X-142856Y19095000D02*
X-95237Y19190238D01*
X-95237Y19190238D02*
X-95237Y19237857D01*
X-95237Y19237857D02*
X-142856Y19333095D01*
X-142856Y19333095D02*
X-238094Y19380714D01*
X-238094Y19380714D02*
X-380951Y19380714D01*
X-380951Y19380714D02*
X-476189Y19428333D01*
X-476189Y19428333D02*
X-523808Y19523571D01*
X-523808Y19523571D02*
X-523808Y19571190D01*
X-523808Y19571190D02*
X-476189Y19666428D01*
X-476189Y19666428D02*
X-380951Y19714047D01*
X-380951Y19714047D02*
X-238094Y19714047D01*
X-238094Y19714047D02*
X-142856Y19666428D01*
X714286Y19095000D02*
X619048Y19047380D01*
X619048Y19047380D02*
X428572Y19047380D01*
X428572Y19047380D02*
X333334Y19095000D01*
X333334Y19095000D02*
X285715Y19190238D01*
X285715Y19190238D02*
X285715Y19571190D01*
X285715Y19571190D02*
X333334Y19666428D01*
X333334Y19666428D02*
X428572Y19714047D01*
X428572Y19714047D02*
X619048Y19714047D01*
X619048Y19714047D02*
X714286Y19666428D01*
X714286Y19666428D02*
X761905Y19571190D01*
X761905Y19571190D02*
X761905Y19475952D01*
X761905Y19475952D02*
X285715Y19380714D01*
X1238096Y19095000D02*
X1238096Y19047380D01*
X1238096Y19047380D02*
X1190477Y18952142D01*
X1190477Y18952142D02*
X1142858Y18904523D01*
X2333334Y19714047D02*
X2571429Y19047380D01*
X2571429Y19047380D02*
X2809524Y19714047D01*
X3571429Y19095000D02*
X3476191Y19047380D01*
X3476191Y19047380D02*
X3285715Y19047380D01*
X3285715Y19047380D02*
X3190477Y19095000D01*
X3190477Y19095000D02*
X3142858Y19190238D01*
X3142858Y19190238D02*
X3142858Y19571190D01*
X3142858Y19571190D02*
X3190477Y19666428D01*
X3190477Y19666428D02*
X3285715Y19714047D01*
X3285715Y19714047D02*
X3476191Y19714047D01*
X3476191Y19714047D02*
X3571429Y19666428D01*
X3571429Y19666428D02*
X3619048Y19571190D01*
X3619048Y19571190D02*
X3619048Y19475952D01*
X3619048Y19475952D02*
X3142858Y19380714D01*
X4047620Y19047380D02*
X4047620Y19714047D01*
X4047620Y19523571D02*
X4095239Y19618809D01*
X4095239Y19618809D02*
X4142858Y19666428D01*
X4142858Y19666428D02*
X4238096Y19714047D01*
X4238096Y19714047D02*
X4333334Y19714047D01*
X4619049Y19095000D02*
X4714287Y19047380D01*
X4714287Y19047380D02*
X4904763Y19047380D01*
X4904763Y19047380D02*
X5000001Y19095000D01*
X5000001Y19095000D02*
X5047620Y19190238D01*
X5047620Y19190238D02*
X5047620Y19237857D01*
X5047620Y19237857D02*
X5000001Y19333095D01*
X5000001Y19333095D02*
X4904763Y19380714D01*
X4904763Y19380714D02*
X4761906Y19380714D01*
X4761906Y19380714D02*
X4666668Y19428333D01*
X4666668Y19428333D02*
X4619049Y19523571D01*
X4619049Y19523571D02*
X4619049Y19571190D01*
X4619049Y19571190D02*
X4666668Y19666428D01*
X4666668Y19666428D02*
X4761906Y19714047D01*
X4761906Y19714047D02*
X4904763Y19714047D01*
X4904763Y19714047D02*
X5000001Y19666428D01*
X5476192Y19047380D02*
X5476192Y19714047D01*
X5476192Y20047380D02*
X5428573Y19999761D01*
X5428573Y19999761D02*
X5476192Y19952142D01*
X5476192Y19952142D02*
X5523811Y19999761D01*
X5523811Y19999761D02*
X5476192Y20047380D01*
X5476192Y20047380D02*
X5476192Y19952142D01*
X6095239Y19047380D02*
X6000001Y19095000D01*
X6000001Y19095000D02*
X5952382Y19142619D01*
X5952382Y19142619D02*
X5904763Y19237857D01*
X5904763Y19237857D02*
X5904763Y19523571D01*
X5904763Y19523571D02*
X5952382Y19618809D01*
X5952382Y19618809D02*
X6000001Y19666428D01*
X6000001Y19666428D02*
X6095239Y19714047D01*
X6095239Y19714047D02*
X6238096Y19714047D01*
X6238096Y19714047D02*
X6333334Y19666428D01*
X6333334Y19666428D02*
X6380953Y19618809D01*
X6380953Y19618809D02*
X6428572Y19523571D01*
X6428572Y19523571D02*
X6428572Y19237857D01*
X6428572Y19237857D02*
X6380953Y19142619D01*
X6380953Y19142619D02*
X6333334Y19095000D01*
X6333334Y19095000D02*
X6238096Y19047380D01*
X6238096Y19047380D02*
X6095239Y19047380D01*
X6857144Y19714047D02*
X6857144Y19047380D01*
X6857144Y19618809D02*
X6904763Y19666428D01*
X6904763Y19666428D02*
X7000001Y19714047D01*
X7000001Y19714047D02*
X7142858Y19714047D01*
X7142858Y19714047D02*
X7238096Y19666428D01*
X7238096Y19666428D02*
X7285715Y19571190D01*
X7285715Y19571190D02*
X7285715Y19047380D01*
X8476192Y19952142D02*
X8523811Y19999761D01*
X8523811Y19999761D02*
X8619049Y20047380D01*
X8619049Y20047380D02*
X8857144Y20047380D01*
X8857144Y20047380D02*
X8952382Y19999761D01*
X8952382Y19999761D02*
X9000001Y19952142D01*
X9000001Y19952142D02*
X9047620Y19856904D01*
X9047620Y19856904D02*
X9047620Y19761666D01*
X9047620Y19761666D02*
X9000001Y19618809D01*
X9000001Y19618809D02*
X8428573Y19047380D01*
X8428573Y19047380D02*
X9047620Y19047380D01*
X9476192Y19142619D02*
X9523811Y19095000D01*
X9523811Y19095000D02*
X9476192Y19047380D01*
X9476192Y19047380D02*
X9428573Y19095000D01*
X9428573Y19095000D02*
X9476192Y19142619D01*
X9476192Y19142619D02*
X9476192Y19047380D01*
X10142858Y20047380D02*
X10238096Y20047380D01*
X10238096Y20047380D02*
X10333334Y19999761D01*
X10333334Y19999761D02*
X10380953Y19952142D01*
X10380953Y19952142D02*
X10428572Y19856904D01*
X10428572Y19856904D02*
X10476191Y19666428D01*
X10476191Y19666428D02*
X10476191Y19428333D01*
X10476191Y19428333D02*
X10428572Y19237857D01*
X10428572Y19237857D02*
X10380953Y19142619D01*
X10380953Y19142619D02*
X10333334Y19095000D01*
X10333334Y19095000D02*
X10238096Y19047380D01*
X10238096Y19047380D02*
X10142858Y19047380D01*
X10142858Y19047380D02*
X10047620Y19095000D01*
X10047620Y19095000D02*
X10000001Y19142619D01*
X10000001Y19142619D02*
X9952382Y19237857D01*
X9952382Y19237857D02*
X9904763Y19428333D01*
X9904763Y19428333D02*
X9904763Y19666428D01*
X9904763Y19666428D02*
X9952382Y19856904D01*
X9952382Y19856904D02*
X10000001Y19952142D01*
X10000001Y19952142D02*
X10047620Y19999761D01*
X10047620Y19999761D02*
X10142858Y20047380D01*
X-39274761Y22127380D02*
X-38703333Y22127380D01*
X-38989047Y21127380D02*
X-38989047Y22127380D01*
X-38036666Y21651190D02*
X-38369999Y21651190D01*
X-38369999Y21127380D02*
X-38369999Y22127380D01*
X-38369999Y22127380D02*
X-37893809Y22127380D01*
X-37655713Y22127380D02*
X-37084285Y22127380D01*
X-37369999Y21127380D02*
X-37369999Y22127380D01*
X-36989047Y21032142D02*
X-36227142Y21032142D01*
X-35989046Y21794047D02*
X-35989046Y21127380D01*
X-35989046Y21698809D02*
X-35941427Y21746428D01*
X-35941427Y21746428D02*
X-35846189Y21794047D01*
X-35846189Y21794047D02*
X-35703332Y21794047D01*
X-35703332Y21794047D02*
X-35608094Y21746428D01*
X-35608094Y21746428D02*
X-35560475Y21651190D01*
X-35560475Y21651190D02*
X-35560475Y21127380D01*
X-34512856Y21222619D02*
X-34560475Y21175000D01*
X-34560475Y21175000D02*
X-34703332Y21127380D01*
X-34703332Y21127380D02*
X-34798570Y21127380D01*
X-34798570Y21127380D02*
X-34941427Y21175000D01*
X-34941427Y21175000D02*
X-35036665Y21270238D01*
X-35036665Y21270238D02*
X-35084284Y21365476D01*
X-35084284Y21365476D02*
X-35131903Y21555952D01*
X-35131903Y21555952D02*
X-35131903Y21698809D01*
X-35131903Y21698809D02*
X-35084284Y21889285D01*
X-35084284Y21889285D02*
X-35036665Y21984523D01*
X-35036665Y21984523D02*
X-34941427Y22079761D01*
X-34941427Y22079761D02*
X-34798570Y22127380D01*
X-34798570Y22127380D02*
X-34703332Y22127380D01*
X-34703332Y22127380D02*
X-34560475Y22079761D01*
X-34560475Y22079761D02*
X-34512856Y22032142D01*
X-34131903Y21175000D02*
X-33989046Y21127380D01*
X-33989046Y21127380D02*
X-33750951Y21127380D01*
X-33750951Y21127380D02*
X-33655713Y21175000D01*
X-33655713Y21175000D02*
X-33608094Y21222619D01*
X-33608094Y21222619D02*
X-33560475Y21317857D01*
X-33560475Y21317857D02*
X-33560475Y21413095D01*
X-33560475Y21413095D02*
X-33608094Y21508333D01*
X-33608094Y21508333D02*
X-33655713Y21555952D01*
X-33655713Y21555952D02*
X-33750951Y21603571D01*
X-33750951Y21603571D02*
X-33941427Y21651190D01*
X-33941427Y21651190D02*
X-34036665Y21698809D01*
X-34036665Y21698809D02*
X-34084284Y21746428D01*
X-34084284Y21746428D02*
X-34131903Y21841666D01*
X-34131903Y21841666D02*
X-34131903Y21936904D01*
X-34131903Y21936904D02*
X-34084284Y22032142D01*
X-34084284Y22032142D02*
X-34036665Y22079761D01*
X-34036665Y22079761D02*
X-33941427Y22127380D01*
X-33941427Y22127380D02*
X-33703332Y22127380D01*
X-33703332Y22127380D02*
X-33560475Y22079761D01*
X-24770000Y23667380D02*
X-24770000Y24667380D01*
X-24341429Y23667380D02*
X-24341429Y24191190D01*
X-24341429Y24191190D02*
X-24389048Y24286428D01*
X-24389048Y24286428D02*
X-24484286Y24334047D01*
X-24484286Y24334047D02*
X-24627143Y24334047D01*
X-24627143Y24334047D02*
X-24722381Y24286428D01*
X-24722381Y24286428D02*
X-24770000Y24238809D01*
X-24008095Y24334047D02*
X-23627143Y24334047D01*
X-23865238Y24667380D02*
X-23865238Y23810238D01*
X-23865238Y23810238D02*
X-23817619Y23715000D01*
X-23817619Y23715000D02*
X-23722381Y23667380D01*
X-23722381Y23667380D02*
X-23627143Y23667380D01*
X-23436666Y24334047D02*
X-23055714Y24334047D01*
X-23293809Y24667380D02*
X-23293809Y23810238D01*
X-23293809Y23810238D02*
X-23246190Y23715000D01*
X-23246190Y23715000D02*
X-23150952Y23667380D01*
X-23150952Y23667380D02*
X-23055714Y23667380D01*
X-22722380Y24334047D02*
X-22722380Y23334047D01*
X-22722380Y24286428D02*
X-22627142Y24334047D01*
X-22627142Y24334047D02*
X-22436666Y24334047D01*
X-22436666Y24334047D02*
X-22341428Y24286428D01*
X-22341428Y24286428D02*
X-22293809Y24238809D01*
X-22293809Y24238809D02*
X-22246190Y24143571D01*
X-22246190Y24143571D02*
X-22246190Y23857857D01*
X-22246190Y23857857D02*
X-22293809Y23762619D01*
X-22293809Y23762619D02*
X-22341428Y23715000D01*
X-22341428Y23715000D02*
X-22436666Y23667380D01*
X-22436666Y23667380D02*
X-22627142Y23667380D01*
X-22627142Y23667380D02*
X-22722380Y23715000D01*
X-21865237Y23715000D02*
X-21769999Y23667380D01*
X-21769999Y23667380D02*
X-21579523Y23667380D01*
X-21579523Y23667380D02*
X-21484285Y23715000D01*
X-21484285Y23715000D02*
X-21436666Y23810238D01*
X-21436666Y23810238D02*
X-21436666Y23857857D01*
X-21436666Y23857857D02*
X-21484285Y23953095D01*
X-21484285Y23953095D02*
X-21579523Y24000714D01*
X-21579523Y24000714D02*
X-21722380Y24000714D01*
X-21722380Y24000714D02*
X-21817618Y24048333D01*
X-21817618Y24048333D02*
X-21865237Y24143571D01*
X-21865237Y24143571D02*
X-21865237Y24191190D01*
X-21865237Y24191190D02*
X-21817618Y24286428D01*
X-21817618Y24286428D02*
X-21722380Y24334047D01*
X-21722380Y24334047D02*
X-21579523Y24334047D01*
X-21579523Y24334047D02*
X-21484285Y24286428D01*
X-21008094Y23762619D02*
X-20960475Y23715000D01*
X-20960475Y23715000D02*
X-21008094Y23667380D01*
X-21008094Y23667380D02*
X-21055713Y23715000D01*
X-21055713Y23715000D02*
X-21008094Y23762619D01*
X-21008094Y23762619D02*
X-21008094Y23667380D01*
X-21008094Y24286428D02*
X-20960475Y24238809D01*
X-20960475Y24238809D02*
X-21008094Y24191190D01*
X-21008094Y24191190D02*
X-21055713Y24238809D01*
X-21055713Y24238809D02*
X-21008094Y24286428D01*
X-21008094Y24286428D02*
X-21008094Y24191190D01*
X-19817619Y24715000D02*
X-20674761Y23429285D01*
X-18770000Y24715000D02*
X-19627142Y23429285D01*
X-18008095Y24334047D02*
X-18008095Y23524523D01*
X-18008095Y23524523D02*
X-18055714Y23429285D01*
X-18055714Y23429285D02*
X-18103333Y23381666D01*
X-18103333Y23381666D02*
X-18198571Y23334047D01*
X-18198571Y23334047D02*
X-18341428Y23334047D01*
X-18341428Y23334047D02*
X-18436666Y23381666D01*
X-18008095Y23715000D02*
X-18103333Y23667380D01*
X-18103333Y23667380D02*
X-18293809Y23667380D01*
X-18293809Y23667380D02*
X-18389047Y23715000D01*
X-18389047Y23715000D02*
X-18436666Y23762619D01*
X-18436666Y23762619D02*
X-18484285Y23857857D01*
X-18484285Y23857857D02*
X-18484285Y24143571D01*
X-18484285Y24143571D02*
X-18436666Y24238809D01*
X-18436666Y24238809D02*
X-18389047Y24286428D01*
X-18389047Y24286428D02*
X-18293809Y24334047D01*
X-18293809Y24334047D02*
X-18103333Y24334047D01*
X-18103333Y24334047D02*
X-18008095Y24286428D01*
X-17531904Y23667380D02*
X-17531904Y24334047D01*
X-17531904Y24667380D02*
X-17579523Y24619761D01*
X-17579523Y24619761D02*
X-17531904Y24572142D01*
X-17531904Y24572142D02*
X-17484285Y24619761D01*
X-17484285Y24619761D02*
X-17531904Y24667380D01*
X-17531904Y24667380D02*
X-17531904Y24572142D01*
X-17198571Y24334047D02*
X-16817619Y24334047D01*
X-17055714Y24667380D02*
X-17055714Y23810238D01*
X-17055714Y23810238D02*
X-17008095Y23715000D01*
X-17008095Y23715000D02*
X-16912857Y23667380D01*
X-16912857Y23667380D02*
X-16817619Y23667380D01*
X-16484285Y23667380D02*
X-16484285Y24667380D01*
X-16055714Y23667380D02*
X-16055714Y24191190D01*
X-16055714Y24191190D02*
X-16103333Y24286428D01*
X-16103333Y24286428D02*
X-16198571Y24334047D01*
X-16198571Y24334047D02*
X-16341428Y24334047D01*
X-16341428Y24334047D02*
X-16436666Y24286428D01*
X-16436666Y24286428D02*
X-16484285Y24238809D01*
X-15150952Y24334047D02*
X-15150952Y23667380D01*
X-15579523Y24334047D02*
X-15579523Y23810238D01*
X-15579523Y23810238D02*
X-15531904Y23715000D01*
X-15531904Y23715000D02*
X-15436666Y23667380D01*
X-15436666Y23667380D02*
X-15293809Y23667380D01*
X-15293809Y23667380D02*
X-15198571Y23715000D01*
X-15198571Y23715000D02*
X-15150952Y23762619D01*
X-14674761Y23667380D02*
X-14674761Y24667380D01*
X-14674761Y24286428D02*
X-14579523Y24334047D01*
X-14579523Y24334047D02*
X-14389047Y24334047D01*
X-14389047Y24334047D02*
X-14293809Y24286428D01*
X-14293809Y24286428D02*
X-14246190Y24238809D01*
X-14246190Y24238809D02*
X-14198571Y24143571D01*
X-14198571Y24143571D02*
X-14198571Y23857857D01*
X-14198571Y23857857D02*
X-14246190Y23762619D01*
X-14246190Y23762619D02*
X-14293809Y23715000D01*
X-14293809Y23715000D02*
X-14389047Y23667380D01*
X-14389047Y23667380D02*
X-14579523Y23667380D01*
X-14579523Y23667380D02*
X-14674761Y23715000D01*
X-13769999Y23762619D02*
X-13722380Y23715000D01*
X-13722380Y23715000D02*
X-13769999Y23667380D01*
X-13769999Y23667380D02*
X-13817618Y23715000D01*
X-13817618Y23715000D02*
X-13769999Y23762619D01*
X-13769999Y23762619D02*
X-13769999Y23667380D01*
X-12865238Y23715000D02*
X-12960476Y23667380D01*
X-12960476Y23667380D02*
X-13150952Y23667380D01*
X-13150952Y23667380D02*
X-13246190Y23715000D01*
X-13246190Y23715000D02*
X-13293809Y23762619D01*
X-13293809Y23762619D02*
X-13341428Y23857857D01*
X-13341428Y23857857D02*
X-13341428Y24143571D01*
X-13341428Y24143571D02*
X-13293809Y24238809D01*
X-13293809Y24238809D02*
X-13246190Y24286428D01*
X-13246190Y24286428D02*
X-13150952Y24334047D01*
X-13150952Y24334047D02*
X-12960476Y24334047D01*
X-12960476Y24334047D02*
X-12865238Y24286428D01*
X-12293809Y23667380D02*
X-12389047Y23715000D01*
X-12389047Y23715000D02*
X-12436666Y23762619D01*
X-12436666Y23762619D02*
X-12484285Y23857857D01*
X-12484285Y23857857D02*
X-12484285Y24143571D01*
X-12484285Y24143571D02*
X-12436666Y24238809D01*
X-12436666Y24238809D02*
X-12389047Y24286428D01*
X-12389047Y24286428D02*
X-12293809Y24334047D01*
X-12293809Y24334047D02*
X-12150952Y24334047D01*
X-12150952Y24334047D02*
X-12055714Y24286428D01*
X-12055714Y24286428D02*
X-12008095Y24238809D01*
X-12008095Y24238809D02*
X-11960476Y24143571D01*
X-11960476Y24143571D02*
X-11960476Y23857857D01*
X-11960476Y23857857D02*
X-12008095Y23762619D01*
X-12008095Y23762619D02*
X-12055714Y23715000D01*
X-12055714Y23715000D02*
X-12150952Y23667380D01*
X-12150952Y23667380D02*
X-12293809Y23667380D01*
X-11531904Y23667380D02*
X-11531904Y24334047D01*
X-11531904Y24238809D02*
X-11484285Y24286428D01*
X-11484285Y24286428D02*
X-11389047Y24334047D01*
X-11389047Y24334047D02*
X-11246190Y24334047D01*
X-11246190Y24334047D02*
X-11150952Y24286428D01*
X-11150952Y24286428D02*
X-11103333Y24191190D01*
X-11103333Y24191190D02*
X-11103333Y23667380D01*
X-11103333Y24191190D02*
X-11055714Y24286428D01*
X-11055714Y24286428D02*
X-10960476Y24334047D01*
X-10960476Y24334047D02*
X-10817619Y24334047D01*
X-10817619Y24334047D02*
X-10722380Y24286428D01*
X-10722380Y24286428D02*
X-10674761Y24191190D01*
X-10674761Y24191190D02*
X-10674761Y23667380D01*
X-9484286Y24715000D02*
X-10341428Y23429285D01*
X-8722381Y23667380D02*
X-8722381Y24191190D01*
X-8722381Y24191190D02*
X-8770000Y24286428D01*
X-8770000Y24286428D02*
X-8865238Y24334047D01*
X-8865238Y24334047D02*
X-9055714Y24334047D01*
X-9055714Y24334047D02*
X-9150952Y24286428D01*
X-8722381Y23715000D02*
X-8817619Y23667380D01*
X-8817619Y23667380D02*
X-9055714Y23667380D01*
X-9055714Y23667380D02*
X-9150952Y23715000D01*
X-9150952Y23715000D02*
X-9198571Y23810238D01*
X-9198571Y23810238D02*
X-9198571Y23905476D01*
X-9198571Y23905476D02*
X-9150952Y24000714D01*
X-9150952Y24000714D02*
X-9055714Y24048333D01*
X-9055714Y24048333D02*
X-8817619Y24048333D01*
X-8817619Y24048333D02*
X-8722381Y24095952D01*
X-8389047Y24334047D02*
X-8008095Y24334047D01*
X-8246190Y24667380D02*
X-8246190Y23810238D01*
X-8246190Y23810238D02*
X-8198571Y23715000D01*
X-8198571Y23715000D02*
X-8103333Y23667380D01*
X-8103333Y23667380D02*
X-8008095Y23667380D01*
X-7531904Y23667380D02*
X-7627142Y23715000D01*
X-7627142Y23715000D02*
X-7674761Y23762619D01*
X-7674761Y23762619D02*
X-7722380Y23857857D01*
X-7722380Y23857857D02*
X-7722380Y24143571D01*
X-7722380Y24143571D02*
X-7674761Y24238809D01*
X-7674761Y24238809D02*
X-7627142Y24286428D01*
X-7627142Y24286428D02*
X-7531904Y24334047D01*
X-7531904Y24334047D02*
X-7389047Y24334047D01*
X-7389047Y24334047D02*
X-7293809Y24286428D01*
X-7293809Y24286428D02*
X-7246190Y24238809D01*
X-7246190Y24238809D02*
X-7198571Y24143571D01*
X-7198571Y24143571D02*
X-7198571Y23857857D01*
X-7198571Y23857857D02*
X-7246190Y23762619D01*
X-7246190Y23762619D02*
X-7293809Y23715000D01*
X-7293809Y23715000D02*
X-7389047Y23667380D01*
X-7389047Y23667380D02*
X-7531904Y23667380D01*
X-6627142Y23667380D02*
X-6722380Y23715000D01*
X-6722380Y23715000D02*
X-6769999Y23762619D01*
X-6769999Y23762619D02*
X-6817618Y23857857D01*
X-6817618Y23857857D02*
X-6817618Y24143571D01*
X-6817618Y24143571D02*
X-6769999Y24238809D01*
X-6769999Y24238809D02*
X-6722380Y24286428D01*
X-6722380Y24286428D02*
X-6627142Y24334047D01*
X-6627142Y24334047D02*
X-6484285Y24334047D01*
X-6484285Y24334047D02*
X-6389047Y24286428D01*
X-6389047Y24286428D02*
X-6341428Y24238809D01*
X-6341428Y24238809D02*
X-6293809Y24143571D01*
X-6293809Y24143571D02*
X-6293809Y23857857D01*
X-6293809Y23857857D02*
X-6341428Y23762619D01*
X-6341428Y23762619D02*
X-6389047Y23715000D01*
X-6389047Y23715000D02*
X-6484285Y23667380D01*
X-6484285Y23667380D02*
X-6627142Y23667380D01*
X-5865237Y23667380D02*
X-5865237Y24334047D01*
X-5865237Y24238809D02*
X-5817618Y24286428D01*
X-5817618Y24286428D02*
X-5722380Y24334047D01*
X-5722380Y24334047D02*
X-5579523Y24334047D01*
X-5579523Y24334047D02*
X-5484285Y24286428D01*
X-5484285Y24286428D02*
X-5436666Y24191190D01*
X-5436666Y24191190D02*
X-5436666Y23667380D01*
X-5436666Y24191190D02*
X-5389047Y24286428D01*
X-5389047Y24286428D02*
X-5293809Y24334047D01*
X-5293809Y24334047D02*
X-5150952Y24334047D01*
X-5150952Y24334047D02*
X-5055713Y24286428D01*
X-5055713Y24286428D02*
X-5008094Y24191190D01*
X-5008094Y24191190D02*
X-5008094Y23667380D01*
X-4531904Y24334047D02*
X-4531904Y23667380D01*
X-4531904Y24238809D02*
X-4484285Y24286428D01*
X-4484285Y24286428D02*
X-4389047Y24334047D01*
X-4389047Y24334047D02*
X-4246190Y24334047D01*
X-4246190Y24334047D02*
X-4150952Y24286428D01*
X-4150952Y24286428D02*
X-4103333Y24191190D01*
X-4103333Y24191190D02*
X-4103333Y23667380D01*
X-3246190Y23715000D02*
X-3341428Y23667380D01*
X-3341428Y23667380D02*
X-3531904Y23667380D01*
X-3531904Y23667380D02*
X-3627142Y23715000D01*
X-3627142Y23715000D02*
X-3674761Y23810238D01*
X-3674761Y23810238D02*
X-3674761Y24191190D01*
X-3674761Y24191190D02*
X-3627142Y24286428D01*
X-3627142Y24286428D02*
X-3531904Y24334047D01*
X-3531904Y24334047D02*
X-3341428Y24334047D01*
X-3341428Y24334047D02*
X-3246190Y24286428D01*
X-3246190Y24286428D02*
X-3198571Y24191190D01*
X-3198571Y24191190D02*
X-3198571Y24095952D01*
X-3198571Y24095952D02*
X-3674761Y24000714D01*
X-2912856Y24334047D02*
X-2531904Y24334047D01*
X-2769999Y24667380D02*
X-2769999Y23810238D01*
X-2769999Y23810238D02*
X-2722380Y23715000D01*
X-2722380Y23715000D02*
X-2627142Y23667380D01*
X-2627142Y23667380D02*
X-2531904Y23667380D01*
X-2198570Y23667380D02*
X-2198570Y24334047D01*
X-2198570Y24238809D02*
X-2150951Y24286428D01*
X-2150951Y24286428D02*
X-2055713Y24334047D01*
X-2055713Y24334047D02*
X-1912856Y24334047D01*
X-1912856Y24334047D02*
X-1817618Y24286428D01*
X-1817618Y24286428D02*
X-1769999Y24191190D01*
X-1769999Y24191190D02*
X-1769999Y23667380D01*
X-1769999Y24191190D02*
X-1722380Y24286428D01*
X-1722380Y24286428D02*
X-1627142Y24334047D01*
X-1627142Y24334047D02*
X-1484285Y24334047D01*
X-1484285Y24334047D02*
X-1389046Y24286428D01*
X-1389046Y24286428D02*
X-1341427Y24191190D01*
X-1341427Y24191190D02*
X-1341427Y23667380D01*
X-436666Y23667380D02*
X-436666Y24191190D01*
X-436666Y24191190D02*
X-484285Y24286428D01*
X-484285Y24286428D02*
X-579523Y24334047D01*
X-579523Y24334047D02*
X-769999Y24334047D01*
X-769999Y24334047D02*
X-865237Y24286428D01*
X-436666Y23715000D02*
X-531904Y23667380D01*
X-531904Y23667380D02*
X-769999Y23667380D01*
X-769999Y23667380D02*
X-865237Y23715000D01*
X-865237Y23715000D02*
X-912856Y23810238D01*
X-912856Y23810238D02*
X-912856Y23905476D01*
X-912856Y23905476D02*
X-865237Y24000714D01*
X-865237Y24000714D02*
X-769999Y24048333D01*
X-769999Y24048333D02*
X-531904Y24048333D01*
X-531904Y24048333D02*
X-436666Y24095952D01*
X39524Y23667380D02*
X39524Y24334047D01*
X39524Y24143571D02*
X87143Y24238809D01*
X87143Y24238809D02*
X134762Y24286428D01*
X134762Y24286428D02*
X230000Y24334047D01*
X230000Y24334047D02*
X325238Y24334047D01*
X1087143Y23715000D02*
X991905Y23667380D01*
X991905Y23667380D02*
X801429Y23667380D01*
X801429Y23667380D02*
X706191Y23715000D01*
X706191Y23715000D02*
X658572Y23762619D01*
X658572Y23762619D02*
X610953Y23857857D01*
X610953Y23857857D02*
X610953Y24143571D01*
X610953Y24143571D02*
X658572Y24238809D01*
X658572Y24238809D02*
X706191Y24286428D01*
X706191Y24286428D02*
X801429Y24334047D01*
X801429Y24334047D02*
X991905Y24334047D01*
X991905Y24334047D02*
X1087143Y24286428D01*
X2230000Y24715000D02*
X1372858Y23429285D01*
X2563334Y23667380D02*
X2563334Y24667380D01*
X2563334Y24667380D02*
X2944286Y24667380D01*
X2944286Y24667380D02*
X3039524Y24619761D01*
X3039524Y24619761D02*
X3087143Y24572142D01*
X3087143Y24572142D02*
X3134762Y24476904D01*
X3134762Y24476904D02*
X3134762Y24334047D01*
X3134762Y24334047D02*
X3087143Y24238809D01*
X3087143Y24238809D02*
X3039524Y24191190D01*
X3039524Y24191190D02*
X2944286Y24143571D01*
X2944286Y24143571D02*
X2563334Y24143571D01*
X3563334Y23667380D02*
X3563334Y24667380D01*
X3563334Y24667380D02*
X3896667Y23953095D01*
X3896667Y23953095D02*
X4230000Y24667380D01*
X4230000Y24667380D02*
X4230000Y23667380D01*
X4896667Y24667380D02*
X5087143Y24667380D01*
X5087143Y24667380D02*
X5182381Y24619761D01*
X5182381Y24619761D02*
X5277619Y24524523D01*
X5277619Y24524523D02*
X5325238Y24334047D01*
X5325238Y24334047D02*
X5325238Y24000714D01*
X5325238Y24000714D02*
X5277619Y23810238D01*
X5277619Y23810238D02*
X5182381Y23715000D01*
X5182381Y23715000D02*
X5087143Y23667380D01*
X5087143Y23667380D02*
X4896667Y23667380D01*
X4896667Y23667380D02*
X4801429Y23715000D01*
X4801429Y23715000D02*
X4706191Y23810238D01*
X4706191Y23810238D02*
X4658572Y24000714D01*
X4658572Y24000714D02*
X4658572Y24334047D01*
X4658572Y24334047D02*
X4706191Y24524523D01*
X4706191Y24524523D02*
X4801429Y24619761D01*
X4801429Y24619761D02*
X4896667Y24667380D01*
X5753810Y23667380D02*
X5753810Y24667380D01*
X5753810Y24667380D02*
X5991905Y24667380D01*
X5991905Y24667380D02*
X6134762Y24619761D01*
X6134762Y24619761D02*
X6230000Y24524523D01*
X6230000Y24524523D02*
X6277619Y24429285D01*
X6277619Y24429285D02*
X6325238Y24238809D01*
X6325238Y24238809D02*
X6325238Y24095952D01*
X6325238Y24095952D02*
X6277619Y23905476D01*
X6277619Y23905476D02*
X6230000Y23810238D01*
X6230000Y23810238D02*
X6134762Y23715000D01*
X6134762Y23715000D02*
X5991905Y23667380D01*
X5991905Y23667380D02*
X5753810Y23667380D01*
X6753810Y24048333D02*
X7515715Y24048333D01*
X8372857Y23715000D02*
X8277619Y23667380D01*
X8277619Y23667380D02*
X8087143Y23667380D01*
X8087143Y23667380D02*
X7991905Y23715000D01*
X7991905Y23715000D02*
X7944286Y23810238D01*
X7944286Y23810238D02*
X7944286Y24191190D01*
X7944286Y24191190D02*
X7991905Y24286428D01*
X7991905Y24286428D02*
X8087143Y24334047D01*
X8087143Y24334047D02*
X8277619Y24334047D01*
X8277619Y24334047D02*
X8372857Y24286428D01*
X8372857Y24286428D02*
X8420476Y24191190D01*
X8420476Y24191190D02*
X8420476Y24095952D01*
X8420476Y24095952D02*
X7944286Y24000714D01*
X8753810Y23667380D02*
X9277619Y24334047D01*
X8753810Y24334047D02*
X9277619Y23667380D01*
X9515715Y24334047D02*
X9896667Y24334047D01*
X9658572Y24667380D02*
X9658572Y23810238D01*
X9658572Y23810238D02*
X9706191Y23715000D01*
X9706191Y23715000D02*
X9801429Y23667380D01*
X9801429Y23667380D02*
X9896667Y23667380D01*
X10610953Y23715000D02*
X10515715Y23667380D01*
X10515715Y23667380D02*
X10325239Y23667380D01*
X10325239Y23667380D02*
X10230001Y23715000D01*
X10230001Y23715000D02*
X10182382Y23810238D01*
X10182382Y23810238D02*
X10182382Y24191190D01*
X10182382Y24191190D02*
X10230001Y24286428D01*
X10230001Y24286428D02*
X10325239Y24334047D01*
X10325239Y24334047D02*
X10515715Y24334047D01*
X10515715Y24334047D02*
X10610953Y24286428D01*
X10610953Y24286428D02*
X10658572Y24191190D01*
X10658572Y24191190D02*
X10658572Y24095952D01*
X10658572Y24095952D02*
X10182382Y24000714D01*
X11087144Y24334047D02*
X11087144Y23667380D01*
X11087144Y24238809D02*
X11134763Y24286428D01*
X11134763Y24286428D02*
X11230001Y24334047D01*
X11230001Y24334047D02*
X11372858Y24334047D01*
X11372858Y24334047D02*
X11468096Y24286428D01*
X11468096Y24286428D02*
X11515715Y24191190D01*
X11515715Y24191190D02*
X11515715Y23667380D01*
X12420477Y23667380D02*
X12420477Y24667380D01*
X12420477Y23715000D02*
X12325239Y23667380D01*
X12325239Y23667380D02*
X12134763Y23667380D01*
X12134763Y23667380D02*
X12039525Y23715000D01*
X12039525Y23715000D02*
X11991906Y23762619D01*
X11991906Y23762619D02*
X11944287Y23857857D01*
X11944287Y23857857D02*
X11944287Y24143571D01*
X11944287Y24143571D02*
X11991906Y24238809D01*
X11991906Y24238809D02*
X12039525Y24286428D01*
X12039525Y24286428D02*
X12134763Y24334047D01*
X12134763Y24334047D02*
X12325239Y24334047D01*
X12325239Y24334047D02*
X12420477Y24286428D01*
X13277620Y23715000D02*
X13182382Y23667380D01*
X13182382Y23667380D02*
X12991906Y23667380D01*
X12991906Y23667380D02*
X12896668Y23715000D01*
X12896668Y23715000D02*
X12849049Y23810238D01*
X12849049Y23810238D02*
X12849049Y24191190D01*
X12849049Y24191190D02*
X12896668Y24286428D01*
X12896668Y24286428D02*
X12991906Y24334047D01*
X12991906Y24334047D02*
X13182382Y24334047D01*
X13182382Y24334047D02*
X13277620Y24286428D01*
X13277620Y24286428D02*
X13325239Y24191190D01*
X13325239Y24191190D02*
X13325239Y24095952D01*
X13325239Y24095952D02*
X12849049Y24000714D01*
X14182382Y23667380D02*
X14182382Y24667380D01*
X14182382Y23715000D02*
X14087144Y23667380D01*
X14087144Y23667380D02*
X13896668Y23667380D01*
X13896668Y23667380D02*
X13801430Y23715000D01*
X13801430Y23715000D02*
X13753811Y23762619D01*
X13753811Y23762619D02*
X13706192Y23857857D01*
X13706192Y23857857D02*
X13706192Y24143571D01*
X13706192Y24143571D02*
X13753811Y24238809D01*
X13753811Y24238809D02*
X13801430Y24286428D01*
X13801430Y24286428D02*
X13896668Y24334047D01*
X13896668Y24334047D02*
X14087144Y24334047D01*
X14087144Y24334047D02*
X14182382Y24286428D01*
X14658573Y24048333D02*
X15420478Y24048333D01*
X15849049Y23715000D02*
X15991906Y23667380D01*
X15991906Y23667380D02*
X16230001Y23667380D01*
X16230001Y23667380D02*
X16325239Y23715000D01*
X16325239Y23715000D02*
X16372858Y23762619D01*
X16372858Y23762619D02*
X16420477Y23857857D01*
X16420477Y23857857D02*
X16420477Y23953095D01*
X16420477Y23953095D02*
X16372858Y24048333D01*
X16372858Y24048333D02*
X16325239Y24095952D01*
X16325239Y24095952D02*
X16230001Y24143571D01*
X16230001Y24143571D02*
X16039525Y24191190D01*
X16039525Y24191190D02*
X15944287Y24238809D01*
X15944287Y24238809D02*
X15896668Y24286428D01*
X15896668Y24286428D02*
X15849049Y24381666D01*
X15849049Y24381666D02*
X15849049Y24476904D01*
X15849049Y24476904D02*
X15896668Y24572142D01*
X15896668Y24572142D02*
X15944287Y24619761D01*
X15944287Y24619761D02*
X16039525Y24667380D01*
X16039525Y24667380D02*
X16277620Y24667380D01*
X16277620Y24667380D02*
X16420477Y24619761D01*
X16849049Y23667380D02*
X16849049Y24667380D01*
X16849049Y24667380D02*
X17230001Y24667380D01*
X17230001Y24667380D02*
X17325239Y24619761D01*
X17325239Y24619761D02*
X17372858Y24572142D01*
X17372858Y24572142D02*
X17420477Y24476904D01*
X17420477Y24476904D02*
X17420477Y24334047D01*
X17420477Y24334047D02*
X17372858Y24238809D01*
X17372858Y24238809D02*
X17325239Y24191190D01*
X17325239Y24191190D02*
X17230001Y24143571D01*
X17230001Y24143571D02*
X16849049Y24143571D01*
X17849049Y23667380D02*
X17849049Y24667380D01*
X18325239Y24048333D02*
X19087144Y24048333D01*
X19420477Y24667380D02*
X19991905Y24667380D01*
X19706191Y23667380D02*
X19706191Y24667380D01*
X20658572Y24191190D02*
X20325239Y24191190D01*
X20325239Y23667380D02*
X20325239Y24667380D01*
X20325239Y24667380D02*
X20801429Y24667380D01*
X21039525Y24667380D02*
X21610953Y24667380D01*
X21325239Y23667380D02*
X21325239Y24667380D01*
X-39227142Y9427380D02*
X-38608095Y9427380D01*
X-38608095Y9427380D02*
X-38941428Y9046428D01*
X-38941428Y9046428D02*
X-38798571Y9046428D01*
X-38798571Y9046428D02*
X-38703333Y8998809D01*
X-38703333Y8998809D02*
X-38655714Y8951190D01*
X-38655714Y8951190D02*
X-38608095Y8855952D01*
X-38608095Y8855952D02*
X-38608095Y8617857D01*
X-38608095Y8617857D02*
X-38655714Y8522619D01*
X-38655714Y8522619D02*
X-38703333Y8475000D01*
X-38703333Y8475000D02*
X-38798571Y8427380D01*
X-38798571Y8427380D02*
X-39084285Y8427380D01*
X-39084285Y8427380D02*
X-39179523Y8475000D01*
X-39179523Y8475000D02*
X-39227142Y8522619D01*
X-38322380Y9427380D02*
X-37989047Y8427380D01*
X-37989047Y8427380D02*
X-37655714Y9427380D01*
X-37417618Y9427380D02*
X-36798571Y9427380D01*
X-36798571Y9427380D02*
X-37131904Y9046428D01*
X-37131904Y9046428D02*
X-36989047Y9046428D01*
X-36989047Y9046428D02*
X-36893809Y8998809D01*
X-36893809Y8998809D02*
X-36846190Y8951190D01*
X-36846190Y8951190D02*
X-36798571Y8855952D01*
X-36798571Y8855952D02*
X-36798571Y8617857D01*
X-36798571Y8617857D02*
X-36846190Y8522619D01*
X-36846190Y8522619D02*
X-36893809Y8475000D01*
X-36893809Y8475000D02*
X-36989047Y8427380D01*
X-36989047Y8427380D02*
X-37274761Y8427380D01*
X-37274761Y8427380D02*
X-37369999Y8475000D01*
X-37369999Y8475000D02*
X-37417618Y8522619D01*
X-39179523Y13555000D02*
X-39036666Y13507380D01*
X-39036666Y13507380D02*
X-38798571Y13507380D01*
X-38798571Y13507380D02*
X-38703333Y13555000D01*
X-38703333Y13555000D02*
X-38655714Y13602619D01*
X-38655714Y13602619D02*
X-38608095Y13697857D01*
X-38608095Y13697857D02*
X-38608095Y13793095D01*
X-38608095Y13793095D02*
X-38655714Y13888333D01*
X-38655714Y13888333D02*
X-38703333Y13935952D01*
X-38703333Y13935952D02*
X-38798571Y13983571D01*
X-38798571Y13983571D02*
X-38989047Y14031190D01*
X-38989047Y14031190D02*
X-39084285Y14078809D01*
X-39084285Y14078809D02*
X-39131904Y14126428D01*
X-39131904Y14126428D02*
X-39179523Y14221666D01*
X-39179523Y14221666D02*
X-39179523Y14316904D01*
X-39179523Y14316904D02*
X-39131904Y14412142D01*
X-39131904Y14412142D02*
X-39084285Y14459761D01*
X-39084285Y14459761D02*
X-38989047Y14507380D01*
X-38989047Y14507380D02*
X-38750952Y14507380D01*
X-38750952Y14507380D02*
X-38608095Y14459761D01*
X-37608095Y13602619D02*
X-37655714Y13555000D01*
X-37655714Y13555000D02*
X-37798571Y13507380D01*
X-37798571Y13507380D02*
X-37893809Y13507380D01*
X-37893809Y13507380D02*
X-38036666Y13555000D01*
X-38036666Y13555000D02*
X-38131904Y13650238D01*
X-38131904Y13650238D02*
X-38179523Y13745476D01*
X-38179523Y13745476D02*
X-38227142Y13935952D01*
X-38227142Y13935952D02*
X-38227142Y14078809D01*
X-38227142Y14078809D02*
X-38179523Y14269285D01*
X-38179523Y14269285D02*
X-38131904Y14364523D01*
X-38131904Y14364523D02*
X-38036666Y14459761D01*
X-38036666Y14459761D02*
X-37893809Y14507380D01*
X-37893809Y14507380D02*
X-37798571Y14507380D01*
X-37798571Y14507380D02*
X-37655714Y14459761D01*
X-37655714Y14459761D02*
X-37608095Y14412142D01*
X-37179523Y13507380D02*
X-37179523Y14507380D01*
X-36608095Y13507380D02*
X-37036666Y14078809D01*
X-36608095Y14507380D02*
X-37179523Y13935952D01*
X-39179523Y14825000D02*
X-39036666Y14777380D01*
X-39036666Y14777380D02*
X-38798571Y14777380D01*
X-38798571Y14777380D02*
X-38703333Y14825000D01*
X-38703333Y14825000D02*
X-38655714Y14872619D01*
X-38655714Y14872619D02*
X-38608095Y14967857D01*
X-38608095Y14967857D02*
X-38608095Y15063095D01*
X-38608095Y15063095D02*
X-38655714Y15158333D01*
X-38655714Y15158333D02*
X-38703333Y15205952D01*
X-38703333Y15205952D02*
X-38798571Y15253571D01*
X-38798571Y15253571D02*
X-38989047Y15301190D01*
X-38989047Y15301190D02*
X-39084285Y15348809D01*
X-39084285Y15348809D02*
X-39131904Y15396428D01*
X-39131904Y15396428D02*
X-39179523Y15491666D01*
X-39179523Y15491666D02*
X-39179523Y15586904D01*
X-39179523Y15586904D02*
X-39131904Y15682142D01*
X-39131904Y15682142D02*
X-39084285Y15729761D01*
X-39084285Y15729761D02*
X-38989047Y15777380D01*
X-38989047Y15777380D02*
X-38750952Y15777380D01*
X-38750952Y15777380D02*
X-38608095Y15729761D01*
X-38179523Y14777380D02*
X-38179523Y15777380D01*
X-38179523Y15777380D02*
X-37941428Y15777380D01*
X-37941428Y15777380D02*
X-37798571Y15729761D01*
X-37798571Y15729761D02*
X-37703333Y15634523D01*
X-37703333Y15634523D02*
X-37655714Y15539285D01*
X-37655714Y15539285D02*
X-37608095Y15348809D01*
X-37608095Y15348809D02*
X-37608095Y15205952D01*
X-37608095Y15205952D02*
X-37655714Y15015476D01*
X-37655714Y15015476D02*
X-37703333Y14920238D01*
X-37703333Y14920238D02*
X-37798571Y14825000D01*
X-37798571Y14825000D02*
X-37941428Y14777380D01*
X-37941428Y14777380D02*
X-38179523Y14777380D01*
X-37417619Y14682142D02*
X-36655714Y14682142D01*
X-36417618Y15444047D02*
X-36417618Y14777380D01*
X-36417618Y15348809D02*
X-36369999Y15396428D01*
X-36369999Y15396428D02*
X-36274761Y15444047D01*
X-36274761Y15444047D02*
X-36131904Y15444047D01*
X-36131904Y15444047D02*
X-36036666Y15396428D01*
X-36036666Y15396428D02*
X-35989047Y15301190D01*
X-35989047Y15301190D02*
X-35989047Y14777380D01*
X-34941428Y14872619D02*
X-34989047Y14825000D01*
X-34989047Y14825000D02*
X-35131904Y14777380D01*
X-35131904Y14777380D02*
X-35227142Y14777380D01*
X-35227142Y14777380D02*
X-35369999Y14825000D01*
X-35369999Y14825000D02*
X-35465237Y14920238D01*
X-35465237Y14920238D02*
X-35512856Y15015476D01*
X-35512856Y15015476D02*
X-35560475Y15205952D01*
X-35560475Y15205952D02*
X-35560475Y15348809D01*
X-35560475Y15348809D02*
X-35512856Y15539285D01*
X-35512856Y15539285D02*
X-35465237Y15634523D01*
X-35465237Y15634523D02*
X-35369999Y15729761D01*
X-35369999Y15729761D02*
X-35227142Y15777380D01*
X-35227142Y15777380D02*
X-35131904Y15777380D01*
X-35131904Y15777380D02*
X-34989047Y15729761D01*
X-34989047Y15729761D02*
X-34941428Y15682142D01*
X-34560475Y14825000D02*
X-34417618Y14777380D01*
X-34417618Y14777380D02*
X-34179523Y14777380D01*
X-34179523Y14777380D02*
X-34084285Y14825000D01*
X-34084285Y14825000D02*
X-34036666Y14872619D01*
X-34036666Y14872619D02*
X-33989047Y14967857D01*
X-33989047Y14967857D02*
X-33989047Y15063095D01*
X-33989047Y15063095D02*
X-34036666Y15158333D01*
X-34036666Y15158333D02*
X-34084285Y15205952D01*
X-34084285Y15205952D02*
X-34179523Y15253571D01*
X-34179523Y15253571D02*
X-34369999Y15301190D01*
X-34369999Y15301190D02*
X-34465237Y15348809D01*
X-34465237Y15348809D02*
X-34512856Y15396428D01*
X-34512856Y15396428D02*
X-34560475Y15491666D01*
X-34560475Y15491666D02*
X-34560475Y15586904D01*
X-34560475Y15586904D02*
X-34512856Y15682142D01*
X-34512856Y15682142D02*
X-34465237Y15729761D01*
X-34465237Y15729761D02*
X-34369999Y15777380D01*
X-34369999Y15777380D02*
X-34131904Y15777380D01*
X-34131904Y15777380D02*
X-33989047Y15729761D01*
X-39274761Y13237380D02*
X-38703333Y13237380D01*
X-38989047Y12237380D02*
X-38989047Y13237380D01*
X-38036666Y12761190D02*
X-38369999Y12761190D01*
X-38369999Y12237380D02*
X-38369999Y13237380D01*
X-38369999Y13237380D02*
X-37893809Y13237380D01*
X-37655713Y13237380D02*
X-37084285Y13237380D01*
X-37369999Y12237380D02*
X-37369999Y13237380D01*
X-36989047Y12142142D02*
X-36227142Y12142142D01*
X-35655713Y12761190D02*
X-35512856Y12713571D01*
X-35512856Y12713571D02*
X-35465237Y12665952D01*
X-35465237Y12665952D02*
X-35417618Y12570714D01*
X-35417618Y12570714D02*
X-35417618Y12427857D01*
X-35417618Y12427857D02*
X-35465237Y12332619D01*
X-35465237Y12332619D02*
X-35512856Y12285000D01*
X-35512856Y12285000D02*
X-35608094Y12237380D01*
X-35608094Y12237380D02*
X-35989046Y12237380D01*
X-35989046Y12237380D02*
X-35989046Y13237380D01*
X-35989046Y13237380D02*
X-35655713Y13237380D01*
X-35655713Y13237380D02*
X-35560475Y13189761D01*
X-35560475Y13189761D02*
X-35512856Y13142142D01*
X-35512856Y13142142D02*
X-35465237Y13046904D01*
X-35465237Y13046904D02*
X-35465237Y12951666D01*
X-35465237Y12951666D02*
X-35512856Y12856428D01*
X-35512856Y12856428D02*
X-35560475Y12808809D01*
X-35560475Y12808809D02*
X-35655713Y12761190D01*
X-35655713Y12761190D02*
X-35989046Y12761190D01*
X-34512856Y12237380D02*
X-34989046Y12237380D01*
X-34989046Y12237380D02*
X-34989046Y13237380D01*
X-38608095Y10649761D02*
X-38703333Y10697380D01*
X-38703333Y10697380D02*
X-38846190Y10697380D01*
X-38846190Y10697380D02*
X-38989047Y10649761D01*
X-38989047Y10649761D02*
X-39084285Y10554523D01*
X-39084285Y10554523D02*
X-39131904Y10459285D01*
X-39131904Y10459285D02*
X-39179523Y10268809D01*
X-39179523Y10268809D02*
X-39179523Y10125952D01*
X-39179523Y10125952D02*
X-39131904Y9935476D01*
X-39131904Y9935476D02*
X-39084285Y9840238D01*
X-39084285Y9840238D02*
X-38989047Y9745000D01*
X-38989047Y9745000D02*
X-38846190Y9697380D01*
X-38846190Y9697380D02*
X-38750952Y9697380D01*
X-38750952Y9697380D02*
X-38608095Y9745000D01*
X-38608095Y9745000D02*
X-38560476Y9792619D01*
X-38560476Y9792619D02*
X-38560476Y10125952D01*
X-38560476Y10125952D02*
X-38750952Y10125952D01*
X-38131904Y9697380D02*
X-38131904Y10697380D01*
X-38131904Y10697380D02*
X-37560476Y9697380D01*
X-37560476Y9697380D02*
X-37560476Y10697380D01*
X-37084285Y9697380D02*
X-37084285Y10697380D01*
X-37084285Y10697380D02*
X-36846190Y10697380D01*
X-36846190Y10697380D02*
X-36703333Y10649761D01*
X-36703333Y10649761D02*
X-36608095Y10554523D01*
X-36608095Y10554523D02*
X-36560476Y10459285D01*
X-36560476Y10459285D02*
X-36512857Y10268809D01*
X-36512857Y10268809D02*
X-36512857Y10125952D01*
X-36512857Y10125952D02*
X-36560476Y9935476D01*
X-36560476Y9935476D02*
X-36608095Y9840238D01*
X-36608095Y9840238D02*
X-36703333Y9745000D01*
X-36703333Y9745000D02*
X-36846190Y9697380D01*
X-36846190Y9697380D02*
X-37084285Y9697380D01*
X-38608095Y11919761D02*
X-38703333Y11967380D01*
X-38703333Y11967380D02*
X-38846190Y11967380D01*
X-38846190Y11967380D02*
X-38989047Y11919761D01*
X-38989047Y11919761D02*
X-39084285Y11824523D01*
X-39084285Y11824523D02*
X-39131904Y11729285D01*
X-39131904Y11729285D02*
X-39179523Y11538809D01*
X-39179523Y11538809D02*
X-39179523Y11395952D01*
X-39179523Y11395952D02*
X-39131904Y11205476D01*
X-39131904Y11205476D02*
X-39084285Y11110238D01*
X-39084285Y11110238D02*
X-38989047Y11015000D01*
X-38989047Y11015000D02*
X-38846190Y10967380D01*
X-38846190Y10967380D02*
X-38750952Y10967380D01*
X-38750952Y10967380D02*
X-38608095Y11015000D01*
X-38608095Y11015000D02*
X-38560476Y11062619D01*
X-38560476Y11062619D02*
X-38560476Y11395952D01*
X-38560476Y11395952D02*
X-38750952Y11395952D01*
X-38131904Y10967380D02*
X-38131904Y11967380D01*
X-38131904Y11967380D02*
X-37560476Y10967380D01*
X-37560476Y10967380D02*
X-37560476Y11967380D01*
X-37084285Y10967380D02*
X-37084285Y11967380D01*
X-37084285Y11967380D02*
X-36846190Y11967380D01*
X-36846190Y11967380D02*
X-36703333Y11919761D01*
X-36703333Y11919761D02*
X-36608095Y11824523D01*
X-36608095Y11824523D02*
X-36560476Y11729285D01*
X-36560476Y11729285D02*
X-36512857Y11538809D01*
X-36512857Y11538809D02*
X-36512857Y11395952D01*
X-36512857Y11395952D02*
X-36560476Y11205476D01*
X-36560476Y11205476D02*
X-36608095Y11110238D01*
X-36608095Y11110238D02*
X-36703333Y11015000D01*
X-36703333Y11015000D02*
X-36846190Y10967380D01*
X-36846190Y10967380D02*
X-37084285Y10967380D01*
X-39131904Y18587380D02*
X-39131904Y19587380D01*
X-39131904Y19587380D02*
X-38798571Y18873095D01*
X-38798571Y18873095D02*
X-38465238Y19587380D01*
X-38465238Y19587380D02*
X-38465238Y18587380D01*
X-37798571Y19587380D02*
X-37608095Y19587380D01*
X-37608095Y19587380D02*
X-37512857Y19539761D01*
X-37512857Y19539761D02*
X-37417619Y19444523D01*
X-37417619Y19444523D02*
X-37370000Y19254047D01*
X-37370000Y19254047D02*
X-37370000Y18920714D01*
X-37370000Y18920714D02*
X-37417619Y18730238D01*
X-37417619Y18730238D02*
X-37512857Y18635000D01*
X-37512857Y18635000D02*
X-37608095Y18587380D01*
X-37608095Y18587380D02*
X-37798571Y18587380D01*
X-37798571Y18587380D02*
X-37893809Y18635000D01*
X-37893809Y18635000D02*
X-37989047Y18730238D01*
X-37989047Y18730238D02*
X-38036666Y18920714D01*
X-38036666Y18920714D02*
X-38036666Y19254047D01*
X-38036666Y19254047D02*
X-37989047Y19444523D01*
X-37989047Y19444523D02*
X-37893809Y19539761D01*
X-37893809Y19539761D02*
X-37798571Y19587380D01*
X-36989047Y18635000D02*
X-36846190Y18587380D01*
X-36846190Y18587380D02*
X-36608095Y18587380D01*
X-36608095Y18587380D02*
X-36512857Y18635000D01*
X-36512857Y18635000D02*
X-36465238Y18682619D01*
X-36465238Y18682619D02*
X-36417619Y18777857D01*
X-36417619Y18777857D02*
X-36417619Y18873095D01*
X-36417619Y18873095D02*
X-36465238Y18968333D01*
X-36465238Y18968333D02*
X-36512857Y19015952D01*
X-36512857Y19015952D02*
X-36608095Y19063571D01*
X-36608095Y19063571D02*
X-36798571Y19111190D01*
X-36798571Y19111190D02*
X-36893809Y19158809D01*
X-36893809Y19158809D02*
X-36941428Y19206428D01*
X-36941428Y19206428D02*
X-36989047Y19301666D01*
X-36989047Y19301666D02*
X-36989047Y19396904D01*
X-36989047Y19396904D02*
X-36941428Y19492142D01*
X-36941428Y19492142D02*
X-36893809Y19539761D01*
X-36893809Y19539761D02*
X-36798571Y19587380D01*
X-36798571Y19587380D02*
X-36560476Y19587380D01*
X-36560476Y19587380D02*
X-36417619Y19539761D01*
X-35989047Y18587380D02*
X-35989047Y19587380D01*
X-19978666Y807380D02*
X-20311999Y1283571D01*
X-20550094Y807380D02*
X-20550094Y1807380D01*
X-20550094Y1807380D02*
X-20169142Y1807380D01*
X-20169142Y1807380D02*
X-20073904Y1759761D01*
X-20073904Y1759761D02*
X-20026285Y1712142D01*
X-20026285Y1712142D02*
X-19978666Y1616904D01*
X-19978666Y1616904D02*
X-19978666Y1474047D01*
X-19978666Y1474047D02*
X-20026285Y1378809D01*
X-20026285Y1378809D02*
X-20073904Y1331190D01*
X-20073904Y1331190D02*
X-20169142Y1283571D01*
X-20169142Y1283571D02*
X-20550094Y1283571D01*
X-19121523Y1474047D02*
X-19121523Y807380D01*
X-19359618Y1855000D02*
X-19597713Y1140714D01*
X-19597713Y1140714D02*
X-18978666Y1140714D01*
X-43513333Y6887380D02*
X-43513333Y6173095D01*
X-43513333Y6173095D02*
X-43560952Y6030238D01*
X-43560952Y6030238D02*
X-43656190Y5935000D01*
X-43656190Y5935000D02*
X-43799047Y5887380D01*
X-43799047Y5887380D02*
X-43894285Y5887380D01*
X-42513333Y5887380D02*
X-43084761Y5887380D01*
X-42799047Y5887380D02*
X-42799047Y6887380D01*
X-42799047Y6887380D02*
X-42894285Y6744523D01*
X-42894285Y6744523D02*
X-42989523Y6649285D01*
X-42989523Y6649285D02*
X-43084761Y6601666D01*
X-32488094Y23667380D02*
X-32488094Y24667380D01*
X-32488094Y24667380D02*
X-32249999Y24667380D01*
X-32249999Y24667380D02*
X-32107142Y24619761D01*
X-32107142Y24619761D02*
X-32011904Y24524523D01*
X-32011904Y24524523D02*
X-31964285Y24429285D01*
X-31964285Y24429285D02*
X-31916666Y24238809D01*
X-31916666Y24238809D02*
X-31916666Y24095952D01*
X-31916666Y24095952D02*
X-31964285Y23905476D01*
X-31964285Y23905476D02*
X-32011904Y23810238D01*
X-32011904Y23810238D02*
X-32107142Y23715000D01*
X-32107142Y23715000D02*
X-32249999Y23667380D01*
X-32249999Y23667380D02*
X-32488094Y23667380D01*
X-30964285Y23667380D02*
X-31535713Y23667380D01*
X-31249999Y23667380D02*
X-31249999Y24667380D01*
X-31249999Y24667380D02*
X-31345237Y24524523D01*
X-31345237Y24524523D02*
X-31440475Y24429285D01*
X-31440475Y24429285D02*
X-31535713Y24381666D01*
X15885714Y20018095D02*
X16361904Y20018095D01*
X15790476Y19732380D02*
X16123809Y20732380D01*
X16123809Y20732380D02*
X16457142Y19732380D01*
X17314285Y19732380D02*
X16742857Y19732380D01*
X17028571Y19732380D02*
X17028571Y20732380D01*
X17028571Y20732380D02*
X16933333Y20589523D01*
X16933333Y20589523D02*
X16838095Y20494285D01*
X16838095Y20494285D02*
X16742857Y20446666D01*
X-3989523Y-22005000D02*
X-3846666Y-22052619D01*
X-3846666Y-22052619D02*
X-3608571Y-22052619D01*
X-3608571Y-22052619D02*
X-3513333Y-22005000D01*
X-3513333Y-22005000D02*
X-3465714Y-21957380D01*
X-3465714Y-21957380D02*
X-3418095Y-21862142D01*
X-3418095Y-21862142D02*
X-3418095Y-21766904D01*
X-3418095Y-21766904D02*
X-3465714Y-21671666D01*
X-3465714Y-21671666D02*
X-3513333Y-21624047D01*
X-3513333Y-21624047D02*
X-3608571Y-21576428D01*
X-3608571Y-21576428D02*
X-3799047Y-21528809D01*
X-3799047Y-21528809D02*
X-3894285Y-21481190D01*
X-3894285Y-21481190D02*
X-3941904Y-21433571D01*
X-3941904Y-21433571D02*
X-3989523Y-21338333D01*
X-3989523Y-21338333D02*
X-3989523Y-21243095D01*
X-3989523Y-21243095D02*
X-3941904Y-21147857D01*
X-3941904Y-21147857D02*
X-3894285Y-21100238D01*
X-3894285Y-21100238D02*
X-3799047Y-21052619D01*
X-3799047Y-21052619D02*
X-3560952Y-21052619D01*
X-3560952Y-21052619D02*
X-3418095Y-21100238D01*
X-2989523Y-22052619D02*
X-2989523Y-21052619D01*
X-2989523Y-21052619D02*
X-2751428Y-21052619D01*
X-2751428Y-21052619D02*
X-2608571Y-21100238D01*
X-2608571Y-21100238D02*
X-2513333Y-21195476D01*
X-2513333Y-21195476D02*
X-2465714Y-21290714D01*
X-2465714Y-21290714D02*
X-2418095Y-21481190D01*
X-2418095Y-21481190D02*
X-2418095Y-21624047D01*
X-2418095Y-21624047D02*
X-2465714Y-21814523D01*
X-2465714Y-21814523D02*
X-2513333Y-21909761D01*
X-2513333Y-21909761D02*
X-2608571Y-22005000D01*
X-2608571Y-22005000D02*
X-2751428Y-22052619D01*
X-2751428Y-22052619D02*
X-2989523Y-22052619D01*
X-799047Y-22005000D02*
X-894285Y-22052619D01*
X-894285Y-22052619D02*
X-1084761Y-22052619D01*
X-1084761Y-22052619D02*
X-1179999Y-22005000D01*
X-1179999Y-22005000D02*
X-1227618Y-21957380D01*
X-1227618Y-21957380D02*
X-1275237Y-21862142D01*
X-1275237Y-21862142D02*
X-1275237Y-21576428D01*
X-1275237Y-21576428D02*
X-1227618Y-21481190D01*
X-1227618Y-21481190D02*
X-1179999Y-21433571D01*
X-1179999Y-21433571D02*
X-1084761Y-21385952D01*
X-1084761Y-21385952D02*
X-894285Y-21385952D01*
X-894285Y-21385952D02*
X-799047Y-21433571D01*
X58095Y-22052619D02*
X58095Y-21528809D01*
X58095Y-21528809D02*
X10476Y-21433571D01*
X10476Y-21433571D02*
X-84761Y-21385952D01*
X-84761Y-21385952D02*
X-275237Y-21385952D01*
X-275237Y-21385952D02*
X-370475Y-21433571D01*
X58095Y-22005000D02*
X-37142Y-22052619D01*
X-37142Y-22052619D02*
X-275237Y-22052619D01*
X-275237Y-22052619D02*
X-370475Y-22005000D01*
X-370475Y-22005000D02*
X-418094Y-21909761D01*
X-418094Y-21909761D02*
X-418094Y-21814523D01*
X-418094Y-21814523D02*
X-370475Y-21719285D01*
X-370475Y-21719285D02*
X-275237Y-21671666D01*
X-275237Y-21671666D02*
X-37142Y-21671666D01*
X-37142Y-21671666D02*
X58095Y-21624047D01*
X534286Y-22052619D02*
X534286Y-21385952D01*
X534286Y-21576428D02*
X581905Y-21481190D01*
X581905Y-21481190D02*
X629524Y-21433571D01*
X629524Y-21433571D02*
X724762Y-21385952D01*
X724762Y-21385952D02*
X820000Y-21385952D01*
X1581905Y-22052619D02*
X1581905Y-21052619D01*
X1581905Y-22005000D02*
X1486667Y-22052619D01*
X1486667Y-22052619D02*
X1296191Y-22052619D01*
X1296191Y-22052619D02*
X1200953Y-22005000D01*
X1200953Y-22005000D02*
X1153334Y-21957380D01*
X1153334Y-21957380D02*
X1105715Y-21862142D01*
X1105715Y-21862142D02*
X1105715Y-21576428D01*
X1105715Y-21576428D02*
X1153334Y-21481190D01*
X1153334Y-21481190D02*
X1200953Y-21433571D01*
X1200953Y-21433571D02*
X1296191Y-21385952D01*
X1296191Y-21385952D02*
X1486667Y-21385952D01*
X1486667Y-21385952D02*
X1581905Y-21433571D01*
X-7309524Y537380D02*
X-6738096Y537380D01*
X-7023810Y-462619D02*
X-7023810Y537380D01*
X-6071429Y61190D02*
X-6404762Y61190D01*
X-6404762Y-462619D02*
X-6404762Y537380D01*
X-6404762Y537380D02*
X-5928572Y537380D01*
X-5690476Y537380D02*
X-5119048Y537380D01*
X-5404762Y-462619D02*
X-5404762Y537380D01*
X-4166666Y204047D02*
X-3785714Y204047D01*
X-4023809Y537380D02*
X-4023809Y-319761D01*
X-4023809Y-319761D02*
X-3976190Y-415000D01*
X-3976190Y-415000D02*
X-3880952Y-462619D01*
X-3880952Y-462619D02*
X-3785714Y-462619D01*
X-3071428Y-415000D02*
X-3166666Y-462619D01*
X-3166666Y-462619D02*
X-3357142Y-462619D01*
X-3357142Y-462619D02*
X-3452380Y-415000D01*
X-3452380Y-415000D02*
X-3499999Y-319761D01*
X-3499999Y-319761D02*
X-3499999Y61190D01*
X-3499999Y61190D02*
X-3452380Y156428D01*
X-3452380Y156428D02*
X-3357142Y204047D01*
X-3357142Y204047D02*
X-3166666Y204047D01*
X-3166666Y204047D02*
X-3071428Y156428D01*
X-3071428Y156428D02*
X-3023809Y61190D01*
X-3023809Y61190D02*
X-3023809Y-34047D01*
X-3023809Y-34047D02*
X-3499999Y-129285D01*
X-2690475Y-462619D02*
X-2166666Y204047D01*
X-2690475Y204047D02*
X-2166666Y-462619D01*
X-1928570Y204047D02*
X-1547618Y204047D01*
X-1785713Y537380D02*
X-1785713Y-319761D01*
X-1785713Y-319761D02*
X-1738094Y-415000D01*
X-1738094Y-415000D02*
X-1642856Y-462619D01*
X-1642856Y-462619D02*
X-1547618Y-462619D01*
X-309522Y-462619D02*
X-404760Y-415000D01*
X-404760Y-415000D02*
X-452379Y-367380D01*
X-452379Y-367380D02*
X-499998Y-272142D01*
X-499998Y-272142D02*
X-499998Y13571D01*
X-499998Y13571D02*
X-452379Y108809D01*
X-452379Y108809D02*
X-404760Y156428D01*
X-404760Y156428D02*
X-309522Y204047D01*
X-309522Y204047D02*
X-166665Y204047D01*
X-166665Y204047D02*
X-71427Y156428D01*
X-71427Y156428D02*
X-23808Y108809D01*
X-23808Y108809D02*
X23810Y13571D01*
X23810Y13571D02*
X23810Y-272142D01*
X23810Y-272142D02*
X-23808Y-367380D01*
X-23808Y-367380D02*
X-71427Y-415000D01*
X-71427Y-415000D02*
X-166665Y-462619D01*
X-166665Y-462619D02*
X-309522Y-462619D01*
X452382Y-462619D02*
X452382Y204047D01*
X452382Y13571D02*
X500001Y108809D01*
X500001Y108809D02*
X547620Y156428D01*
X547620Y156428D02*
X642858Y204047D01*
X642858Y204047D02*
X738096Y204047D01*
X1071430Y-462619D02*
X1071430Y204047D01*
X1071430Y537380D02*
X1023811Y489761D01*
X1023811Y489761D02*
X1071430Y442142D01*
X1071430Y442142D02*
X1119049Y489761D01*
X1119049Y489761D02*
X1071430Y537380D01*
X1071430Y537380D02*
X1071430Y442142D01*
X1928572Y-415000D02*
X1833334Y-462619D01*
X1833334Y-462619D02*
X1642858Y-462619D01*
X1642858Y-462619D02*
X1547620Y-415000D01*
X1547620Y-415000D02*
X1500001Y-319761D01*
X1500001Y-319761D02*
X1500001Y61190D01*
X1500001Y61190D02*
X1547620Y156428D01*
X1547620Y156428D02*
X1642858Y204047D01*
X1642858Y204047D02*
X1833334Y204047D01*
X1833334Y204047D02*
X1928572Y156428D01*
X1928572Y156428D02*
X1976191Y61190D01*
X1976191Y61190D02*
X1976191Y-34047D01*
X1976191Y-34047D02*
X1500001Y-129285D01*
X2404763Y204047D02*
X2404763Y-462619D01*
X2404763Y108809D02*
X2452382Y156428D01*
X2452382Y156428D02*
X2547620Y204047D01*
X2547620Y204047D02*
X2690477Y204047D01*
X2690477Y204047D02*
X2785715Y156428D01*
X2785715Y156428D02*
X2833334Y61190D01*
X2833334Y61190D02*
X2833334Y-462619D01*
X3166668Y204047D02*
X3547620Y204047D01*
X3309525Y537380D02*
X3309525Y-319761D01*
X3309525Y-319761D02*
X3357144Y-415000D01*
X3357144Y-415000D02*
X3452382Y-462619D01*
X3452382Y-462619D02*
X3547620Y-462619D01*
X4309525Y-462619D02*
X4309525Y61190D01*
X4309525Y61190D02*
X4261906Y156428D01*
X4261906Y156428D02*
X4166668Y204047D01*
X4166668Y204047D02*
X3976192Y204047D01*
X3976192Y204047D02*
X3880954Y156428D01*
X4309525Y-415000D02*
X4214287Y-462619D01*
X4214287Y-462619D02*
X3976192Y-462619D01*
X3976192Y-462619D02*
X3880954Y-415000D01*
X3880954Y-415000D02*
X3833335Y-319761D01*
X3833335Y-319761D02*
X3833335Y-224523D01*
X3833335Y-224523D02*
X3880954Y-129285D01*
X3880954Y-129285D02*
X3976192Y-81666D01*
X3976192Y-81666D02*
X4214287Y-81666D01*
X4214287Y-81666D02*
X4309525Y-34047D01*
X4642859Y204047D02*
X5023811Y204047D01*
X4785716Y537380D02*
X4785716Y-319761D01*
X4785716Y-319761D02*
X4833335Y-415000D01*
X4833335Y-415000D02*
X4928573Y-462619D01*
X4928573Y-462619D02*
X5023811Y-462619D01*
X5357145Y-462619D02*
X5357145Y204047D01*
X5357145Y537380D02*
X5309526Y489761D01*
X5309526Y489761D02*
X5357145Y442142D01*
X5357145Y442142D02*
X5404764Y489761D01*
X5404764Y489761D02*
X5357145Y537380D01*
X5357145Y537380D02*
X5357145Y442142D01*
X5976192Y-462619D02*
X5880954Y-415000D01*
X5880954Y-415000D02*
X5833335Y-367380D01*
X5833335Y-367380D02*
X5785716Y-272142D01*
X5785716Y-272142D02*
X5785716Y13571D01*
X5785716Y13571D02*
X5833335Y108809D01*
X5833335Y108809D02*
X5880954Y156428D01*
X5880954Y156428D02*
X5976192Y204047D01*
X5976192Y204047D02*
X6119049Y204047D01*
X6119049Y204047D02*
X6214287Y156428D01*
X6214287Y156428D02*
X6261906Y108809D01*
X6261906Y108809D02*
X6309525Y13571D01*
X6309525Y13571D02*
X6309525Y-272142D01*
X6309525Y-272142D02*
X6261906Y-367380D01*
X6261906Y-367380D02*
X6214287Y-415000D01*
X6214287Y-415000D02*
X6119049Y-462619D01*
X6119049Y-462619D02*
X5976192Y-462619D01*
X6738097Y204047D02*
X6738097Y-462619D01*
X6738097Y108809D02*
X6785716Y156428D01*
X6785716Y156428D02*
X6880954Y204047D01*
X6880954Y204047D02*
X7023811Y204047D01*
X7023811Y204047D02*
X7119049Y156428D01*
X7119049Y156428D02*
X7166668Y61190D01*
X7166668Y61190D02*
X7166668Y-462619D01*
X-20486666Y8522619D02*
X-20534285Y8475000D01*
X-20534285Y8475000D02*
X-20677142Y8427380D01*
X-20677142Y8427380D02*
X-20772380Y8427380D01*
X-20772380Y8427380D02*
X-20915237Y8475000D01*
X-20915237Y8475000D02*
X-21010475Y8570238D01*
X-21010475Y8570238D02*
X-21058094Y8665476D01*
X-21058094Y8665476D02*
X-21105713Y8855952D01*
X-21105713Y8855952D02*
X-21105713Y8998809D01*
X-21105713Y8998809D02*
X-21058094Y9189285D01*
X-21058094Y9189285D02*
X-21010475Y9284523D01*
X-21010475Y9284523D02*
X-20915237Y9379761D01*
X-20915237Y9379761D02*
X-20772380Y9427380D01*
X-20772380Y9427380D02*
X-20677142Y9427380D01*
X-20677142Y9427380D02*
X-20534285Y9379761D01*
X-20534285Y9379761D02*
X-20486666Y9332142D01*
X-19534285Y8427380D02*
X-20105713Y8427380D01*
X-19819999Y8427380D02*
X-19819999Y9427380D01*
X-19819999Y9427380D02*
X-19915237Y9284523D01*
X-19915237Y9284523D02*
X-20010475Y9189285D01*
X-20010475Y9189285D02*
X-20105713Y9141666D01*
X-19978666Y-9352619D02*
X-20311999Y-8876428D01*
X-20550094Y-9352619D02*
X-20550094Y-8352619D01*
X-20550094Y-8352619D02*
X-20169142Y-8352619D01*
X-20169142Y-8352619D02*
X-20073904Y-8400238D01*
X-20073904Y-8400238D02*
X-20026285Y-8447857D01*
X-20026285Y-8447857D02*
X-19978666Y-8543095D01*
X-19978666Y-8543095D02*
X-19978666Y-8685952D01*
X-19978666Y-8685952D02*
X-20026285Y-8781190D01*
X-20026285Y-8781190D02*
X-20073904Y-8828809D01*
X-20073904Y-8828809D02*
X-20169142Y-8876428D01*
X-20169142Y-8876428D02*
X-20550094Y-8876428D01*
X-19597713Y-8447857D02*
X-19550094Y-8400238D01*
X-19550094Y-8400238D02*
X-19454856Y-8352619D01*
X-19454856Y-8352619D02*
X-19216761Y-8352619D01*
X-19216761Y-8352619D02*
X-19121523Y-8400238D01*
X-19121523Y-8400238D02*
X-19073904Y-8447857D01*
X-19073904Y-8447857D02*
X-19026285Y-8543095D01*
X-19026285Y-8543095D02*
X-19026285Y-8638333D01*
X-19026285Y-8638333D02*
X-19073904Y-8781190D01*
X-19073904Y-8781190D02*
X-19645332Y-9352619D01*
X-19645332Y-9352619D02*
X-19026285Y-9352619D01*
X-19978666Y-6812619D02*
X-20311999Y-6336428D01*
X-20550094Y-6812619D02*
X-20550094Y-5812619D01*
X-20550094Y-5812619D02*
X-20169142Y-5812619D01*
X-20169142Y-5812619D02*
X-20073904Y-5860238D01*
X-20073904Y-5860238D02*
X-20026285Y-5907857D01*
X-20026285Y-5907857D02*
X-19978666Y-6003095D01*
X-19978666Y-6003095D02*
X-19978666Y-6145952D01*
X-19978666Y-6145952D02*
X-20026285Y-6241190D01*
X-20026285Y-6241190D02*
X-20073904Y-6288809D01*
X-20073904Y-6288809D02*
X-20169142Y-6336428D01*
X-20169142Y-6336428D02*
X-20550094Y-6336428D01*
X-19026285Y-6812619D02*
X-19597713Y-6812619D01*
X-19311999Y-6812619D02*
X-19311999Y-5812619D01*
X-19311999Y-5812619D02*
X-19407237Y-5955476D01*
X-19407237Y-5955476D02*
X-19502475Y-6050714D01*
X-19502475Y-6050714D02*
X-19597713Y-6098333D01*
X-19978666Y-1732619D02*
X-20311999Y-1256428D01*
X-20550094Y-1732619D02*
X-20550094Y-732619D01*
X-20550094Y-732619D02*
X-20169142Y-732619D01*
X-20169142Y-732619D02*
X-20073904Y-780238D01*
X-20073904Y-780238D02*
X-20026285Y-827857D01*
X-20026285Y-827857D02*
X-19978666Y-923095D01*
X-19978666Y-923095D02*
X-19978666Y-1065952D01*
X-19978666Y-1065952D02*
X-20026285Y-1161190D01*
X-20026285Y-1161190D02*
X-20073904Y-1208809D01*
X-20073904Y-1208809D02*
X-20169142Y-1256428D01*
X-20169142Y-1256428D02*
X-20550094Y-1256428D01*
X-19645332Y-732619D02*
X-19026285Y-732619D01*
X-19026285Y-732619D02*
X-19359618Y-1113571D01*
X-19359618Y-1113571D02*
X-19216761Y-1113571D01*
X-19216761Y-1113571D02*
X-19121523Y-1161190D01*
X-19121523Y-1161190D02*
X-19073904Y-1208809D01*
X-19073904Y-1208809D02*
X-19026285Y-1304047D01*
X-19026285Y-1304047D02*
X-19026285Y-1542142D01*
X-19026285Y-1542142D02*
X-19073904Y-1637380D01*
X-19073904Y-1637380D02*
X-19121523Y-1685000D01*
X-19121523Y-1685000D02*
X-19216761Y-1732619D01*
X-19216761Y-1732619D02*
X-19502475Y-1732619D01*
X-19502475Y-1732619D02*
X-19597713Y-1685000D01*
X-19597713Y-1685000D02*
X-19645332Y-1637380D01*
X-39536666Y23667380D02*
X-39869999Y24143571D01*
X-40108094Y23667380D02*
X-40108094Y24667380D01*
X-40108094Y24667380D02*
X-39727142Y24667380D01*
X-39727142Y24667380D02*
X-39631904Y24619761D01*
X-39631904Y24619761D02*
X-39584285Y24572142D01*
X-39584285Y24572142D02*
X-39536666Y24476904D01*
X-39536666Y24476904D02*
X-39536666Y24334047D01*
X-39536666Y24334047D02*
X-39584285Y24238809D01*
X-39584285Y24238809D02*
X-39631904Y24191190D01*
X-39631904Y24191190D02*
X-39727142Y24143571D01*
X-39727142Y24143571D02*
X-40108094Y24143571D01*
X-38631904Y24667380D02*
X-39108094Y24667380D01*
X-39108094Y24667380D02*
X-39155713Y24191190D01*
X-39155713Y24191190D02*
X-39108094Y24238809D01*
X-39108094Y24238809D02*
X-39012856Y24286428D01*
X-39012856Y24286428D02*
X-38774761Y24286428D01*
X-38774761Y24286428D02*
X-38679523Y24238809D01*
X-38679523Y24238809D02*
X-38631904Y24191190D01*
X-38631904Y24191190D02*
X-38584285Y24095952D01*
X-38584285Y24095952D02*
X-38584285Y23857857D01*
X-38584285Y23857857D02*
X-38631904Y23762619D01*
X-38631904Y23762619D02*
X-38679523Y23715000D01*
X-38679523Y23715000D02*
X-38774761Y23667380D01*
X-38774761Y23667380D02*
X-39012856Y23667380D01*
X-39012856Y23667380D02*
X-39108094Y23715000D01*
X-39108094Y23715000D02*
X-39155713Y23762619D01*
X-31916666Y5887380D02*
X-32249999Y6363571D01*
X-32488094Y5887380D02*
X-32488094Y6887380D01*
X-32488094Y6887380D02*
X-32107142Y6887380D01*
X-32107142Y6887380D02*
X-32011904Y6839761D01*
X-32011904Y6839761D02*
X-31964285Y6792142D01*
X-31964285Y6792142D02*
X-31916666Y6696904D01*
X-31916666Y6696904D02*
X-31916666Y6554047D01*
X-31916666Y6554047D02*
X-31964285Y6458809D01*
X-31964285Y6458809D02*
X-32011904Y6411190D01*
X-32011904Y6411190D02*
X-32107142Y6363571D01*
X-32107142Y6363571D02*
X-32488094Y6363571D01*
X-31059523Y6887380D02*
X-31249999Y6887380D01*
X-31249999Y6887380D02*
X-31345237Y6839761D01*
X-31345237Y6839761D02*
X-31392856Y6792142D01*
X-31392856Y6792142D02*
X-31488094Y6649285D01*
X-31488094Y6649285D02*
X-31535713Y6458809D01*
X-31535713Y6458809D02*
X-31535713Y6077857D01*
X-31535713Y6077857D02*
X-31488094Y5982619D01*
X-31488094Y5982619D02*
X-31440475Y5935000D01*
X-31440475Y5935000D02*
X-31345237Y5887380D01*
X-31345237Y5887380D02*
X-31154761Y5887380D01*
X-31154761Y5887380D02*
X-31059523Y5935000D01*
X-31059523Y5935000D02*
X-31011904Y5982619D01*
X-31011904Y5982619D02*
X-30964285Y6077857D01*
X-30964285Y6077857D02*
X-30964285Y6315952D01*
X-30964285Y6315952D02*
X-31011904Y6411190D01*
X-31011904Y6411190D02*
X-31059523Y6458809D01*
X-31059523Y6458809D02*
X-31154761Y6506428D01*
X-31154761Y6506428D02*
X-31345237Y6506428D01*
X-31345237Y6506428D02*
X-31440475Y6458809D01*
X-31440475Y6458809D02*
X-31488094Y6411190D01*
X-31488094Y6411190D02*
X-31535713Y6315952D01*
X-32488094Y11983380D02*
X-32488094Y12983380D01*
X-32488094Y12983380D02*
X-32249999Y12983380D01*
X-32249999Y12983380D02*
X-32107142Y12935761D01*
X-32107142Y12935761D02*
X-32011904Y12840523D01*
X-32011904Y12840523D02*
X-31964285Y12745285D01*
X-31964285Y12745285D02*
X-31916666Y12554809D01*
X-31916666Y12554809D02*
X-31916666Y12411952D01*
X-31916666Y12411952D02*
X-31964285Y12221476D01*
X-31964285Y12221476D02*
X-32011904Y12126238D01*
X-32011904Y12126238D02*
X-32107142Y12031000D01*
X-32107142Y12031000D02*
X-32249999Y11983380D01*
X-32249999Y11983380D02*
X-32488094Y11983380D01*
X-31535713Y12888142D02*
X-31488094Y12935761D01*
X-31488094Y12935761D02*
X-31392856Y12983380D01*
X-31392856Y12983380D02*
X-31154761Y12983380D01*
X-31154761Y12983380D02*
X-31059523Y12935761D01*
X-31059523Y12935761D02*
X-31011904Y12888142D01*
X-31011904Y12888142D02*
X-30964285Y12792904D01*
X-30964285Y12792904D02*
X-30964285Y12697666D01*
X-30964285Y12697666D02*
X-31011904Y12554809D01*
X-31011904Y12554809D02*
X-31583332Y11983380D01*
X-31583332Y11983380D02*
X-30964285Y11983380D01*
D11*
X-22632936Y535000D02*
X-23087064Y535000D01*
X-22632936Y2005000D02*
X-23087064Y2005000D01*
X-54550000Y21970000D02*
X-54550000Y21210000D01*
X-54550000Y21210000D02*
X-48550000Y21210000D01*
X-54550000Y19430000D02*
X-54550000Y18670000D01*
X-54550000Y18670000D02*
X-48550000Y18670000D01*
X-54550000Y16890000D02*
X-54550000Y16130000D01*
X-54550000Y16130000D02*
X-48550000Y16130000D01*
X-54550000Y14350000D02*
X-54550000Y13590000D01*
X-54550000Y13590000D02*
X-48550000Y13590000D01*
X-54550000Y11810000D02*
X-54550000Y11050000D01*
X-54550000Y11050000D02*
X-48550000Y11050000D01*
X-54550000Y9270000D02*
X-54550000Y8510000D01*
X-54550000Y8510000D02*
X-48550000Y8510000D01*
X-48550000Y22920000D02*
X-45890000Y22920000D01*
X-48550000Y21970000D02*
X-54550000Y21970000D01*
X-48550000Y21910000D02*
X-54550000Y21910000D01*
X-48550000Y21790000D02*
X-54550000Y21790000D01*
X-48550000Y21670000D02*
X-54550000Y21670000D01*
X-48550000Y21550000D02*
X-54550000Y21550000D01*
X-48550000Y21430000D02*
X-54550000Y21430000D01*
X-48550000Y21310000D02*
X-54550000Y21310000D01*
X-48550000Y19430000D02*
X-54550000Y19430000D01*
X-48550000Y16890000D02*
X-54550000Y16890000D01*
X-48550000Y14350000D02*
X-54550000Y14350000D01*
X-48550000Y11810000D02*
X-54550000Y11810000D01*
X-48550000Y9270000D02*
X-54550000Y9270000D01*
X-48550000Y7560000D02*
X-48550000Y22920000D01*
X-45890000Y22920000D02*
X-45890000Y7560000D01*
X-45890000Y20320000D02*
X-48550000Y20320000D01*
X-45890000Y17780000D02*
X-48550000Y17780000D01*
X-45890000Y15240000D02*
X-48550000Y15240000D01*
X-45890000Y12700000D02*
X-48550000Y12700000D01*
X-45890000Y10160000D02*
X-48550000Y10160000D01*
X-45890000Y7560000D02*
X-48550000Y7560000D01*
X-45492929Y21970000D02*
X-45890000Y21970000D01*
X-45492929Y21210000D02*
X-45890000Y21210000D01*
X-45492929Y19430000D02*
X-45890000Y19430000D01*
X-45492929Y18670000D02*
X-45890000Y18670000D01*
X-45492929Y16890000D02*
X-45890000Y16890000D01*
X-45492929Y16130000D02*
X-45890000Y16130000D01*
X-45492929Y14350000D02*
X-45890000Y14350000D01*
X-45492929Y13590000D02*
X-45890000Y13590000D01*
X-45492929Y11810000D02*
X-45890000Y11810000D01*
X-45492929Y11050000D02*
X-45890000Y11050000D01*
X-45492929Y9270000D02*
X-45890000Y9270000D01*
X-45492929Y8510000D02*
X-45890000Y8510000D01*
X-43020000Y21970000D02*
X-43407071Y21970000D01*
X-43020000Y21210000D02*
X-43407071Y21210000D01*
X-42952929Y19430000D02*
X-43407071Y19430000D01*
X-42952929Y18670000D02*
X-43407071Y18670000D01*
X-42952929Y16890000D02*
X-43407071Y16890000D01*
X-42952929Y16130000D02*
X-43407071Y16130000D01*
X-42952929Y14350000D02*
X-43407071Y14350000D01*
X-42952929Y13590000D02*
X-43407071Y13590000D01*
X-42952929Y11810000D02*
X-43407071Y11810000D01*
X-42952929Y11050000D02*
X-43407071Y11050000D01*
X-42952929Y9270000D02*
X-43407071Y9270000D01*
X-42952929Y8510000D02*
X-43407071Y8510000D01*
X-40640000Y22860000D02*
X-41910000Y22860000D01*
X-40640000Y21590000D02*
X-40640000Y22860000D01*
X-30790000Y23450000D02*
X-32710000Y23450000D01*
X-32710000Y23450000D02*
X-32710000Y20590000D01*
X-30790000Y20590000D02*
X-30790000Y23450000D01*
X23620000Y22480000D02*
X23620000Y-22480000D01*
X19950000Y17300000D02*
X19950000Y-17300000D01*
X18750000Y-15000000D02*
X18750000Y15000000D01*
X18750000Y15000000D02*
X-18750000Y15000000D01*
X10668000Y-41148000D02*
X-13462000Y-41148000D01*
X10668000Y-22480000D02*
X10668000Y-41148000D01*
X-13462000Y-22480000D02*
X-13462000Y-41148000D01*
X-18750000Y-15000000D02*
X18750000Y-15000000D01*
X-18750000Y15000000D02*
X-18750000Y-15000000D01*
X-26650000Y-17300000D02*
X19950000Y-17300000D01*
X-26650000Y17300000D02*
X19950000Y17300000D01*
X-26650000Y17300000D02*
X-26650000Y-17300000D01*
X-29850000Y-22480000D02*
X23620000Y-22480000D01*
X-29850000Y22480000D02*
X23620000Y22480000D01*
X-29850000Y22480000D02*
X-29850000Y-22480000D01*
X-24699000Y9179759D02*
X-24699000Y9809759D01*
X-25014000Y9494759D02*
X-24384000Y9494759D01*
X-26090000Y12680000D02*
X-19630000Y12680000D01*
X-26090000Y12720000D02*
X-19630000Y12720000D01*
X-26090000Y12760000D02*
X-19630000Y12760000D01*
X-26088000Y12800000D02*
X-19632000Y12800000D01*
X-26087000Y12840000D02*
X-19633000Y12840000D01*
X-26084000Y12880000D02*
X-19636000Y12880000D01*
X-26082000Y12920000D02*
X-23900000Y12920000D01*
X-21820000Y12920000D02*
X-19638000Y12920000D01*
X-26078000Y12960000D02*
X-23900000Y12960000D01*
X-21820000Y12960000D02*
X-19642000Y12960000D01*
X-26075000Y13000000D02*
X-23900000Y13000000D01*
X-21820000Y13000000D02*
X-19645000Y13000000D01*
X-26071000Y13040000D02*
X-23900000Y13040000D01*
X-21820000Y13040000D02*
X-19649000Y13040000D01*
X-26066000Y13080000D02*
X-23900000Y13080000D01*
X-21820000Y13080000D02*
X-19654000Y13080000D01*
X-26061000Y13120000D02*
X-23900000Y13120000D01*
X-21820000Y13120000D02*
X-19659000Y13120000D01*
X-26055000Y13160000D02*
X-23900000Y13160000D01*
X-21820000Y13160000D02*
X-19665000Y13160000D01*
X-26049000Y13200000D02*
X-23900000Y13200000D01*
X-21820000Y13200000D02*
X-19671000Y13200000D01*
X-26042000Y13240000D02*
X-23900000Y13240000D01*
X-21820000Y13240000D02*
X-19678000Y13240000D01*
X-26035000Y13280000D02*
X-23900000Y13280000D01*
X-21820000Y13280000D02*
X-19685000Y13280000D01*
X-26027000Y13320000D02*
X-23900000Y13320000D01*
X-21820000Y13320000D02*
X-19693000Y13320000D01*
X-26019000Y13360000D02*
X-23900000Y13360000D01*
X-21820000Y13360000D02*
X-19701000Y13360000D01*
X-26010000Y13401000D02*
X-23900000Y13401000D01*
X-21820000Y13401000D02*
X-19710000Y13401000D01*
X-26001000Y13441000D02*
X-23900000Y13441000D01*
X-21820000Y13441000D02*
X-19719000Y13441000D01*
X-25991000Y13481000D02*
X-23900000Y13481000D01*
X-21820000Y13481000D02*
X-19729000Y13481000D01*
X-25981000Y13521000D02*
X-23900000Y13521000D01*
X-21820000Y13521000D02*
X-19739000Y13521000D01*
X-25970000Y13561000D02*
X-23900000Y13561000D01*
X-21820000Y13561000D02*
X-19750000Y13561000D01*
X-25958000Y13601000D02*
X-23900000Y13601000D01*
X-21820000Y13601000D02*
X-19762000Y13601000D01*
X-25946000Y13641000D02*
X-23900000Y13641000D01*
X-21820000Y13641000D02*
X-19774000Y13641000D01*
X-25934000Y13681000D02*
X-23900000Y13681000D01*
X-21820000Y13681000D02*
X-19786000Y13681000D01*
X-25921000Y13721000D02*
X-23900000Y13721000D01*
X-21820000Y13721000D02*
X-19799000Y13721000D01*
X-25907000Y13761000D02*
X-23900000Y13761000D01*
X-21820000Y13761000D02*
X-19813000Y13761000D01*
X-25893000Y13801000D02*
X-23900000Y13801000D01*
X-21820000Y13801000D02*
X-19827000Y13801000D01*
X-25878000Y13841000D02*
X-23900000Y13841000D01*
X-21820000Y13841000D02*
X-19842000Y13841000D01*
X-25862000Y13881000D02*
X-23900000Y13881000D01*
X-21820000Y13881000D02*
X-19858000Y13881000D01*
X-25846000Y13921000D02*
X-23900000Y13921000D01*
X-21820000Y13921000D02*
X-19874000Y13921000D01*
X-25830000Y13961000D02*
X-23900000Y13961000D01*
X-21820000Y13961000D02*
X-19890000Y13961000D01*
X-25812000Y14001000D02*
X-23900000Y14001000D01*
X-21820000Y14001000D02*
X-19908000Y14001000D01*
X-25794000Y14041000D02*
X-23900000Y14041000D01*
X-21820000Y14041000D02*
X-19926000Y14041000D01*
X-25776000Y14081000D02*
X-23900000Y14081000D01*
X-21820000Y14081000D02*
X-19944000Y14081000D01*
X-25756000Y14121000D02*
X-23900000Y14121000D01*
X-21820000Y14121000D02*
X-19964000Y14121000D01*
X-25736000Y14161000D02*
X-23900000Y14161000D01*
X-21820000Y14161000D02*
X-19984000Y14161000D01*
X-25716000Y14201000D02*
X-23900000Y14201000D01*
X-21820000Y14201000D02*
X-20004000Y14201000D01*
X-25694000Y14241000D02*
X-23900000Y14241000D01*
X-21820000Y14241000D02*
X-20026000Y14241000D01*
X-25672000Y14281000D02*
X-23900000Y14281000D01*
X-21820000Y14281000D02*
X-20048000Y14281000D01*
X-25650000Y14321000D02*
X-23900000Y14321000D01*
X-21820000Y14321000D02*
X-20070000Y14321000D01*
X-25626000Y14361000D02*
X-23900000Y14361000D01*
X-21820000Y14361000D02*
X-20094000Y14361000D01*
X-25602000Y14401000D02*
X-23900000Y14401000D01*
X-21820000Y14401000D02*
X-20118000Y14401000D01*
X-25576000Y14441000D02*
X-23900000Y14441000D01*
X-21820000Y14441000D02*
X-20144000Y14441000D01*
X-25550000Y14481000D02*
X-23900000Y14481000D01*
X-21820000Y14481000D02*
X-20170000Y14481000D01*
X-25524000Y14521000D02*
X-23900000Y14521000D01*
X-21820000Y14521000D02*
X-20196000Y14521000D01*
X-25496000Y14561000D02*
X-23900000Y14561000D01*
X-21820000Y14561000D02*
X-20224000Y14561000D01*
X-25467000Y14601000D02*
X-23900000Y14601000D01*
X-21820000Y14601000D02*
X-20253000Y14601000D01*
X-25438000Y14641000D02*
X-23900000Y14641000D01*
X-21820000Y14641000D02*
X-20282000Y14641000D01*
X-25408000Y14681000D02*
X-23900000Y14681000D01*
X-21820000Y14681000D02*
X-20312000Y14681000D01*
X-25376000Y14721000D02*
X-23900000Y14721000D01*
X-21820000Y14721000D02*
X-20344000Y14721000D01*
X-25344000Y14761000D02*
X-23900000Y14761000D01*
X-21820000Y14761000D02*
X-20376000Y14761000D01*
X-25310000Y14801000D02*
X-23900000Y14801000D01*
X-21820000Y14801000D02*
X-20410000Y14801000D01*
X-25276000Y14841000D02*
X-23900000Y14841000D01*
X-21820000Y14841000D02*
X-20444000Y14841000D01*
X-25240000Y14881000D02*
X-23900000Y14881000D01*
X-21820000Y14881000D02*
X-20480000Y14881000D01*
X-25203000Y14921000D02*
X-23900000Y14921000D01*
X-21820000Y14921000D02*
X-20517000Y14921000D01*
X-25165000Y14961000D02*
X-23900000Y14961000D01*
X-21820000Y14961000D02*
X-20555000Y14961000D01*
X-25125000Y15001000D02*
X-20595000Y15001000D01*
X-25084000Y15041000D02*
X-20636000Y15041000D01*
X-25042000Y15081000D02*
X-20678000Y15081000D01*
X-24997000Y15121000D02*
X-20723000Y15121000D01*
X-24952000Y15161000D02*
X-20768000Y15161000D01*
X-24904000Y15201000D02*
X-20816000Y15201000D01*
X-24855000Y15241000D02*
X-20865000Y15241000D01*
X-24804000Y15281000D02*
X-20916000Y15281000D01*
X-24750000Y15321000D02*
X-20970000Y15321000D01*
X-24694000Y15361000D02*
X-21026000Y15361000D01*
X-24636000Y15401000D02*
X-21084000Y15401000D01*
X-24574000Y15441000D02*
X-21146000Y15441000D01*
X-24510000Y15481000D02*
X-21210000Y15481000D01*
X-24441000Y15521000D02*
X-21279000Y15521000D01*
X-24369000Y15561000D02*
X-21351000Y15561000D01*
X-24292000Y15601000D02*
X-21428000Y15601000D01*
X-24210000Y15641000D02*
X-21510000Y15641000D01*
X-24122000Y15681000D02*
X-21598000Y15681000D01*
X-24025000Y15721000D02*
X-21695000Y15721000D01*
X-23919000Y15761000D02*
X-21801000Y15761000D01*
X-23800000Y15801000D02*
X-21920000Y15801000D01*
X-23662000Y15841000D02*
X-22058000Y15841000D01*
X-23493000Y15881000D02*
X-22227000Y15881000D01*
X-23262000Y15921000D02*
X-22458000Y15921000D01*
X-19590000Y12680000D02*
G75*
G03*
X-19590000Y12680000I-3270000J0D01*
G01*
X-22632936Y-9625000D02*
X-23087064Y-9625000D01*
X-22632936Y-8155000D02*
X-23087064Y-8155000D01*
X-23087064Y-5615000D02*
X-22632936Y-5615000D01*
X-23087064Y-7085000D02*
X-22632936Y-7085000D01*
X-23087064Y-535000D02*
X-22632936Y-535000D01*
X-23087064Y-2005000D02*
X-22632936Y-2005000D01*
X-35967936Y22760000D02*
X-36422064Y22760000D01*
X-35967936Y24230000D02*
X-36422064Y24230000D01*
X-31015000Y9752064D02*
X-31015000Y9297936D01*
X-32485000Y9752064D02*
X-32485000Y9297936D01*
X-32710000Y13380000D02*
X-30790000Y13380000D01*
X-30790000Y13380000D02*
X-30790000Y16240000D01*
X-32710000Y16240000D02*
X-32710000Y13380000D01*
%LPC*%
D12*
X-21860000Y1270000D03*
X-23860000Y1270000D03*
D13*
X-41910000Y21590000D03*
D14*
X-41910000Y19050000D03*
X-41910000Y16510000D03*
X-41910000Y13970000D03*
X-41910000Y11430000D03*
X-41910000Y8890000D03*
X-44450000Y21590000D03*
X-44450000Y19050000D03*
X-44450000Y16510000D03*
X-44450000Y13970000D03*
X-44450000Y11430000D03*
X-44450000Y8890000D03*
D15*
X-31750000Y22615000D03*
X-31750000Y20565000D03*
D16*
X-28213800Y-19050000D03*
X-28213800Y-16510000D03*
X-28213800Y-13970000D03*
X-28213800Y-11430000D03*
X-28213800Y-8890000D03*
X-28213800Y-6350000D03*
X-28213800Y-3810000D03*
X-28213800Y-1270000D03*
X21620000Y-8890000D03*
X-28213800Y1270000D03*
X21620000Y-6350000D03*
X-28213800Y3810000D03*
X21620000Y-3810000D03*
X-28213800Y6350000D03*
X21620000Y-1270000D03*
X-28213800Y8890000D03*
X21620000Y1270000D03*
X-28213800Y11430000D03*
X21620000Y3810000D03*
X-28213800Y13970000D03*
X21620000Y6350000D03*
X-28213800Y16510000D03*
D17*
X21620000Y8890000D03*
X-28213800Y19050000D03*
D18*
X20760000Y-20195000D03*
X20760000Y20195000D03*
X-24040000Y-20195000D03*
X-24040000Y20195000D03*
D19*
X-22860000Y11430000D03*
D20*
X-22860000Y13930000D03*
D12*
X-21860000Y-8890000D03*
X-23860000Y-8890000D03*
D21*
X-23860000Y-6350000D03*
X-21860000Y-6350000D03*
X-23860000Y-1270000D03*
X-21860000Y-1270000D03*
D12*
X-35195000Y23495000D03*
X-37195000Y23495000D03*
D22*
X-31750000Y10525000D03*
X-31750000Y8525000D03*
D23*
X-31750000Y14215000D03*
X-31750000Y16265000D03*
M02*
