G04 #@! TF.GenerationSoftware,KiCad,Pcbnew,7.0.1*
G04 #@! TF.CreationDate,2023-04-02T16:08:21+02:00*
G04 #@! TF.ProjectId,PMOD SPI SD TFT,504d4f44-2053-4504-9920-534420544654,V1.0*
G04 #@! TF.SameCoordinates,Original*
G04 #@! TF.FileFunction,Copper,L2,Bot*
G04 #@! TF.FilePolarity,Positive*
%FSLAX46Y46*%
G04 Gerber Fmt 4.6, Leading zero omitted, Abs format (unit mm)*
G04 Created by KiCad (PCBNEW 7.0.1) date 2023-04-02 16:08:21*
%MOMM*%
%LPD*%
G01*
G04 APERTURE LIST*
G04 #@! TA.AperFunction,ComponentPad*
%ADD10R,1.700000X1.700000*%
G04 #@! TD*
G04 #@! TA.AperFunction,ComponentPad*
%ADD11O,1.700000X1.700000*%
G04 #@! TD*
G04 #@! TA.AperFunction,ComponentPad*
%ADD12C,1.524000*%
G04 #@! TD*
G04 #@! TA.AperFunction,ComponentPad*
%ADD13R,1.524000X1.524000*%
G04 #@! TD*
G04 #@! TA.AperFunction,ComponentPad*
%ADD14R,1.600000X1.600000*%
G04 #@! TD*
G04 #@! TA.AperFunction,ComponentPad*
%ADD15C,1.600000*%
G04 #@! TD*
G04 #@! TA.AperFunction,ViaPad*
%ADD16C,0.800000*%
G04 #@! TD*
G04 #@! TA.AperFunction,Conductor*
%ADD17C,0.440000*%
G04 #@! TD*
G04 #@! TA.AperFunction,Conductor*
%ADD18C,1.000000*%
G04 #@! TD*
G04 APERTURE END LIST*
D10*
X-41910000Y21590000D03*
D11*
X-41910000Y19050000D03*
X-41910000Y16510000D03*
X-41910000Y13970000D03*
X-41910000Y11430000D03*
X-41910000Y8890000D03*
X-44450000Y21590000D03*
X-44450000Y19050000D03*
X-44450000Y16510000D03*
X-44450000Y13970000D03*
X-44450000Y11430000D03*
X-44450000Y8890000D03*
D12*
X-28213800Y-19050000D03*
X-28213800Y-16510000D03*
X-28213800Y-13970000D03*
X-28213800Y-11430000D03*
X-28213800Y-8890000D03*
X-28213800Y-6350000D03*
X-28213800Y-3810000D03*
X-28213800Y-1270000D03*
X21620000Y-8890000D03*
X-28213800Y1270000D03*
X21620000Y-6350000D03*
X-28213800Y3810000D03*
X21620000Y-3810000D03*
X-28213800Y6350000D03*
X21620000Y-1270000D03*
X-28213800Y8890000D03*
X21620000Y1270000D03*
X-28213800Y11430000D03*
X21620000Y3810000D03*
X-28213800Y13970000D03*
X21620000Y6350000D03*
X-28213800Y16510000D03*
D13*
X21620000Y8890000D03*
X-28213800Y19050000D03*
D14*
X-22860000Y11430000D03*
D15*
X-22860000Y13930000D03*
D16*
X-26035000Y7620000D03*
X-36195000Y7620000D03*
X-25400000Y2540000D03*
X-20320000Y3810000D03*
X-19685000Y21336000D03*
X-31115000Y1270000D03*
X-33020000Y19050000D03*
X-34290000Y6350000D03*
X-34544000Y18796000D03*
X-18415000Y17780000D03*
X-32835500Y15240000D03*
X-29845000Y12249500D03*
D17*
X-35560000Y19812000D02*
X-33782000Y19812000D01*
X-41910000Y19050000D02*
X-36322000Y19050000D01*
X-36322000Y19050000D02*
X-35560000Y19812000D01*
X-33782000Y19812000D02*
X-33020000Y19050000D01*
X-33255143Y17780000D02*
X-18415000Y17780000D01*
X-34779143Y16256000D02*
X-33255143Y17780000D01*
X-41656000Y16256000D02*
X-34779143Y16256000D01*
X-41910000Y16510000D02*
X-41656000Y16256000D01*
X-31119501Y1265499D02*
X-31115000Y1270000D01*
X-31119501Y-10028499D02*
X-31119501Y1265499D01*
X-29718000Y-11430000D02*
X-31119501Y-10028499D01*
X-28213800Y-11430000D02*
X-29718000Y-11430000D01*
X-29210000Y-1270000D02*
X-28213800Y-1270000D01*
X-29972000Y-2032000D02*
X-29210000Y-1270000D01*
X-29210000Y-6350000D02*
X-29972000Y-5588000D01*
X-28213800Y-6350000D02*
X-29210000Y-6350000D01*
X-29972000Y-5588000D02*
X-29972000Y-2032000D01*
X-25400000Y-2540000D02*
X-25400000Y2540000D01*
X-26670000Y-3810000D02*
X-25400000Y-2540000D01*
X-28213800Y-3810000D02*
X-26670000Y-3810000D01*
X-27451800Y4572000D02*
X-28213800Y3810000D01*
X-21082000Y4572000D02*
X-27451800Y4572000D01*
X-20320000Y3810000D02*
X-21082000Y4572000D01*
X-35560000Y17780000D02*
X-34544000Y18796000D01*
X-43180000Y17780000D02*
X-35560000Y17780000D01*
X-44450000Y19050000D02*
X-43180000Y17780000D01*
D18*
X-19685000Y11430000D02*
X-22860000Y11430000D01*
X-44927499Y24287501D02*
X-20477501Y24287501D01*
X-16510000Y20320000D02*
X-16510000Y14605000D01*
X-46990000Y22225000D02*
X-44927499Y24287501D01*
X-20477501Y24287501D02*
X-16510000Y20320000D01*
X-46990000Y9906000D02*
X-46990000Y22225000D01*
X-45974000Y8890000D02*
X-46990000Y9906000D01*
X-44450000Y8890000D02*
X-45974000Y8890000D01*
X-16510000Y14605000D02*
X-19685000Y11430000D01*
D17*
X-21717000Y23368000D02*
X-19685000Y21336000D01*
X-44450000Y21590000D02*
X-42672000Y23368000D01*
X-42672000Y23368000D02*
X-21717000Y23368000D01*
X-27812199Y7620000D02*
X-26035000Y7620000D01*
X-36195000Y7620000D02*
X-27812199Y7620000D01*
X-31115000Y1270000D02*
X-28213800Y1270000D01*
X-43180000Y15240000D02*
X-32835500Y15240000D01*
X-44450000Y16510000D02*
X-43180000Y15240000D01*
X-34290000Y6350000D02*
X-28213800Y6350000D01*
X-30480000Y11430000D02*
X-28213800Y11430000D01*
X-31750000Y12700000D02*
X-30480000Y11430000D01*
X-43180000Y12700000D02*
X-31750000Y12700000D01*
X-44450000Y13970000D02*
X-43180000Y12700000D01*
X-31565500Y13970000D02*
X-29845000Y12249500D01*
X-41910000Y13970000D02*
X-31565500Y13970000D01*
G04 #@! TA.AperFunction,Conductor*
G36*
X25337500Y25382887D02*
G01*
X25382887Y25337500D01*
X25399500Y25275500D01*
X25399500Y-24005500D01*
X25382887Y-24067500D01*
X25337500Y-24112887D01*
X25275500Y-24129500D01*
X-31625500Y-24129500D01*
X-31687500Y-24112887D01*
X-31732887Y-24067500D01*
X-31749500Y-24005500D01*
X-31749500Y-20326182D01*
X-25790500Y-20326182D01*
X-25751396Y-20585615D01*
X-25674063Y-20836323D01*
X-25560228Y-21072704D01*
X-25412433Y-21289479D01*
X-25412429Y-21289482D01*
X-25412428Y-21289485D01*
X-25333273Y-21374792D01*
X-25233981Y-21481805D01*
X-25028857Y-21645386D01*
X-24801643Y-21776568D01*
X-24557416Y-21872420D01*
X-24301630Y-21930802D01*
X-24228079Y-21936313D01*
X-24105499Y-21945500D01*
X-24105494Y-21945500D01*
X-23974506Y-21945500D01*
X-23974501Y-21945500D01*
X-23834408Y-21935001D01*
X-23778370Y-21930802D01*
X-23522584Y-21872420D01*
X-23278357Y-21776568D01*
X-23051143Y-21645386D01*
X-22846019Y-21481805D01*
X-22846015Y-21481801D01*
X-22667571Y-21289485D01*
X-22655766Y-21272170D01*
X-22519772Y-21072704D01*
X-22405937Y-20836323D01*
X-22328604Y-20585615D01*
X-22289500Y-20326182D01*
X19009500Y-20326182D01*
X19048604Y-20585615D01*
X19125937Y-20836323D01*
X19239772Y-21072704D01*
X19375766Y-21272170D01*
X19387571Y-21289485D01*
X19566015Y-21481801D01*
X19566019Y-21481805D01*
X19771143Y-21645386D01*
X19998357Y-21776568D01*
X20242584Y-21872420D01*
X20498370Y-21930802D01*
X20554408Y-21935001D01*
X20694501Y-21945500D01*
X20694506Y-21945500D01*
X20825494Y-21945500D01*
X20825499Y-21945500D01*
X20948079Y-21936313D01*
X21021630Y-21930802D01*
X21277416Y-21872420D01*
X21521643Y-21776568D01*
X21748857Y-21645386D01*
X21953981Y-21481805D01*
X22053273Y-21374792D01*
X22132428Y-21289485D01*
X22132429Y-21289482D01*
X22132433Y-21289479D01*
X22280228Y-21072704D01*
X22394063Y-20836323D01*
X22471396Y-20585615D01*
X22510500Y-20326182D01*
X22510500Y-20063818D01*
X22471396Y-19804385D01*
X22394063Y-19553677D01*
X22280228Y-19317296D01*
X22132433Y-19100521D01*
X22132432Y-19100520D01*
X22132428Y-19100514D01*
X21953984Y-18908198D01*
X21953983Y-18908197D01*
X21953981Y-18908195D01*
X21748857Y-18744614D01*
X21748856Y-18744613D01*
X21521641Y-18613431D01*
X21277418Y-18517580D01*
X21021627Y-18459197D01*
X20825499Y-18444500D01*
X20825494Y-18444500D01*
X20694506Y-18444500D01*
X20694501Y-18444500D01*
X20498372Y-18459197D01*
X20242581Y-18517580D01*
X19998358Y-18613431D01*
X19771143Y-18744613D01*
X19566015Y-18908198D01*
X19387571Y-19100514D01*
X19287070Y-19247922D01*
X19239772Y-19317296D01*
X19125937Y-19553677D01*
X19048604Y-19804385D01*
X19009500Y-20063818D01*
X19009500Y-20326182D01*
X-22289500Y-20326182D01*
X-22289500Y-20063818D01*
X-22328604Y-19804385D01*
X-22405937Y-19553677D01*
X-22519772Y-19317296D01*
X-22567070Y-19247922D01*
X-22667571Y-19100514D01*
X-22846015Y-18908198D01*
X-23051143Y-18744613D01*
X-23278358Y-18613431D01*
X-23522581Y-18517580D01*
X-23778372Y-18459197D01*
X-23974501Y-18444500D01*
X-23974506Y-18444500D01*
X-24105494Y-18444500D01*
X-24105499Y-18444500D01*
X-24301627Y-18459197D01*
X-24557418Y-18517580D01*
X-24801641Y-18613431D01*
X-25028856Y-18744613D01*
X-25028857Y-18744614D01*
X-25233981Y-18908195D01*
X-25233983Y-18908197D01*
X-25233984Y-18908198D01*
X-25412428Y-19100514D01*
X-25412432Y-19100520D01*
X-25412433Y-19100521D01*
X-25560228Y-19317296D01*
X-25674063Y-19553677D01*
X-25751396Y-19804385D01*
X-25790500Y-20063818D01*
X-25790500Y-20326182D01*
X-31749500Y-20326182D01*
X-31749500Y-19050000D01*
X-29231199Y-19050000D01*
X-29211650Y-19248485D01*
X-29153754Y-19439342D01*
X-29059736Y-19615237D01*
X-28933210Y-19769410D01*
X-28779037Y-19895936D01*
X-28603142Y-19989954D01*
X-28412285Y-20047850D01*
X-28213800Y-20067399D01*
X-28015315Y-20047850D01*
X-27824458Y-19989954D01*
X-27648563Y-19895936D01*
X-27537007Y-19804385D01*
X-27494389Y-19769410D01*
X-27417302Y-19675478D01*
X-27367864Y-19615237D01*
X-27273846Y-19439342D01*
X-27273845Y-19439341D01*
X-27215950Y-19248486D01*
X-27196401Y-19049999D01*
X-27215950Y-18851513D01*
X-27273845Y-18660658D01*
X-27367863Y-18484764D01*
X-27494389Y-18330589D01*
X-27648564Y-18204063D01*
X-27824458Y-18110045D01*
X-28015313Y-18052150D01*
X-28213800Y-18032601D01*
X-28412286Y-18052150D01*
X-28603141Y-18110045D01*
X-28756320Y-18191922D01*
X-28779037Y-18204064D01*
X-28839278Y-18253502D01*
X-28933210Y-18330589D01*
X-28996472Y-18407676D01*
X-29059736Y-18484763D01*
X-29153754Y-18660658D01*
X-29211650Y-18851515D01*
X-29231199Y-19050000D01*
X-31749500Y-19050000D01*
X-31749500Y-16510000D01*
X-29231199Y-16510000D01*
X-29211650Y-16708485D01*
X-29153754Y-16899342D01*
X-29059736Y-17075237D01*
X-28933210Y-17229410D01*
X-28779037Y-17355936D01*
X-28603142Y-17449954D01*
X-28412285Y-17507850D01*
X-28213800Y-17527399D01*
X-28015315Y-17507850D01*
X-27824458Y-17449954D01*
X-27648563Y-17355936D01*
X-27571476Y-17292672D01*
X-27494389Y-17229410D01*
X-27417302Y-17135478D01*
X-27367864Y-17075237D01*
X-27273846Y-16899342D01*
X-27273845Y-16899341D01*
X-27215950Y-16708486D01*
X-27196401Y-16509999D01*
X-27215950Y-16311513D01*
X-27273845Y-16120658D01*
X-27367863Y-15944764D01*
X-27494389Y-15790589D01*
X-27648564Y-15664063D01*
X-27824458Y-15570045D01*
X-28015313Y-15512150D01*
X-28213800Y-15492601D01*
X-28412286Y-15512150D01*
X-28603141Y-15570045D01*
X-28756320Y-15651921D01*
X-28779037Y-15664064D01*
X-28839278Y-15713502D01*
X-28933210Y-15790589D01*
X-28996473Y-15867676D01*
X-29059736Y-15944763D01*
X-29153754Y-16120658D01*
X-29211650Y-16311515D01*
X-29231199Y-16510000D01*
X-31749500Y-16510000D01*
X-31749500Y-13970000D01*
X-29231199Y-13970000D01*
X-29211650Y-14168485D01*
X-29153754Y-14359342D01*
X-29059736Y-14535237D01*
X-28933210Y-14689410D01*
X-28779037Y-14815936D01*
X-28603142Y-14909954D01*
X-28412285Y-14967850D01*
X-28213800Y-14987399D01*
X-28015315Y-14967850D01*
X-27824458Y-14909954D01*
X-27648563Y-14815936D01*
X-27571476Y-14752673D01*
X-27494389Y-14689410D01*
X-27417302Y-14595478D01*
X-27367864Y-14535237D01*
X-27273846Y-14359342D01*
X-27273845Y-14359341D01*
X-27215950Y-14168486D01*
X-27196401Y-13970000D01*
X-27215950Y-13771513D01*
X-27273845Y-13580658D01*
X-27367863Y-13404764D01*
X-27494389Y-13250589D01*
X-27648564Y-13124063D01*
X-27824458Y-13030045D01*
X-28015313Y-12972150D01*
X-28213800Y-12952601D01*
X-28412286Y-12972150D01*
X-28603141Y-13030045D01*
X-28756320Y-13111921D01*
X-28779037Y-13124064D01*
X-28839278Y-13173502D01*
X-28933210Y-13250589D01*
X-28996472Y-13327676D01*
X-29059736Y-13404763D01*
X-29153754Y-13580658D01*
X-29211650Y-13771515D01*
X-29231199Y-13970000D01*
X-31749500Y-13970000D01*
X-31749500Y-10351615D01*
X-31731686Y-10287579D01*
X-31683361Y-10241942D01*
X-31618412Y-10227818D01*
X-31555499Y-10249263D01*
X-31534122Y-10274661D01*
X-31531060Y-10272008D01*
X-31519381Y-10285484D01*
X-31519381Y-10285486D01*
X-31488965Y-10320586D01*
X-31483435Y-10327449D01*
X-31475987Y-10337400D01*
X-31467210Y-10346176D01*
X-31461188Y-10352642D01*
X-31430781Y-10387735D01*
X-31430778Y-10387736D01*
X-31430779Y-10387736D01*
X-31427644Y-10389751D01*
X-31407001Y-10406384D01*
X-30095882Y-11717504D01*
X-30079256Y-11738136D01*
X-30077236Y-11741280D01*
X-30042151Y-11771680D01*
X-30035687Y-11777699D01*
X-30026901Y-11786487D01*
X-30016945Y-11793939D01*
X-30010060Y-11799487D01*
X-29974987Y-11829880D01*
X-29971593Y-11831429D01*
X-29948787Y-11844961D01*
X-29945805Y-11847194D01*
X-29902287Y-11863424D01*
X-29894162Y-11866790D01*
X-29851918Y-11886083D01*
X-29848221Y-11886614D01*
X-29822542Y-11893168D01*
X-29819040Y-11894475D01*
X-29772739Y-11897786D01*
X-29763938Y-11898732D01*
X-29751648Y-11900500D01*
X-29739229Y-11900500D01*
X-29730383Y-11900815D01*
X-29684090Y-11904127D01*
X-29684089Y-11904126D01*
X-29684089Y-11904127D01*
X-29680439Y-11903333D01*
X-29654084Y-11900500D01*
X-29184697Y-11900500D01*
X-29120949Y-11918141D01*
X-29075338Y-11966046D01*
X-29059736Y-11995237D01*
X-28933210Y-12149410D01*
X-28779037Y-12275936D01*
X-28603142Y-12369954D01*
X-28412285Y-12427850D01*
X-28213800Y-12447399D01*
X-28015315Y-12427850D01*
X-27824458Y-12369954D01*
X-27648563Y-12275936D01*
X-27571476Y-12212673D01*
X-27494389Y-12149410D01*
X-27417302Y-12055478D01*
X-27367864Y-11995237D01*
X-27326655Y-11918141D01*
X-27273845Y-11819341D01*
X-27215950Y-11628486D01*
X-27196401Y-11430000D01*
X-27215950Y-11231513D01*
X-27273845Y-11040658D01*
X-27367863Y-10864764D01*
X-27494389Y-10710589D01*
X-27648564Y-10584063D01*
X-27824458Y-10490045D01*
X-28015313Y-10432150D01*
X-28213799Y-10412601D01*
X-28313042Y-10422375D01*
X-28412286Y-10432150D01*
X-28603141Y-10490045D01*
X-28756320Y-10571922D01*
X-28779037Y-10584064D01*
X-28839278Y-10633502D01*
X-28933210Y-10710589D01*
X-29037045Y-10837115D01*
X-29059736Y-10864763D01*
X-29073057Y-10889685D01*
X-29075339Y-10893954D01*
X-29120949Y-10941859D01*
X-29184697Y-10959500D01*
X-29471750Y-10959500D01*
X-29519203Y-10950061D01*
X-29559431Y-10923181D01*
X-30540873Y-9941740D01*
X20921812Y-9941740D01*
X20986593Y-9987101D01*
X21186718Y-10080420D01*
X21400021Y-10137575D01*
X21620000Y-10156821D01*
X21839978Y-10137575D01*
X22053281Y-10080420D01*
X22253408Y-9987100D01*
X22318187Y-9941740D01*
X21620001Y-9243553D01*
X21620000Y-9243553D01*
X20921812Y-9941740D01*
X-30540873Y-9941740D01*
X-30612682Y-9869931D01*
X-30639562Y-9829703D01*
X-30649001Y-9782250D01*
X-30649001Y-8890000D01*
X-29231199Y-8890000D01*
X-29211650Y-9088485D01*
X-29153754Y-9279342D01*
X-29059736Y-9455237D01*
X-28933210Y-9609410D01*
X-28779037Y-9735936D01*
X-28603142Y-9829954D01*
X-28412285Y-9887850D01*
X-28213800Y-9907399D01*
X-28015315Y-9887850D01*
X-27824458Y-9829954D01*
X-27648563Y-9735936D01*
X-27571476Y-9672672D01*
X-27494389Y-9609410D01*
X-27417302Y-9515478D01*
X-27367864Y-9455237D01*
X-27273846Y-9279342D01*
X-27273845Y-9279341D01*
X-27215950Y-9088486D01*
X-27196401Y-8890000D01*
X20353178Y-8890000D01*
X20372424Y-9109978D01*
X20429579Y-9323281D01*
X20522898Y-9523406D01*
X20568258Y-9588187D01*
X21266446Y-8890001D01*
X21973553Y-8890001D01*
X22671740Y-9588186D01*
X22717100Y-9523408D01*
X22810420Y-9323281D01*
X22867575Y-9109978D01*
X22886821Y-8890000D01*
X22867575Y-8670021D01*
X22810421Y-8456720D01*
X22717098Y-8256589D01*
X22671740Y-8191811D01*
X21973553Y-8890000D01*
X21973553Y-8890001D01*
X21266446Y-8890001D01*
X21266446Y-8890000D01*
X20568258Y-8191811D01*
X20568258Y-8191812D01*
X20522900Y-8256589D01*
X20429578Y-8456719D01*
X20372424Y-8670021D01*
X20353178Y-8890000D01*
X-27196401Y-8890000D01*
X-27215950Y-8691513D01*
X-27273845Y-8500658D01*
X-27367863Y-8324764D01*
X-27494389Y-8170589D01*
X-27648564Y-8044063D01*
X-27824458Y-7950045D01*
X-28015313Y-7892150D01*
X-28213800Y-7872601D01*
X-28412286Y-7892150D01*
X-28603141Y-7950045D01*
X-28756320Y-8031922D01*
X-28779037Y-8044064D01*
X-28839278Y-8093502D01*
X-28933210Y-8170589D01*
X-28996473Y-8247676D01*
X-29059736Y-8324763D01*
X-29153754Y-8500658D01*
X-29211650Y-8691515D01*
X-29231199Y-8890000D01*
X-30649001Y-8890000D01*
X-30649001Y-7838258D01*
X20921811Y-7838258D01*
X21620000Y-8536446D01*
X21620001Y-8536446D01*
X22318187Y-7838258D01*
X22253406Y-7792898D01*
X22053281Y-7699579D01*
X21839978Y-7642424D01*
X21620000Y-7623178D01*
X21400021Y-7642424D01*
X21186719Y-7699578D01*
X20986589Y-7792900D01*
X20921812Y-7838258D01*
X20921811Y-7838258D01*
X-30649001Y-7838258D01*
X-30649001Y-5808192D01*
X-30631189Y-5744160D01*
X-30582871Y-5698524D01*
X-30517928Y-5684394D01*
X-30455016Y-5705829D01*
X-30412211Y-5756672D01*
X-30408808Y-5764122D01*
X-30405422Y-5772292D01*
X-30389194Y-5815805D01*
X-30387985Y-5817420D01*
X-30386960Y-5818789D01*
X-30373428Y-5841595D01*
X-30371880Y-5844987D01*
X-30341464Y-5880087D01*
X-30335934Y-5886950D01*
X-30328486Y-5896901D01*
X-30319709Y-5905677D01*
X-30313687Y-5912143D01*
X-30283280Y-5947236D01*
X-30283277Y-5947237D01*
X-30283278Y-5947237D01*
X-30280143Y-5949252D01*
X-30259500Y-5965885D01*
X-29587882Y-6637504D01*
X-29571256Y-6658136D01*
X-29569236Y-6661280D01*
X-29534151Y-6691680D01*
X-29527687Y-6697699D01*
X-29518901Y-6706487D01*
X-29508945Y-6713939D01*
X-29502060Y-6719487D01*
X-29466987Y-6749880D01*
X-29463593Y-6751429D01*
X-29440787Y-6764961D01*
X-29437805Y-6767194D01*
X-29394287Y-6783424D01*
X-29386162Y-6786790D01*
X-29343918Y-6806083D01*
X-29340221Y-6806614D01*
X-29314542Y-6813168D01*
X-29311040Y-6814475D01*
X-29264739Y-6817786D01*
X-29255938Y-6818732D01*
X-29243648Y-6820500D01*
X-29231229Y-6820500D01*
X-29222384Y-6820816D01*
X-29214249Y-6821397D01*
X-29176090Y-6824127D01*
X-29176088Y-6824126D01*
X-29174001Y-6824276D01*
X-29115341Y-6843945D01*
X-29073489Y-6889506D01*
X-29059736Y-6915237D01*
X-28933210Y-7069410D01*
X-28779037Y-7195936D01*
X-28603142Y-7289954D01*
X-28412285Y-7347850D01*
X-28213800Y-7367399D01*
X-28015315Y-7347850D01*
X-27824458Y-7289954D01*
X-27648563Y-7195936D01*
X-27571476Y-7132672D01*
X-27494389Y-7069410D01*
X-27367865Y-6915238D01*
X-27367864Y-6915237D01*
X-27354113Y-6889510D01*
X-27273845Y-6739341D01*
X-27215950Y-6548486D01*
X-27196401Y-6350000D01*
X20602601Y-6350000D01*
X20622150Y-6548486D01*
X20680045Y-6739341D01*
X20760313Y-6889510D01*
X20774064Y-6915237D01*
X20774065Y-6915238D01*
X20900589Y-7069410D01*
X20977676Y-7132672D01*
X21054763Y-7195936D01*
X21230658Y-7289954D01*
X21421515Y-7347850D01*
X21620000Y-7367399D01*
X21818485Y-7347850D01*
X22009342Y-7289954D01*
X22185237Y-7195936D01*
X22339410Y-7069410D01*
X22465936Y-6915237D01*
X22559954Y-6739342D01*
X22617850Y-6548485D01*
X22637399Y-6350000D01*
X22617850Y-6151515D01*
X22559954Y-5960658D01*
X22465936Y-5784763D01*
X22395162Y-5698524D01*
X22339410Y-5630589D01*
X22225883Y-5537421D01*
X22185237Y-5504064D01*
X22162520Y-5491921D01*
X22009341Y-5410045D01*
X21818486Y-5352150D01*
X21620000Y-5332601D01*
X21421513Y-5352150D01*
X21230658Y-5410045D01*
X21054764Y-5504063D01*
X20900589Y-5630589D01*
X20774063Y-5784764D01*
X20680045Y-5960658D01*
X20622150Y-6151513D01*
X20602601Y-6350000D01*
X-27196401Y-6350000D01*
X-27215950Y-6151513D01*
X-27273845Y-5960658D01*
X-27367863Y-5784764D01*
X-27494389Y-5630589D01*
X-27648564Y-5504063D01*
X-27824458Y-5410045D01*
X-28015313Y-5352150D01*
X-28213800Y-5332601D01*
X-28412286Y-5352150D01*
X-28603141Y-5410045D01*
X-28756320Y-5491922D01*
X-28779037Y-5504064D01*
X-28819683Y-5537421D01*
X-28933210Y-5630589D01*
X-28995531Y-5706528D01*
X-29051526Y-5745283D01*
X-29119542Y-5748625D01*
X-29179064Y-5715546D01*
X-29465183Y-5429429D01*
X-29492061Y-5389204D01*
X-29501500Y-5341751D01*
X-29501500Y-3810000D01*
X-29231199Y-3810000D01*
X-29211650Y-4008485D01*
X-29153754Y-4199342D01*
X-29059736Y-4375237D01*
X-28933210Y-4529410D01*
X-28779037Y-4655936D01*
X-28603142Y-4749954D01*
X-28412285Y-4807850D01*
X-28213800Y-4827399D01*
X-28015315Y-4807850D01*
X-27824458Y-4749954D01*
X-27648563Y-4655936D01*
X-27571476Y-4592672D01*
X-27494389Y-4529410D01*
X-27367864Y-4375237D01*
X-27352261Y-4346046D01*
X-27306651Y-4298141D01*
X-27242903Y-4280500D01*
X-26733909Y-4280500D01*
X-26707551Y-4283333D01*
X-26703910Y-4284126D01*
X-26703908Y-4284125D01*
X-26703908Y-4284126D01*
X-26657626Y-4280816D01*
X-26648780Y-4280500D01*
X-26636356Y-4280500D01*
X-26636352Y-4280500D01*
X-26624032Y-4278728D01*
X-26615255Y-4277785D01*
X-26581232Y-4275352D01*
X-26568957Y-4274475D01*
X-26565458Y-4273170D01*
X-26539776Y-4266614D01*
X-26536082Y-4266083D01*
X-26530178Y-4263386D01*
X-26493855Y-4246799D01*
X-26485686Y-4243414D01*
X-26442195Y-4227194D01*
X-26439207Y-4224957D01*
X-26416411Y-4211432D01*
X-26415337Y-4210941D01*
X-26413013Y-4209880D01*
X-26377923Y-4179474D01*
X-26371031Y-4173921D01*
X-26361098Y-4166485D01*
X-26352322Y-4157709D01*
X-26345844Y-4151678D01*
X-26310762Y-4121279D01*
X-26308741Y-4118134D01*
X-26292110Y-4097497D01*
X-26004612Y-3809999D01*
X20602601Y-3809999D01*
X20622150Y-4008486D01*
X20680045Y-4199341D01*
X20722480Y-4278731D01*
X20774064Y-4375237D01*
X20823502Y-4435478D01*
X20900589Y-4529410D01*
X20977676Y-4592672D01*
X21054763Y-4655936D01*
X21230658Y-4749954D01*
X21421515Y-4807850D01*
X21620000Y-4827399D01*
X21818485Y-4807850D01*
X22009342Y-4749954D01*
X22185237Y-4655936D01*
X22339410Y-4529410D01*
X22465936Y-4375237D01*
X22559954Y-4199342D01*
X22617850Y-4008485D01*
X22637399Y-3810000D01*
X22617850Y-3611515D01*
X22559954Y-3420658D01*
X22465936Y-3244763D01*
X22402672Y-3167676D01*
X22339410Y-3090589D01*
X22245478Y-3013502D01*
X22185237Y-2964064D01*
X22098848Y-2917888D01*
X22009341Y-2870045D01*
X21818486Y-2812150D01*
X21620000Y-2792601D01*
X21421513Y-2812150D01*
X21230658Y-2870045D01*
X21054764Y-2964063D01*
X20900589Y-3090589D01*
X20774063Y-3244764D01*
X20680045Y-3420658D01*
X20622150Y-3611513D01*
X20602601Y-3809999D01*
X-26004612Y-3809999D01*
X-25112501Y-2917888D01*
X-25091860Y-2901254D01*
X-25088720Y-2899236D01*
X-25058321Y-2864154D01*
X-25052287Y-2857674D01*
X-25043517Y-2848904D01*
X-25043514Y-2848901D01*
X-25036065Y-2838951D01*
X-25030520Y-2832070D01*
X-25013259Y-2812150D01*
X-25000120Y-2796987D01*
X-24998566Y-2793585D01*
X-24985043Y-2770794D01*
X-24982805Y-2767804D01*
X-24966584Y-2724312D01*
X-24963196Y-2716132D01*
X-24943917Y-2673917D01*
X-24943385Y-2670218D01*
X-24936832Y-2644545D01*
X-24935525Y-2641040D01*
X-24932213Y-2594742D01*
X-24931268Y-2585949D01*
X-24929500Y-2573648D01*
X-24929500Y-2561220D01*
X-24929184Y-2552374D01*
X-24925873Y-2506091D01*
X-24926666Y-2502450D01*
X-24929500Y-2476091D01*
X-24929500Y-1269999D01*
X20602601Y-1269999D01*
X20622150Y-1468486D01*
X20680045Y-1659341D01*
X20741874Y-1775014D01*
X20774064Y-1835237D01*
X20807387Y-1875841D01*
X20900589Y-1989410D01*
X20977676Y-2052673D01*
X21054763Y-2115936D01*
X21230658Y-2209954D01*
X21421515Y-2267850D01*
X21620000Y-2287399D01*
X21818485Y-2267850D01*
X22009342Y-2209954D01*
X22185237Y-2115936D01*
X22339410Y-1989410D01*
X22465936Y-1835237D01*
X22559954Y-1659342D01*
X22617850Y-1468485D01*
X22637399Y-1270000D01*
X22617850Y-1071515D01*
X22559954Y-880658D01*
X22465936Y-704763D01*
X22402673Y-627676D01*
X22339410Y-550589D01*
X22245478Y-473502D01*
X22185237Y-424064D01*
X22162520Y-411921D01*
X22009341Y-330045D01*
X21818486Y-272150D01*
X21620000Y-252601D01*
X21421513Y-272150D01*
X21230658Y-330045D01*
X21054764Y-424063D01*
X20900589Y-550589D01*
X20774063Y-704764D01*
X20680045Y-880658D01*
X20622150Y-1071513D01*
X20602601Y-1269999D01*
X-24929500Y-1269999D01*
X-24929500Y1270000D01*
X20602601Y1270000D01*
X20622150Y1071513D01*
X20680045Y880658D01*
X20774063Y704764D01*
X20900589Y550589D01*
X21054764Y424063D01*
X21230658Y330045D01*
X21421513Y272150D01*
X21620000Y252601D01*
X21818486Y272150D01*
X22009341Y330045D01*
X22185235Y424063D01*
X22185237Y424064D01*
X22245478Y473502D01*
X22339410Y550589D01*
X22402673Y627676D01*
X22465936Y704763D01*
X22559954Y880658D01*
X22617850Y1071515D01*
X22637399Y1270000D01*
X22617850Y1468485D01*
X22559954Y1659342D01*
X22465936Y1835237D01*
X22339410Y1989410D01*
X22185237Y2115936D01*
X22009342Y2209954D01*
X21818485Y2267850D01*
X21620000Y2287399D01*
X21421515Y2267850D01*
X21230658Y2209954D01*
X21054763Y2115936D01*
X21020439Y2087767D01*
X20900589Y1989410D01*
X20844037Y1920500D01*
X20774064Y1835237D01*
X20774063Y1835235D01*
X20680045Y1659341D01*
X20622150Y1468486D01*
X20602601Y1270000D01*
X-24929500Y1270000D01*
X-24929500Y2037879D01*
X-24923885Y2074769D01*
X-24907550Y2108319D01*
X-24819780Y2235476D01*
X-24763763Y2383181D01*
X-24744721Y2540000D01*
X-24763763Y2696818D01*
X-24819780Y2844523D01*
X-24909515Y2974528D01*
X-24909517Y2974530D01*
X-25027760Y3079283D01*
X-25167635Y3152696D01*
X-25321015Y3190500D01*
X-25478985Y3190500D01*
X-25632365Y3152696D01*
X-25772240Y3079283D01*
X-25890483Y2974530D01*
X-25980220Y2844523D01*
X-26036237Y2696818D01*
X-26055278Y2540000D01*
X-26036237Y2383182D01*
X-25980220Y2235477D01*
X-25980219Y2235476D01*
X-25892450Y2108319D01*
X-25876115Y2074769D01*
X-25870500Y2037879D01*
X-25870500Y-2293751D01*
X-25879939Y-2341204D01*
X-25906819Y-2381432D01*
X-26828568Y-3303181D01*
X-26868796Y-3330061D01*
X-26916249Y-3339500D01*
X-27242903Y-3339500D01*
X-27306651Y-3321859D01*
X-27352261Y-3273954D01*
X-27367864Y-3244762D01*
X-27494389Y-3090589D01*
X-27648564Y-2964063D01*
X-27824458Y-2870045D01*
X-28015313Y-2812150D01*
X-28213799Y-2792601D01*
X-28313042Y-2802375D01*
X-28412286Y-2812150D01*
X-28603141Y-2870045D01*
X-28692648Y-2917888D01*
X-28779037Y-2964064D01*
X-28839278Y-3013502D01*
X-28933210Y-3090589D01*
X-28996472Y-3167676D01*
X-29059736Y-3244763D01*
X-29153754Y-3420658D01*
X-29211650Y-3611515D01*
X-29231199Y-3810000D01*
X-29501500Y-3810000D01*
X-29501500Y-2278249D01*
X-29492061Y-2230796D01*
X-29465181Y-2190568D01*
X-29179066Y-1904454D01*
X-29119542Y-1871374D01*
X-29051526Y-1874716D01*
X-28995531Y-1913470D01*
X-28933210Y-1989410D01*
X-28779037Y-2115936D01*
X-28603142Y-2209954D01*
X-28412285Y-2267850D01*
X-28213800Y-2287399D01*
X-28015315Y-2267850D01*
X-27824458Y-2209954D01*
X-27648563Y-2115936D01*
X-27571476Y-2052673D01*
X-27494389Y-1989410D01*
X-27401187Y-1875841D01*
X-27367864Y-1835237D01*
X-27335674Y-1775014D01*
X-27273845Y-1659341D01*
X-27215950Y-1468486D01*
X-27196401Y-1269999D01*
X-27215950Y-1071513D01*
X-27273845Y-880658D01*
X-27367863Y-704764D01*
X-27494389Y-550589D01*
X-27648564Y-424063D01*
X-27824458Y-330045D01*
X-28015313Y-272150D01*
X-28213800Y-252601D01*
X-28412286Y-272150D01*
X-28603141Y-330045D01*
X-28756320Y-411921D01*
X-28779037Y-424064D01*
X-28839278Y-473502D01*
X-28933210Y-550589D01*
X-29021256Y-657875D01*
X-29059736Y-704763D01*
X-29073489Y-730493D01*
X-29115340Y-776053D01*
X-29173998Y-795723D01*
X-29209801Y-798284D01*
X-29222384Y-799184D01*
X-29231229Y-799500D01*
X-29243650Y-799500D01*
X-29255935Y-801266D01*
X-29264731Y-802212D01*
X-29311042Y-805525D01*
X-29314544Y-806831D01*
X-29340216Y-813384D01*
X-29343920Y-813916D01*
X-29386142Y-833198D01*
X-29394315Y-836584D01*
X-29437804Y-852805D01*
X-29440788Y-855039D01*
X-29463585Y-868566D01*
X-29466985Y-870119D01*
X-29466987Y-870120D01*
X-29479148Y-880658D01*
X-29502062Y-900513D01*
X-29508953Y-906066D01*
X-29518902Y-913514D01*
X-29527683Y-922295D01*
X-29534160Y-928326D01*
X-29569236Y-958720D01*
X-29571255Y-961862D01*
X-29587886Y-982498D01*
X-30259498Y-1654111D01*
X-30280136Y-1670743D01*
X-30283280Y-1672764D01*
X-30313678Y-1707844D01*
X-30319709Y-1714322D01*
X-30328485Y-1723098D01*
X-30335921Y-1733031D01*
X-30341474Y-1739923D01*
X-30371880Y-1775013D01*
X-30371880Y-1775014D01*
X-30373432Y-1778411D01*
X-30386957Y-1801207D01*
X-30389194Y-1804195D01*
X-30405410Y-1847675D01*
X-30408797Y-1855852D01*
X-30412205Y-1863315D01*
X-30455008Y-1914164D01*
X-30517920Y-1935605D01*
X-30582867Y-1921477D01*
X-30631188Y-1875841D01*
X-30649001Y-1811807D01*
X-30649001Y675500D01*
X-30632388Y737500D01*
X-30587001Y782887D01*
X-30525001Y799500D01*
X-29184697Y799500D01*
X-29120949Y781859D01*
X-29075339Y733954D01*
X-29059737Y704764D01*
X-29059735Y704762D01*
X-28933210Y550589D01*
X-28839278Y473502D01*
X-28779037Y424064D01*
X-28779035Y424063D01*
X-28603141Y330045D01*
X-28412286Y272150D01*
X-28213800Y252601D01*
X-28015313Y272150D01*
X-27824458Y330045D01*
X-27648564Y424063D01*
X-27494389Y550589D01*
X-27367863Y704764D01*
X-27273845Y880658D01*
X-27215950Y1071513D01*
X-27196401Y1270000D01*
X-27215950Y1468486D01*
X-27273845Y1659341D01*
X-27367863Y1835235D01*
X-27367864Y1835237D01*
X-27437837Y1920500D01*
X-27494389Y1989410D01*
X-27614239Y2087767D01*
X-27648563Y2115936D01*
X-27824458Y2209954D01*
X-28015315Y2267850D01*
X-28213800Y2287399D01*
X-28412285Y2267850D01*
X-28603142Y2209954D01*
X-28779037Y2115936D01*
X-28933210Y1989410D01*
X-29059736Y1835237D01*
X-29073609Y1809283D01*
X-29075339Y1806046D01*
X-29120949Y1758141D01*
X-29184697Y1740500D01*
X-30618092Y1740500D01*
X-30662062Y1748558D01*
X-30700317Y1771683D01*
X-30742758Y1809281D01*
X-30742760Y1809283D01*
X-30882635Y1882696D01*
X-31036015Y1920500D01*
X-31193985Y1920500D01*
X-31347365Y1882696D01*
X-31487240Y1809283D01*
X-31529682Y1771683D01*
X-31543274Y1759642D01*
X-31592925Y1732813D01*
X-31649324Y1730768D01*
X-31700789Y1753931D01*
X-31736657Y1797502D01*
X-31749500Y1852458D01*
X-31749500Y3810000D01*
X-29231199Y3810000D01*
X-29211650Y3611515D01*
X-29153754Y3420658D01*
X-29059736Y3244763D01*
X-28996472Y3167676D01*
X-28933210Y3090589D01*
X-28839278Y3013502D01*
X-28779037Y2964064D01*
X-28779035Y2964063D01*
X-28603141Y2870045D01*
X-28412286Y2812150D01*
X-28213800Y2792601D01*
X-28015313Y2812150D01*
X-27824458Y2870045D01*
X-27648564Y2964063D01*
X-27494389Y3090589D01*
X-27367863Y3244764D01*
X-27273845Y3420658D01*
X-27215950Y3611513D01*
X-27196401Y3810000D01*
X-27211701Y3965346D01*
X-27199510Y4032344D01*
X-27153778Y4082801D01*
X-27088298Y4101500D01*
X-21328249Y4101500D01*
X-21280796Y4092061D01*
X-21240568Y4065181D01*
X-21004137Y3828750D01*
X-20980331Y3795352D01*
X-20968722Y3756016D01*
X-20956237Y3653182D01*
X-20900220Y3505477D01*
X-20810483Y3375470D01*
X-20692240Y3270717D01*
X-20692238Y3270716D01*
X-20552364Y3197303D01*
X-20398985Y3159500D01*
X-20241015Y3159500D01*
X-20087635Y3197303D01*
X-19947761Y3270716D01*
X-19829515Y3375471D01*
X-19739780Y3505476D01*
X-19683763Y3653181D01*
X-19664721Y3810000D01*
X20602601Y3810000D01*
X20622150Y3611513D01*
X20680045Y3420658D01*
X20774063Y3244764D01*
X20900589Y3090589D01*
X21054764Y2964063D01*
X21230658Y2870045D01*
X21421513Y2812150D01*
X21619999Y2792601D01*
X21620000Y2792601D01*
X21719242Y2802375D01*
X21818486Y2812150D01*
X22009341Y2870045D01*
X22185235Y2964063D01*
X22185237Y2964064D01*
X22245478Y3013502D01*
X22339410Y3090589D01*
X22402672Y3167676D01*
X22465936Y3244763D01*
X22559954Y3420658D01*
X22617850Y3611515D01*
X22637399Y3810000D01*
X22617850Y4008485D01*
X22559954Y4199342D01*
X22465936Y4375237D01*
X22339410Y4529410D01*
X22185237Y4655936D01*
X22009342Y4749954D01*
X21818485Y4807850D01*
X21620000Y4827399D01*
X21421515Y4807850D01*
X21230658Y4749954D01*
X21054763Y4655936D01*
X20977676Y4592672D01*
X20900589Y4529410D01*
X20844037Y4460500D01*
X20774064Y4375237D01*
X20774063Y4375235D01*
X20680045Y4199341D01*
X20622150Y4008486D01*
X20602601Y3810000D01*
X-19664721Y3810000D01*
X-19683763Y3966818D01*
X-19739780Y4114523D01*
X-19829515Y4244528D01*
X-19829517Y4244530D01*
X-19947760Y4349283D01*
X-20087635Y4422696D01*
X-20241015Y4460500D01*
X-20253750Y4460500D01*
X-20301203Y4469939D01*
X-20341431Y4496819D01*
X-20704111Y4859498D01*
X-20720743Y4880136D01*
X-20722764Y4883280D01*
X-20757844Y4913678D01*
X-20764322Y4919709D01*
X-20773098Y4928485D01*
X-20773101Y4928487D01*
X-20783031Y4935921D01*
X-20789924Y4941475D01*
X-20789944Y4941492D01*
X-20825013Y4971880D01*
X-20828411Y4973432D01*
X-20851207Y4986957D01*
X-20854195Y4989194D01*
X-20897686Y5005414D01*
X-20905855Y5008799D01*
X-20948078Y5028081D01*
X-20948082Y5028083D01*
X-20951776Y5028614D01*
X-20977458Y5035170D01*
X-20980957Y5036475D01*
X-20993232Y5037352D01*
X-21027255Y5039785D01*
X-21036032Y5040728D01*
X-21048352Y5042500D01*
X-21048356Y5042500D01*
X-21060780Y5042500D01*
X-21069626Y5042816D01*
X-21115908Y5046126D01*
X-21115908Y5046125D01*
X-21115910Y5046126D01*
X-21119551Y5045333D01*
X-21145909Y5042500D01*
X-27387884Y5042500D01*
X-27414239Y5045333D01*
X-27417889Y5046127D01*
X-27417889Y5046126D01*
X-27417890Y5046127D01*
X-27464183Y5042815D01*
X-27473029Y5042500D01*
X-27485448Y5042500D01*
X-27497738Y5040732D01*
X-27506539Y5039786D01*
X-27552840Y5036475D01*
X-27556342Y5035168D01*
X-27582021Y5028614D01*
X-27585718Y5028083D01*
X-27627962Y5008790D01*
X-27636087Y5005424D01*
X-27679605Y4989194D01*
X-27682586Y4986962D01*
X-27705393Y4973429D01*
X-27708787Y4971880D01*
X-27743855Y4941492D01*
X-27750745Y4935939D01*
X-27760701Y4928487D01*
X-27769478Y4919709D01*
X-27769484Y4919703D01*
X-27775951Y4913680D01*
X-27811036Y4883280D01*
X-27813056Y4880136D01*
X-27829682Y4859504D01*
X-27859967Y4829219D01*
X-27917517Y4796618D01*
X-27983642Y4798241D01*
X-28015315Y4807850D01*
X-28213800Y4827399D01*
X-28412285Y4807850D01*
X-28603142Y4749954D01*
X-28779037Y4655936D01*
X-28933210Y4529410D01*
X-29059736Y4375237D01*
X-29153754Y4199342D01*
X-29211650Y4008485D01*
X-29231199Y3810000D01*
X-31749500Y3810000D01*
X-31749500Y5055240D01*
X-31749471Y5055383D01*
X-31749476Y5055384D01*
X-31749459Y5080000D01*
X-31749615Y5080381D01*
X-31749616Y5080382D01*
X-31749617Y5080383D01*
X-31749715Y5080423D01*
X-31749803Y5080460D01*
X-31750000Y5080541D01*
X-31774554Y5080541D01*
X-31774760Y5080500D01*
X-48135500Y5080500D01*
X-48197500Y5097113D01*
X-48242887Y5142500D01*
X-48259500Y5204500D01*
X-48259500Y7620000D01*
X-36850278Y7620000D01*
X-36831237Y7463182D01*
X-36775220Y7315477D01*
X-36685483Y7185470D01*
X-36567240Y7080717D01*
X-36567238Y7080716D01*
X-36427364Y7007303D01*
X-36273985Y6969500D01*
X-36116015Y6969500D01*
X-35962635Y7007303D01*
X-35822758Y7080718D01*
X-35780317Y7118317D01*
X-35742062Y7141442D01*
X-35698092Y7149500D01*
X-34669526Y7149500D01*
X-34606663Y7132384D01*
X-34561154Y7085762D01*
X-34545562Y7022505D01*
X-34564191Y6960074D01*
X-34611898Y6915704D01*
X-34662240Y6889283D01*
X-34780483Y6784530D01*
X-34870220Y6654523D01*
X-34926237Y6506818D01*
X-34945278Y6350000D01*
X-34926237Y6193182D01*
X-34870220Y6045477D01*
X-34780483Y5915470D01*
X-34662240Y5810717D01*
X-34662238Y5810716D01*
X-34522364Y5737303D01*
X-34368985Y5699500D01*
X-34211015Y5699500D01*
X-34057635Y5737303D01*
X-33917758Y5810718D01*
X-33875317Y5848317D01*
X-33837062Y5871442D01*
X-33793092Y5879500D01*
X-29184697Y5879500D01*
X-29120949Y5861859D01*
X-29075339Y5813954D01*
X-29059737Y5784764D01*
X-29059735Y5784762D01*
X-28933210Y5630589D01*
X-28839278Y5553502D01*
X-28779037Y5504064D01*
X-28779035Y5504063D01*
X-28603141Y5410045D01*
X-28412286Y5352150D01*
X-28213800Y5332601D01*
X-28015313Y5352150D01*
X-27824458Y5410045D01*
X-27648564Y5504063D01*
X-27494389Y5630589D01*
X-27367863Y5784764D01*
X-27273845Y5960658D01*
X-27215950Y6151513D01*
X-27196401Y6350000D01*
X20602601Y6350000D01*
X20622150Y6151513D01*
X20680045Y5960658D01*
X20774063Y5784764D01*
X20900589Y5630589D01*
X21054764Y5504063D01*
X21230658Y5410045D01*
X21421513Y5352150D01*
X21620000Y5332601D01*
X21818486Y5352150D01*
X22009341Y5410045D01*
X22185235Y5504063D01*
X22185237Y5504064D01*
X22245478Y5553502D01*
X22339410Y5630589D01*
X22402673Y5707676D01*
X22465936Y5784763D01*
X22559954Y5960658D01*
X22617850Y6151515D01*
X22637399Y6350000D01*
X22617850Y6548485D01*
X22559954Y6739342D01*
X22465936Y6915237D01*
X22339410Y7069410D01*
X22185237Y7195936D01*
X22009342Y7289954D01*
X21818485Y7347850D01*
X21620000Y7367399D01*
X21421515Y7347850D01*
X21230658Y7289954D01*
X21054763Y7195936D01*
X20988362Y7141442D01*
X20900589Y7069410D01*
X20862096Y7022505D01*
X20774064Y6915237D01*
X20774063Y6915235D01*
X20680045Y6739341D01*
X20622150Y6548486D01*
X20602601Y6350000D01*
X-27196401Y6350000D01*
X-27215950Y6548486D01*
X-27273845Y6739341D01*
X-27367863Y6915236D01*
X-27393796Y6946835D01*
X-27421010Y7010321D01*
X-27410038Y7078517D01*
X-27364283Y7130262D01*
X-27297943Y7149500D01*
X-26531908Y7149500D01*
X-26487938Y7141442D01*
X-26449683Y7118317D01*
X-26413103Y7085911D01*
X-26407240Y7080717D01*
X-26337302Y7044010D01*
X-26267364Y7007303D01*
X-26113985Y6969500D01*
X-25956015Y6969500D01*
X-25802635Y7007303D01*
X-25662761Y7080716D01*
X-25544515Y7185471D01*
X-25454780Y7315476D01*
X-25398763Y7463181D01*
X-25379722Y7620000D01*
X-25398763Y7776818D01*
X-25454780Y7924523D01*
X-25544515Y8054528D01*
X-25544517Y8054530D01*
X-25599596Y8103325D01*
X20607500Y8103325D01*
X20622033Y8030261D01*
X20677399Y7947399D01*
X20760261Y7892033D01*
X20833325Y7877500D01*
X20833326Y7877500D01*
X22406674Y7877500D01*
X22406675Y7877500D01*
X22479738Y7892033D01*
X22479739Y7892033D01*
X22479740Y7892034D01*
X22562601Y7947399D01*
X22617966Y8030260D01*
X22632500Y8103326D01*
X22632500Y9676674D01*
X22617966Y9749740D01*
X22562601Y9832601D01*
X22479740Y9887966D01*
X22431029Y9897655D01*
X22406675Y9902500D01*
X22406674Y9902500D01*
X20833326Y9902500D01*
X20833325Y9902500D01*
X20796792Y9895232D01*
X20760260Y9887966D01*
X20677399Y9832601D01*
X20636895Y9771981D01*
X20622033Y9749738D01*
X20607500Y9676675D01*
X20607500Y8103325D01*
X-25599596Y8103325D01*
X-25662760Y8159283D01*
X-25802635Y8232696D01*
X-25956015Y8270500D01*
X-26113985Y8270500D01*
X-26267365Y8232696D01*
X-26407240Y8159283D01*
X-26422887Y8145421D01*
X-26449683Y8121683D01*
X-26487938Y8098558D01*
X-26531908Y8090500D01*
X-27297943Y8090500D01*
X-27364283Y8109738D01*
X-27410038Y8161483D01*
X-27421010Y8229679D01*
X-27393796Y8293165D01*
X-27367863Y8324763D01*
X-27273845Y8500658D01*
X-27215950Y8691513D01*
X-27196401Y8890000D01*
X-27215950Y9088486D01*
X-27273845Y9279341D01*
X-27367863Y9455235D01*
X-27367864Y9455237D01*
X-27474741Y9585468D01*
X-27494389Y9609410D01*
X-27576353Y9676675D01*
X-27648563Y9735936D01*
X-27824458Y9829954D01*
X-28015315Y9887850D01*
X-28213800Y9907399D01*
X-28412285Y9887850D01*
X-28603142Y9829954D01*
X-28779037Y9735936D01*
X-28933210Y9609410D01*
X-29059736Y9455237D01*
X-29153754Y9279342D01*
X-29211650Y9088485D01*
X-29231199Y8890000D01*
X-29211650Y8691515D01*
X-29153754Y8500658D01*
X-29059736Y8324763D01*
X-29046128Y8308181D01*
X-29033804Y8293165D01*
X-29006590Y8229679D01*
X-29017562Y8161483D01*
X-29063317Y8109738D01*
X-29129657Y8090500D01*
X-35698092Y8090500D01*
X-35742062Y8098558D01*
X-35780317Y8121683D01*
X-35812456Y8150154D01*
X-35822760Y8159283D01*
X-35962635Y8232696D01*
X-36116015Y8270500D01*
X-36273985Y8270500D01*
X-36427365Y8232696D01*
X-36567240Y8159283D01*
X-36685483Y8054530D01*
X-36775220Y7924523D01*
X-36831237Y7776818D01*
X-36850278Y7620000D01*
X-48259500Y7620000D01*
X-48259500Y9927977D01*
X-47745289Y9927977D01*
X-47741778Y9887849D01*
X-47740972Y9878631D01*
X-47740500Y9867824D01*
X-47740500Y9862289D01*
X-47736903Y9831521D01*
X-47736536Y9827929D01*
X-47731642Y9771981D01*
X-47729889Y9751949D01*
X-47725672Y9732930D01*
X-47699592Y9661274D01*
X-47698408Y9657868D01*
X-47674417Y9585468D01*
X-47665929Y9567936D01*
X-47665237Y9566884D01*
X-47665237Y9566883D01*
X-47623999Y9504184D01*
X-47622087Y9501181D01*
X-47582050Y9436270D01*
X-47569750Y9421172D01*
X-47514290Y9368848D01*
X-47511703Y9366335D01*
X-46549728Y8404360D01*
X-46537946Y8390727D01*
X-46523609Y8371469D01*
X-46485666Y8339631D01*
X-46477691Y8332323D01*
X-46473777Y8328409D01*
X-46449423Y8309152D01*
X-46446647Y8306890D01*
X-46388251Y8257890D01*
X-46371821Y8247422D01*
X-46302691Y8215186D01*
X-46299447Y8213615D01*
X-46231306Y8179394D01*
X-46212903Y8172997D01*
X-46138211Y8157574D01*
X-46134692Y8156794D01*
X-46060490Y8139208D01*
X-46041121Y8137229D01*
X-45964869Y8139448D01*
X-45961263Y8139500D01*
X-45308307Y8139500D01*
X-45263513Y8131127D01*
X-45224769Y8107137D01*
X-45116041Y8008018D01*
X-44942638Y7900652D01*
X-44752457Y7826976D01*
X-44685629Y7814483D01*
X-44551976Y7789500D01*
X-44348026Y7789500D01*
X-44348024Y7789500D01*
X-44247784Y7808237D01*
X-44147542Y7826976D01*
X-43957361Y7900652D01*
X-43783958Y8008018D01*
X-43633236Y8145419D01*
X-43510324Y8308181D01*
X-43419418Y8490748D01*
X-43363602Y8686916D01*
X-43344785Y8890000D01*
X-43363602Y9093083D01*
X-43419418Y9289251D01*
X-43510324Y9471818D01*
X-43633236Y9634580D01*
X-43783958Y9771981D01*
X-43957361Y9879347D01*
X-43957362Y9879347D01*
X-43957363Y9879348D01*
X-44038286Y9910697D01*
X-44088398Y9946519D01*
X-44115089Y10002037D01*
X-44111771Y10063548D01*
X-44079263Y10115873D01*
X-44025586Y10146097D01*
X-43986511Y10156567D01*
X-43772423Y10256399D01*
X-43578918Y10391893D01*
X-43411893Y10558918D01*
X-43281575Y10745031D01*
X-43237257Y10783896D01*
X-43180000Y10797907D01*
X-43122743Y10783896D01*
X-43078425Y10745031D01*
X-42948106Y10558918D01*
X-42781081Y10391893D01*
X-42587576Y10256399D01*
X-42373488Y10156567D01*
X-42334413Y10146097D01*
X-42280736Y10115873D01*
X-42248228Y10063549D01*
X-42244910Y10002037D01*
X-42271601Y9946519D01*
X-42321713Y9910697D01*
X-42402637Y9879348D01*
X-42576041Y9771981D01*
X-42726764Y9634579D01*
X-42777885Y9566883D01*
X-42849675Y9471818D01*
X-42874893Y9421172D01*
X-42940582Y9289250D01*
X-42996397Y9093083D01*
X-43015215Y8890000D01*
X-42997992Y8704138D01*
X-42996397Y8686916D01*
X-42940581Y8490748D01*
X-42849675Y8308181D01*
X-42726763Y8145419D01*
X-42576041Y8008018D01*
X-42402638Y7900652D01*
X-42212457Y7826976D01*
X-42145629Y7814483D01*
X-42011976Y7789500D01*
X-41808026Y7789500D01*
X-41808024Y7789500D01*
X-41707784Y7808237D01*
X-41607542Y7826976D01*
X-41417361Y7900652D01*
X-41243958Y8008018D01*
X-41093236Y8145419D01*
X-40970324Y8308181D01*
X-40879418Y8490748D01*
X-40823602Y8686916D01*
X-40804785Y8890000D01*
X-40823602Y9093083D01*
X-40879418Y9289251D01*
X-40970324Y9471818D01*
X-41093236Y9634580D01*
X-41243958Y9771981D01*
X-41417361Y9879347D01*
X-41417362Y9879347D01*
X-41417363Y9879348D01*
X-41498286Y9910697D01*
X-41548398Y9946519D01*
X-41575089Y10002037D01*
X-41571771Y10063548D01*
X-41539263Y10115873D01*
X-41485586Y10146097D01*
X-41446511Y10156567D01*
X-41232423Y10256399D01*
X-41038918Y10391893D01*
X-40871893Y10558918D01*
X-40736399Y10752423D01*
X-40636569Y10966507D01*
X-40579364Y11180000D01*
X-45780636Y11180000D01*
X-45723430Y10966507D01*
X-45623600Y10752423D01*
X-45488106Y10558918D01*
X-45321081Y10391893D01*
X-45127576Y10256399D01*
X-44913488Y10156567D01*
X-44874413Y10146097D01*
X-44820736Y10115873D01*
X-44788228Y10063549D01*
X-44784910Y10002037D01*
X-44811601Y9946519D01*
X-44861713Y9910697D01*
X-44920693Y9887849D01*
X-44942637Y9879348D01*
X-45116041Y9771981D01*
X-45224769Y9672863D01*
X-45263513Y9648873D01*
X-45308307Y9640500D01*
X-45611770Y9640500D01*
X-45659223Y9649939D01*
X-45699451Y9676819D01*
X-46203181Y10180549D01*
X-46230061Y10220777D01*
X-46239500Y10268230D01*
X-46239500Y11680000D01*
X-45780635Y11680000D01*
X-40579364Y11680000D01*
X-40636569Y11893492D01*
X-40710994Y12053095D01*
X-40722347Y12113610D01*
X-40703193Y12172125D01*
X-40658255Y12214214D01*
X-40598612Y12229500D01*
X-31996249Y12229500D01*
X-31948796Y12220061D01*
X-31908568Y12193181D01*
X-30857888Y11142501D01*
X-30841254Y11121860D01*
X-30839236Y11118720D01*
X-30804154Y11088321D01*
X-30797674Y11082287D01*
X-30788901Y11073514D01*
X-30778951Y11066065D01*
X-30772075Y11060524D01*
X-30736987Y11030120D01*
X-30736985Y11030119D01*
X-30733585Y11028566D01*
X-30710794Y11015043D01*
X-30707804Y11012805D01*
X-30664312Y10996584D01*
X-30656140Y10993199D01*
X-30613918Y10973917D01*
X-30610216Y10973384D01*
X-30584546Y10966832D01*
X-30581041Y10965525D01*
X-30577034Y10965238D01*
X-30534742Y10962213D01*
X-30525949Y10961268D01*
X-30513648Y10959500D01*
X-30501220Y10959500D01*
X-30492374Y10959184D01*
X-30446091Y10955873D01*
X-30443168Y10956509D01*
X-30442448Y10956666D01*
X-30416091Y10959500D01*
X-29184697Y10959500D01*
X-29120949Y10941859D01*
X-29075339Y10893954D01*
X-29059736Y10864763D01*
X-29047830Y10850256D01*
X-28933210Y10710589D01*
X-28839278Y10633502D01*
X-28779037Y10584064D01*
X-28756320Y10571922D01*
X-28603141Y10490045D01*
X-28412286Y10432150D01*
X-28213800Y10412601D01*
X-28015313Y10432150D01*
X-27824458Y10490045D01*
X-27648564Y10584063D01*
X-27494389Y10710589D01*
X-27367863Y10864764D01*
X-27273845Y11040658D01*
X-27215950Y11231513D01*
X-27196401Y11430000D01*
X-27215950Y11628486D01*
X-27273845Y11819341D01*
X-27367863Y11995235D01*
X-27367864Y11995237D01*
X-27419009Y12057558D01*
X-27494389Y12149410D01*
X-27573354Y12214214D01*
X-27648563Y12275936D01*
X-27824458Y12369954D01*
X-28015315Y12427850D01*
X-28213800Y12447399D01*
X-28412285Y12427850D01*
X-28603142Y12369954D01*
X-28779037Y12275936D01*
X-28933210Y12149410D01*
X-28933212Y12149408D01*
X-28978217Y12094569D01*
X-29029399Y12057558D01*
X-29092172Y12050560D01*
X-29150248Y12075390D01*
X-29188560Y12125605D01*
X-29197167Y12188178D01*
X-29189722Y12249500D01*
X-29208763Y12406318D01*
X-29264780Y12554023D01*
X-29354515Y12684028D01*
X-29354517Y12684030D01*
X-29472760Y12788783D01*
X-29612635Y12862196D01*
X-29766015Y12900000D01*
X-29778751Y12900000D01*
X-29826204Y12909439D01*
X-29866432Y12936319D01*
X-30900113Y13970000D01*
X-29231199Y13970000D01*
X-29211650Y13771515D01*
X-29153754Y13580658D01*
X-29059736Y13404763D01*
X-29041327Y13382332D01*
X-28933210Y13250589D01*
X-28858251Y13189073D01*
X-28779037Y13124064D01*
X-28779035Y13124063D01*
X-28603141Y13030045D01*
X-28412286Y12972150D01*
X-28213800Y12952601D01*
X-28015313Y12972150D01*
X-27824458Y13030045D01*
X-27648564Y13124063D01*
X-27494389Y13250589D01*
X-27367863Y13404764D01*
X-27273845Y13580658D01*
X-27215950Y13771513D01*
X-27200341Y13930000D01*
X-24164967Y13930000D01*
X-24145141Y13703397D01*
X-24086266Y13483673D01*
X-23990133Y13277515D01*
X-23939025Y13204526D01*
X-23213554Y13929999D01*
X-22506447Y13929999D01*
X-21780973Y13204527D01*
X-21729865Y13277516D01*
X-21633733Y13483672D01*
X-21574858Y13703397D01*
X-21555033Y13930000D01*
X-21574858Y14156602D01*
X-21633733Y14376326D01*
X-21729866Y14582484D01*
X-21780972Y14655471D01*
X-21780974Y14655472D01*
X-22506447Y13930001D01*
X-22506447Y13929999D01*
X-23213554Y13929999D01*
X-23213553Y13930000D01*
X-23213553Y13930001D01*
X-23939025Y14655472D01*
X-23990134Y14582480D01*
X-24086266Y14376326D01*
X-24145141Y14156602D01*
X-24164967Y13930000D01*
X-27200341Y13930000D01*
X-27196401Y13970000D01*
X-27215950Y14168486D01*
X-27273845Y14359341D01*
X-27358921Y14518505D01*
X-27367864Y14535237D01*
X-27434076Y14615917D01*
X-27494389Y14689410D01*
X-27588527Y14766666D01*
X-27648563Y14815936D01*
X-27824458Y14909954D01*
X-28015315Y14967850D01*
X-28213800Y14987399D01*
X-28412285Y14967850D01*
X-28603142Y14909954D01*
X-28779037Y14815936D01*
X-28933210Y14689410D01*
X-29059736Y14535237D01*
X-29153754Y14359342D01*
X-29211650Y14168485D01*
X-29231199Y13970000D01*
X-30900113Y13970000D01*
X-31187610Y14257497D01*
X-31204241Y14278134D01*
X-31206262Y14281279D01*
X-31241344Y14311678D01*
X-31247822Y14317709D01*
X-31256598Y14326485D01*
X-31266531Y14333921D01*
X-31273424Y14339475D01*
X-31294008Y14357311D01*
X-31308513Y14369880D01*
X-31311911Y14371432D01*
X-31334707Y14384957D01*
X-31337695Y14387194D01*
X-31381186Y14403414D01*
X-31389355Y14406799D01*
X-31431578Y14426081D01*
X-31431582Y14426083D01*
X-31435276Y14426614D01*
X-31460958Y14433170D01*
X-31464457Y14434475D01*
X-31476732Y14435352D01*
X-31510755Y14437785D01*
X-31519532Y14438728D01*
X-31531852Y14440500D01*
X-31531856Y14440500D01*
X-31544280Y14440500D01*
X-31553126Y14440816D01*
X-31599408Y14444126D01*
X-31599408Y14444125D01*
X-31599410Y14444126D01*
X-31603051Y14443333D01*
X-31629409Y14440500D01*
X-32455974Y14440500D01*
X-32518837Y14457616D01*
X-32564346Y14504238D01*
X-32579938Y14567495D01*
X-32561309Y14629926D01*
X-32513601Y14674295D01*
X-32484803Y14689410D01*
X-32463261Y14700716D01*
X-32345015Y14805471D01*
X-32255280Y14935476D01*
X-32227387Y15009025D01*
X-23585472Y15009025D01*
X-22860001Y14283553D01*
X-22860000Y14283553D01*
X-22134526Y15009025D01*
X-22134526Y15009026D01*
X-22207515Y15060133D01*
X-22413673Y15156266D01*
X-22633397Y15215141D01*
X-22860000Y15234966D01*
X-23086602Y15215141D01*
X-23306326Y15156266D01*
X-23512480Y15060134D01*
X-23585472Y15009025D01*
X-32227387Y15009025D01*
X-32199263Y15083181D01*
X-32180222Y15240000D01*
X-32199263Y15396818D01*
X-32255280Y15544523D01*
X-32345015Y15674528D01*
X-32345017Y15674530D01*
X-32463260Y15779283D01*
X-32603135Y15852696D01*
X-32756515Y15890500D01*
X-32914485Y15890500D01*
X-33067865Y15852696D01*
X-33207740Y15779283D01*
X-33233636Y15756340D01*
X-33250183Y15741683D01*
X-33288438Y15718558D01*
X-33332408Y15710500D01*
X-34357754Y15710500D01*
X-34415621Y15724830D01*
X-34460112Y15764509D01*
X-34480946Y15820364D01*
X-34473305Y15879487D01*
X-34438958Y15928212D01*
X-34419904Y15944721D01*
X-34417884Y15947866D01*
X-34401255Y15968499D01*
X-33096575Y17273181D01*
X-33056347Y17300061D01*
X-33008894Y17309500D01*
X-29129657Y17309500D01*
X-29063317Y17290262D01*
X-29017562Y17238517D01*
X-29006590Y17170321D01*
X-29033803Y17106835D01*
X-29059736Y17075237D01*
X-29153754Y16899342D01*
X-29211650Y16708485D01*
X-29231199Y16510000D01*
X-29211650Y16311515D01*
X-29153754Y16120658D01*
X-29059736Y15944763D01*
X-28996473Y15867676D01*
X-28933210Y15790589D01*
X-28853081Y15724830D01*
X-28779037Y15664064D01*
X-28779035Y15664063D01*
X-28603141Y15570045D01*
X-28412286Y15512150D01*
X-28213800Y15492601D01*
X-28015313Y15512150D01*
X-27824458Y15570045D01*
X-27648564Y15664063D01*
X-27494389Y15790589D01*
X-27367863Y15944764D01*
X-27273845Y16120658D01*
X-27215950Y16311513D01*
X-27196401Y16510000D01*
X-27215950Y16708486D01*
X-27273845Y16899341D01*
X-27367863Y17075236D01*
X-27393796Y17106835D01*
X-27421010Y17170321D01*
X-27410038Y17238517D01*
X-27364283Y17290262D01*
X-27297943Y17309500D01*
X-18911908Y17309500D01*
X-18867938Y17301442D01*
X-18829683Y17278317D01*
X-18802887Y17254579D01*
X-18787240Y17240717D01*
X-18717302Y17204010D01*
X-18647364Y17167303D01*
X-18493985Y17129500D01*
X-18336015Y17129500D01*
X-18182635Y17167303D01*
X-18042761Y17240716D01*
X-17924515Y17345471D01*
X-17834780Y17475476D01*
X-17778763Y17623181D01*
X-17759722Y17780000D01*
X-17778763Y17936818D01*
X-17834780Y18084523D01*
X-17924515Y18214528D01*
X-17924517Y18214530D01*
X-18042760Y18319283D01*
X-18182635Y18392696D01*
X-18336015Y18430500D01*
X-18493985Y18430500D01*
X-18647365Y18392696D01*
X-18787240Y18319283D01*
X-18813136Y18296340D01*
X-18829683Y18281683D01*
X-18867938Y18258558D01*
X-18911908Y18250500D01*
X-23592207Y18250500D01*
X-23650148Y18264870D01*
X-23694661Y18304648D01*
X-23715427Y18360616D01*
X-23707635Y18419802D01*
X-23673091Y18468488D01*
X-23619800Y18495391D01*
X-23522581Y18517580D01*
X-23278358Y18613431D01*
X-23051143Y18744613D01*
X-22846015Y18908198D01*
X-22667571Y19100514D01*
X-22548523Y19275126D01*
X-22519772Y19317296D01*
X-22405937Y19553677D01*
X-22328604Y19804385D01*
X-22289500Y20063818D01*
X-22289500Y20326182D01*
X-22328604Y20585615D01*
X-22405937Y20836323D01*
X-22519772Y21072704D01*
X-22667567Y21289479D01*
X-22667571Y21289485D01*
X-22846015Y21481801D01*
X-22846016Y21481801D01*
X-22846019Y21481805D01*
X-23051143Y21645386D01*
X-23278357Y21776568D01*
X-23522584Y21872420D01*
X-23778370Y21930802D01*
X-23834408Y21935001D01*
X-23974501Y21945500D01*
X-23974506Y21945500D01*
X-24105494Y21945500D01*
X-24105499Y21945500D01*
X-24228079Y21936313D01*
X-24301630Y21930802D01*
X-24557416Y21872420D01*
X-24801643Y21776568D01*
X-25028857Y21645386D01*
X-25233981Y21481805D01*
X-25322024Y21386917D01*
X-25412428Y21289485D01*
X-25412429Y21289482D01*
X-25412433Y21289479D01*
X-25560228Y21072704D01*
X-25674063Y20836323D01*
X-25751396Y20585615D01*
X-25790500Y20326182D01*
X-25790500Y20063818D01*
X-25751396Y19804385D01*
X-25674063Y19553677D01*
X-25560228Y19317296D01*
X-25412434Y19100523D01*
X-25412428Y19100514D01*
X-25258509Y18934630D01*
X-25233981Y18908195D01*
X-25111658Y18810646D01*
X-25028856Y18744613D01*
X-24940344Y18693511D01*
X-24805175Y18615471D01*
X-24801641Y18613431D01*
X-24557418Y18517580D01*
X-24460200Y18495391D01*
X-24406909Y18468488D01*
X-24372365Y18419802D01*
X-24364573Y18360616D01*
X-24385339Y18304648D01*
X-24429852Y18264870D01*
X-24487793Y18250500D01*
X-26827800Y18250500D01*
X-26889800Y18267113D01*
X-26935187Y18312500D01*
X-26951800Y18374500D01*
X-26951800Y18800000D01*
X-29475800Y18800000D01*
X-29475800Y18374500D01*
X-29492413Y18312500D01*
X-29537800Y18267113D01*
X-29599800Y18250500D01*
X-32640474Y18250500D01*
X-32703337Y18267616D01*
X-32748846Y18314238D01*
X-32764438Y18377495D01*
X-32745809Y18439926D01*
X-32698101Y18484295D01*
X-32676961Y18495391D01*
X-32647761Y18510716D01*
X-32529515Y18615471D01*
X-32439780Y18745476D01*
X-32383763Y18893181D01*
X-32364722Y19050000D01*
X-32383763Y19206818D01*
X-32419102Y19300000D01*
X-29475800Y19300000D01*
X-28463800Y19300000D01*
X-28463800Y20312000D01*
X-27963800Y20312000D01*
X-27963800Y19300000D01*
X-26951800Y19300000D01*
X-26951800Y19859824D01*
X-26958202Y19919375D01*
X-27008447Y20054089D01*
X-27094611Y20169188D01*
X-27209710Y20255352D01*
X-27344424Y20305597D01*
X-27403976Y20312000D01*
X-27963800Y20312000D01*
X-28463800Y20312000D01*
X-29023624Y20312000D01*
X-29083175Y20305597D01*
X-29217889Y20255352D01*
X-29332988Y20169188D01*
X-29419152Y20054089D01*
X-29469397Y19919375D01*
X-29475800Y19859824D01*
X-29475800Y19300000D01*
X-32419102Y19300000D01*
X-32439780Y19354523D01*
X-32529515Y19484528D01*
X-32529517Y19484530D01*
X-32647760Y19589283D01*
X-32787635Y19662696D01*
X-32941015Y19700500D01*
X-32953750Y19700500D01*
X-33001203Y19709939D01*
X-33041431Y19736819D01*
X-33404111Y20099498D01*
X-33420743Y20120136D01*
X-33422764Y20123280D01*
X-33457844Y20153678D01*
X-33464322Y20159709D01*
X-33473098Y20168485D01*
X-33473101Y20168487D01*
X-33483031Y20175921D01*
X-33489924Y20181475D01*
X-33489944Y20181492D01*
X-33525013Y20211880D01*
X-33528411Y20213432D01*
X-33551207Y20226957D01*
X-33554195Y20229194D01*
X-33597686Y20245414D01*
X-33605855Y20248799D01*
X-33648078Y20268081D01*
X-33648082Y20268083D01*
X-33651776Y20268614D01*
X-33677458Y20275170D01*
X-33680957Y20276475D01*
X-33693232Y20277352D01*
X-33727255Y20279785D01*
X-33736032Y20280728D01*
X-33748352Y20282500D01*
X-33748356Y20282500D01*
X-33760780Y20282500D01*
X-33769626Y20282816D01*
X-33815908Y20286126D01*
X-33815908Y20286125D01*
X-33815910Y20286126D01*
X-33819551Y20285333D01*
X-33845909Y20282500D01*
X-35496084Y20282500D01*
X-35522439Y20285333D01*
X-35526089Y20286127D01*
X-35526089Y20286126D01*
X-35526090Y20286127D01*
X-35572383Y20282815D01*
X-35581229Y20282500D01*
X-35593648Y20282500D01*
X-35605938Y20280732D01*
X-35614739Y20279786D01*
X-35661040Y20276475D01*
X-35664542Y20275168D01*
X-35690221Y20268614D01*
X-35693918Y20268083D01*
X-35736162Y20248790D01*
X-35744287Y20245424D01*
X-35787805Y20229194D01*
X-35790786Y20226962D01*
X-35813593Y20213429D01*
X-35816987Y20211880D01*
X-35852055Y20181492D01*
X-35858945Y20175939D01*
X-35868901Y20168487D01*
X-35877678Y20159709D01*
X-35877684Y20159703D01*
X-35884151Y20153680D01*
X-35919236Y20123280D01*
X-35921256Y20120136D01*
X-35937882Y20099504D01*
X-36233002Y19804385D01*
X-36480568Y19556819D01*
X-36520796Y19529939D01*
X-36568249Y19520500D01*
X-40838118Y19520500D01*
X-40903396Y19539073D01*
X-40949118Y19589229D01*
X-40970324Y19631818D01*
X-41093236Y19794580D01*
X-41243958Y19931981D01*
X-41417361Y20039347D01*
X-41417362Y20039347D01*
X-41417363Y20039348D01*
X-41607544Y20113024D01*
X-41808024Y20150500D01*
X-42011976Y20150500D01*
X-42212456Y20113024D01*
X-42402637Y20039348D01*
X-42534390Y19957770D01*
X-42576041Y19931981D01*
X-42726763Y19794580D01*
X-42849675Y19631818D01*
X-42870881Y19589229D01*
X-42940582Y19449250D01*
X-42996397Y19253083D01*
X-43015215Y19050000D01*
X-43002075Y18908198D01*
X-42996397Y18846916D01*
X-42983048Y18800000D01*
X-42952749Y18693511D01*
X-42940581Y18650748D01*
X-42849675Y18468181D01*
X-42837101Y18451531D01*
X-42813380Y18394881D01*
X-42819752Y18333796D01*
X-42854655Y18283262D01*
X-42909527Y18255675D01*
X-42970906Y18257802D01*
X-43023736Y18289123D01*
X-43360347Y18625734D01*
X-43392684Y18682245D01*
X-43391932Y18747349D01*
X-43363603Y18846915D01*
X-43344785Y19050000D01*
X-43363602Y19253083D01*
X-43419418Y19449251D01*
X-43510324Y19631818D01*
X-43633236Y19794580D01*
X-43783958Y19931981D01*
X-43957361Y20039347D01*
X-43957362Y20039347D01*
X-43957363Y20039348D01*
X-44147544Y20113024D01*
X-44348024Y20150500D01*
X-44551976Y20150500D01*
X-44752456Y20113024D01*
X-44942637Y20039348D01*
X-45074390Y19957770D01*
X-45116041Y19931981D01*
X-45266763Y19794580D01*
X-45389675Y19631818D01*
X-45410881Y19589229D01*
X-45480582Y19449250D01*
X-45536397Y19253083D01*
X-45555215Y19050000D01*
X-45542075Y18908198D01*
X-45536397Y18846916D01*
X-45523048Y18800000D01*
X-45492749Y18693511D01*
X-45480581Y18650748D01*
X-45389675Y18468181D01*
X-45266763Y18305419D01*
X-45116041Y18168018D01*
X-44942638Y18060652D01*
X-44752457Y17986976D01*
X-44685629Y17974483D01*
X-44551976Y17949500D01*
X-44348026Y17949500D01*
X-44348024Y17949500D01*
X-44147544Y17986976D01*
X-44147540Y17986977D01*
X-44136250Y17989088D01*
X-44135979Y17987642D01*
X-44107566Y17992724D01*
X-44061149Y17982929D01*
X-44021807Y17956420D01*
X-43682140Y17616753D01*
X-43651370Y17565752D01*
X-43647932Y17506287D01*
X-43672619Y17452080D01*
X-43719735Y17415638D01*
X-43778407Y17405370D01*
X-43835097Y17423644D01*
X-43957363Y17499348D01*
X-44147544Y17573024D01*
X-44348024Y17610500D01*
X-44551976Y17610500D01*
X-44752456Y17573024D01*
X-44942637Y17499348D01*
X-45094417Y17405370D01*
X-45116041Y17391981D01*
X-45206518Y17309500D01*
X-45266764Y17254579D01*
X-45332671Y17167303D01*
X-45389675Y17091818D01*
X-45435313Y17000161D01*
X-45480582Y16909250D01*
X-45536397Y16713083D01*
X-45555215Y16510000D01*
X-45537992Y16324138D01*
X-45536397Y16306916D01*
X-45480581Y16110748D01*
X-45389675Y15928181D01*
X-45266763Y15765419D01*
X-45116041Y15628018D01*
X-44942638Y15520652D01*
X-44752457Y15446976D01*
X-44685629Y15434483D01*
X-44551976Y15409500D01*
X-44348026Y15409500D01*
X-44348024Y15409500D01*
X-44147544Y15446976D01*
X-44147540Y15446977D01*
X-44136250Y15449088D01*
X-44135979Y15447642D01*
X-44107566Y15452724D01*
X-44061149Y15442929D01*
X-44021807Y15416420D01*
X-43682140Y15076753D01*
X-43651370Y15025752D01*
X-43647932Y14966287D01*
X-43672619Y14912080D01*
X-43719735Y14875638D01*
X-43778407Y14865370D01*
X-43835097Y14883644D01*
X-43957363Y14959348D01*
X-44147544Y15033024D01*
X-44348024Y15070500D01*
X-44551976Y15070500D01*
X-44752456Y15033024D01*
X-44942637Y14959348D01*
X-45081417Y14873419D01*
X-45116041Y14851981D01*
X-45206518Y14769500D01*
X-45266764Y14714579D01*
X-45377836Y14567495D01*
X-45389675Y14551818D01*
X-45435313Y14460161D01*
X-45480582Y14369250D01*
X-45536397Y14173083D01*
X-45555215Y13970000D01*
X-45551508Y13929999D01*
X-45536397Y13766916D01*
X-45480581Y13570748D01*
X-45389675Y13388181D01*
X-45266763Y13225419D01*
X-45116041Y13088018D01*
X-44942640Y12980653D01*
X-44942637Y12980652D01*
X-44861712Y12949301D01*
X-44811600Y12913479D01*
X-44784909Y12857961D01*
X-44788228Y12796449D01*
X-44820738Y12744124D01*
X-44874416Y12713901D01*
X-44913490Y12703431D01*
X-45127578Y12603599D01*
X-45321078Y12468109D01*
X-45488109Y12301078D01*
X-45623599Y12107578D01*
X-45723430Y11893492D01*
X-45780635Y11680000D01*
X-46239500Y11680000D01*
X-46239500Y21862770D01*
X-46230061Y21910223D01*
X-46203181Y21950451D01*
X-44652950Y23500682D01*
X-44612722Y23527562D01*
X-44565269Y23537001D01*
X-43467749Y23537001D01*
X-43411454Y23523486D01*
X-43367431Y23485886D01*
X-43345276Y23432399D01*
X-43349818Y23374683D01*
X-43380068Y23325320D01*
X-44021810Y22683576D01*
X-44061157Y22657067D01*
X-44107584Y22647275D01*
X-44135979Y22652358D01*
X-44136250Y22650912D01*
X-44147540Y22653022D01*
X-44147544Y22653024D01*
X-44348024Y22690500D01*
X-44551976Y22690500D01*
X-44752456Y22653024D01*
X-44942637Y22579348D01*
X-45116041Y22471981D01*
X-45266764Y22334579D01*
X-45359132Y22212263D01*
X-45389675Y22171818D01*
X-45435313Y22080161D01*
X-45480582Y21989250D01*
X-45536397Y21793083D01*
X-45555215Y21590000D01*
X-45545189Y21481805D01*
X-45536397Y21386916D01*
X-45480581Y21190748D01*
X-45389675Y21008181D01*
X-45266763Y20845419D01*
X-45116041Y20708018D01*
X-44942638Y20600652D01*
X-44752457Y20526976D01*
X-44685629Y20514483D01*
X-44551976Y20489500D01*
X-44348026Y20489500D01*
X-44348024Y20489500D01*
X-44247783Y20508238D01*
X-44147542Y20526976D01*
X-43957361Y20600652D01*
X-43783958Y20708018D01*
X-43633236Y20845419D01*
X-43510324Y21008181D01*
X-43419418Y21190748D01*
X-43363602Y21386916D01*
X-43344785Y21590000D01*
X-43363602Y21793082D01*
X-43391932Y21892648D01*
X-43392684Y21957753D01*
X-43360348Y22014264D01*
X-43309862Y22064750D01*
X-43222179Y22152432D01*
X-43172818Y22182681D01*
X-43115102Y22187223D01*
X-43061615Y22165068D01*
X-43024015Y22121045D01*
X-43010500Y22064750D01*
X-43010500Y20715326D01*
X-42995966Y20642260D01*
X-42940601Y20559399D01*
X-42857740Y20504034D01*
X-42857739Y20504033D01*
X-42857738Y20504033D01*
X-42784675Y20489500D01*
X-42784674Y20489500D01*
X-41035326Y20489500D01*
X-41035325Y20489500D01*
X-40962261Y20504033D01*
X-40879399Y20559399D01*
X-40824033Y20642261D01*
X-40809500Y20715325D01*
X-40809500Y22464675D01*
X-40824033Y22537738D01*
X-40832531Y22550457D01*
X-40879399Y22620601D01*
X-40953927Y22670398D01*
X-40995520Y22717205D01*
X-41008940Y22778368D01*
X-40990764Y22838290D01*
X-40945625Y22881689D01*
X-40885036Y22897500D01*
X-21963249Y22897500D01*
X-21915796Y22888061D01*
X-21875568Y22861181D01*
X-20369137Y21354750D01*
X-20345331Y21321352D01*
X-20333722Y21282016D01*
X-20321237Y21179182D01*
X-20265220Y21031477D01*
X-20175483Y20901470D01*
X-20057240Y20796717D01*
X-20057238Y20796716D01*
X-19917364Y20723303D01*
X-19763985Y20685500D01*
X-19606015Y20685500D01*
X-19452635Y20723303D01*
X-19312761Y20796716D01*
X-19194515Y20901471D01*
X-19104780Y21031476D01*
X-19048763Y21179181D01*
X-19029721Y21336000D01*
X-19047543Y21482770D01*
X-19039849Y21543086D01*
X-19004407Y21592492D01*
X-18949739Y21619110D01*
X-18888990Y21616539D01*
X-18836766Y21585398D01*
X-17296819Y20045451D01*
X-17269939Y20005223D01*
X-17260500Y19957770D01*
X-17260500Y14967230D01*
X-17269939Y14919777D01*
X-17296819Y14879549D01*
X-19959549Y12216819D01*
X-19999777Y12189939D01*
X-20047230Y12180500D01*
X-21692982Y12180500D01*
X-21747826Y12193288D01*
X-21791357Y12229013D01*
X-21814599Y12280308D01*
X-21824033Y12327738D01*
X-21842533Y12355426D01*
X-21879399Y12410601D01*
X-21962260Y12465966D01*
X-21998793Y12473233D01*
X-22035325Y12480500D01*
X-22035326Y12480500D01*
X-22333071Y12480500D01*
X-22396936Y12498211D01*
X-22442556Y12546286D01*
X-22456901Y12610990D01*
X-22435872Y12673840D01*
X-22385476Y12716882D01*
X-22207516Y12799865D01*
X-22134526Y12850973D01*
X-22859999Y13576447D01*
X-22860001Y13576447D01*
X-23585472Y12850974D01*
X-23585471Y12850972D01*
X-23512484Y12799866D01*
X-23334524Y12716882D01*
X-23284128Y12673840D01*
X-23263099Y12610989D01*
X-23277444Y12546285D01*
X-23323064Y12498211D01*
X-23386929Y12480500D01*
X-23684675Y12480500D01*
X-23709029Y12475655D01*
X-23757740Y12465966D01*
X-23840601Y12410601D01*
X-23895966Y12327740D01*
X-23895966Y12327738D01*
X-23910500Y12254675D01*
X-23910500Y10605325D01*
X-23905401Y10579692D01*
X-23895966Y10532260D01*
X-23840601Y10449399D01*
X-23757740Y10394034D01*
X-23757739Y10394033D01*
X-23757738Y10394033D01*
X-23684675Y10379500D01*
X-23684674Y10379500D01*
X-22035326Y10379500D01*
X-22035325Y10379500D01*
X-21962261Y10394033D01*
X-21879399Y10449399D01*
X-21824033Y10532261D01*
X-21814599Y10579692D01*
X-21791357Y10630987D01*
X-21747826Y10666712D01*
X-21692982Y10679500D01*
X-19748706Y10679500D01*
X-19730736Y10678191D01*
X-19716853Y10676157D01*
X-19706977Y10674711D01*
X-19706976Y10674711D01*
X-19657631Y10679028D01*
X-19646824Y10679500D01*
X-19641291Y10679500D01*
X-19610501Y10683098D01*
X-19606917Y10683464D01*
X-19530961Y10690109D01*
X-19511921Y10694330D01*
X-19440232Y10720421D01*
X-19436831Y10721603D01*
X-19364479Y10745579D01*
X-19346925Y10754077D01*
X-19283228Y10795970D01*
X-19280190Y10797905D01*
X-19215281Y10837943D01*
X-19200164Y10850256D01*
X-19147848Y10905708D01*
X-19145336Y10908294D01*
X-16024358Y14029272D01*
X-16010727Y14041053D01*
X-15991467Y14055392D01*
X-15959633Y14093329D01*
X-15952341Y14101289D01*
X-15948408Y14105222D01*
X-15929176Y14129545D01*
X-15926902Y14132337D01*
X-15877894Y14190744D01*
X-15867418Y14207187D01*
X-15835192Y14276294D01*
X-15833622Y14279536D01*
X-15799393Y14347692D01*
X-15792996Y14366098D01*
X-15777573Y14440788D01*
X-15776793Y14444305D01*
X-15759208Y14518505D01*
X-15757229Y14537878D01*
X-15759448Y14614131D01*
X-15759500Y14617737D01*
X-15759500Y20063818D01*
X19009500Y20063818D01*
X19048604Y19804385D01*
X19125937Y19553677D01*
X19239772Y19317296D01*
X19268523Y19275126D01*
X19387571Y19100514D01*
X19566015Y18908198D01*
X19771143Y18744613D01*
X19998358Y18613431D01*
X20242581Y18517580D01*
X20498372Y18459197D01*
X20694501Y18444500D01*
X20694506Y18444500D01*
X20825494Y18444500D01*
X20825499Y18444500D01*
X21021627Y18459197D01*
X21277418Y18517580D01*
X21521641Y18613431D01*
X21525175Y18615471D01*
X21660344Y18693511D01*
X21748856Y18744613D01*
X21831658Y18810646D01*
X21953981Y18908195D01*
X21978509Y18934630D01*
X22132428Y19100514D01*
X22132434Y19100523D01*
X22280228Y19317296D01*
X22394063Y19553677D01*
X22471396Y19804385D01*
X22510500Y20063818D01*
X22510500Y20326182D01*
X22471396Y20585615D01*
X22394063Y20836323D01*
X22280228Y21072704D01*
X22132433Y21289479D01*
X22132429Y21289482D01*
X22132428Y21289485D01*
X22042024Y21386917D01*
X21953981Y21481805D01*
X21748857Y21645386D01*
X21521643Y21776568D01*
X21277416Y21872420D01*
X21021630Y21930802D01*
X20948079Y21936313D01*
X20825499Y21945500D01*
X20825494Y21945500D01*
X20694506Y21945500D01*
X20694501Y21945500D01*
X20554408Y21935001D01*
X20498370Y21930802D01*
X20242584Y21872420D01*
X19998357Y21776568D01*
X19771143Y21645386D01*
X19566019Y21481805D01*
X19566016Y21481801D01*
X19566015Y21481801D01*
X19387571Y21289485D01*
X19387567Y21289479D01*
X19239772Y21072704D01*
X19125937Y20836323D01*
X19048604Y20585615D01*
X19009500Y20326182D01*
X19009500Y20063818D01*
X-15759500Y20063818D01*
X-15759500Y20256294D01*
X-15758191Y20274264D01*
X-15754711Y20298023D01*
X-15759028Y20347369D01*
X-15759500Y20358176D01*
X-15759500Y20363708D01*
X-15763098Y20394496D01*
X-15763464Y20398081D01*
X-15770110Y20474041D01*
X-15774329Y20493071D01*
X-15774758Y20494251D01*
X-15774759Y20494255D01*
X-15800413Y20564742D01*
X-15801582Y20568107D01*
X-15825582Y20640530D01*
X-15834073Y20658066D01*
X-15834761Y20659112D01*
X-15834763Y20659117D01*
X-15875991Y20721802D01*
X-15877902Y20724800D01*
X-15917953Y20789733D01*
X-15930255Y20804832D01*
X-15931168Y20805694D01*
X-15931170Y20805696D01*
X-15985726Y20857167D01*
X-15988313Y20859680D01*
X-19901770Y24773138D01*
X-19913552Y24786771D01*
X-19927890Y24806030D01*
X-19965838Y24837873D01*
X-19973812Y24845181D01*
X-19977722Y24849091D01*
X-20002038Y24868317D01*
X-20004837Y24870597D01*
X-20063253Y24919614D01*
X-20079680Y24930079D01*
X-20148821Y24962320D01*
X-20152068Y24963892D01*
X-20220200Y24998110D01*
X-20238588Y25004501D01*
X-20239824Y25004756D01*
X-20239828Y25004758D01*
X-20313396Y25019948D01*
X-20316743Y25020690D01*
X-20389780Y25038001D01*
X-20389782Y25038001D01*
X-20391010Y25038292D01*
X-20410379Y25040271D01*
X-20411641Y25040234D01*
X-20411645Y25040235D01*
X-20484034Y25038128D01*
X-20486632Y25038053D01*
X-20490238Y25038001D01*
X-44863793Y25038001D01*
X-44881763Y25039310D01*
X-44885819Y25039903D01*
X-44905522Y25042790D01*
X-44953898Y25038557D01*
X-44954868Y25038473D01*
X-44965675Y25038001D01*
X-44971208Y25038001D01*
X-45002049Y25034395D01*
X-45005530Y25034040D01*
X-45080296Y25027500D01*
X-45080296Y25027499D01*
X-45081551Y25027390D01*
X-45100561Y25023175D01*
X-45101749Y25022742D01*
X-45101754Y25022742D01*
X-45172319Y24997058D01*
X-45175594Y24995920D01*
X-45246833Y24972315D01*
X-45246837Y24972312D01*
X-45248036Y24971915D01*
X-45265563Y24963431D01*
X-45267252Y24962320D01*
X-45329314Y24921499D01*
X-45332269Y24919616D01*
X-45396154Y24880213D01*
X-45396155Y24880211D01*
X-45397233Y24879547D01*
X-45412325Y24867252D01*
X-45413192Y24866332D01*
X-45413195Y24866331D01*
X-45464701Y24811736D01*
X-45467145Y24809220D01*
X-47475642Y22800724D01*
X-47489260Y22788954D01*
X-47508530Y22774610D01*
X-47540376Y22736656D01*
X-47547662Y22728704D01*
X-47551591Y22724777D01*
X-47570833Y22700439D01*
X-47573090Y22697670D01*
X-47621302Y22640214D01*
X-47621303Y22640211D01*
X-47622115Y22639244D01*
X-47632573Y22622827D01*
X-47633106Y22621682D01*
X-47633111Y22621677D01*
X-47664833Y22553646D01*
X-47666362Y22550488D01*
X-47672765Y22537740D01*
X-47700612Y22482294D01*
X-47707000Y22463914D01*
X-47707255Y22462675D01*
X-47707257Y22462673D01*
X-47722447Y22389103D01*
X-47723186Y22385770D01*
X-47740500Y22312721D01*
X-47740500Y22312717D01*
X-47740791Y22311489D01*
X-47742770Y22292121D01*
X-47742733Y22290859D01*
X-47742734Y22290856D01*
X-47740630Y22218556D01*
X-47740552Y22215869D01*
X-47740500Y22212263D01*
X-47740500Y9969706D01*
X-47741809Y9951736D01*
X-47745289Y9927977D01*
X-48259500Y9927977D01*
X-48259500Y25275500D01*
X-48242887Y25337500D01*
X-48197500Y25382887D01*
X-48135500Y25399500D01*
X25275500Y25399500D01*
X25337500Y25382887D01*
G37*
G04 #@! TD.AperFunction*
M02*
