G04 #@! TF.GenerationSoftware,KiCad,Pcbnew,7.0.1*
G04 #@! TF.CreationDate,2023-04-02T16:08:30+02:00*
G04 #@! TF.ProjectId,PMOD SPI SD TFT,504d4f44-2053-4504-9920-534420544654,V1.0*
G04 #@! TF.SameCoordinates,Original*
G04 #@! TF.FileFunction,Soldermask,Bot*
G04 #@! TF.FilePolarity,Negative*
%FSLAX46Y46*%
G04 Gerber Fmt 4.6, Leading zero omitted, Abs format (unit mm)*
G04 Created by KiCad (PCBNEW 7.0.1) date 2023-04-02 16:08:30*
%MOMM*%
%LPD*%
G01*
G04 APERTURE LIST*
%ADD10R,1.700000X1.700000*%
%ADD11O,1.700000X1.700000*%
%ADD12C,1.524000*%
%ADD13R,1.524000X1.524000*%
%ADD14C,3.000000*%
%ADD15R,1.600000X1.600000*%
%ADD16C,1.600000*%
G04 APERTURE END LIST*
D10*
X-41910000Y21590000D03*
D11*
X-41910000Y19050000D03*
X-41910000Y16510000D03*
X-41910000Y13970000D03*
X-41910000Y11430000D03*
X-41910000Y8890000D03*
X-44450000Y21590000D03*
X-44450000Y19050000D03*
X-44450000Y16510000D03*
X-44450000Y13970000D03*
X-44450000Y11430000D03*
X-44450000Y8890000D03*
D12*
X-28213800Y-19050000D03*
X-28213800Y-16510000D03*
X-28213800Y-13970000D03*
X-28213800Y-11430000D03*
X-28213800Y-8890000D03*
X-28213800Y-6350000D03*
X-28213800Y-3810000D03*
X-28213800Y-1270000D03*
X21620000Y-8890000D03*
X-28213800Y1270000D03*
X21620000Y-6350000D03*
X-28213800Y3810000D03*
X21620000Y-3810000D03*
X-28213800Y6350000D03*
X21620000Y-1270000D03*
X-28213800Y8890000D03*
X21620000Y1270000D03*
X-28213800Y11430000D03*
X21620000Y3810000D03*
X-28213800Y13970000D03*
X21620000Y6350000D03*
X-28213800Y16510000D03*
D13*
X21620000Y8890000D03*
X-28213800Y19050000D03*
D14*
X20760000Y-20195000D03*
X20760000Y20195000D03*
X-24040000Y-20195000D03*
X-24040000Y20195000D03*
D15*
X-22860000Y11430000D03*
D16*
X-22860000Y13930000D03*
M02*
